<?xml version="1.0" standalone="no"?>
<!DOCTYPE svg PUBLIC "-//W3C//DTD SVG 1.1//EN" "http://www.w3.org/Graphics/SVG/1.1/DTD/svg11.dtd" >
<svg>
<metadata>
Created by FontForge 20090914 at Tue Dec 29 17:00:51 2015
 By www-data
2015 Iconian Fonts - www.iconian.com
</metadata>
<defs>
<font id="Sea-Dog" horiz-adv-x="974" >
  <font-face 
    font-family="Sea-Dog"
    font-weight="400"
    font-stretch="normal"
    units-per-em="1000"
    panose-1="0 0 0 0 0 0 0 0 0 0"
    ascent="800"
    descent="-200"
    x-height="570.998"
    cap-height="571"
    bbox="-78.998 -169 1731 759.003"
    underline-thickness="50"
    underline-position="-75"
    unicode-range="U+0020-U+2122"
  />
<missing-glyph horiz-adv-x="500" 
 />
    <glyph glyph-name=".notdef" horiz-adv-x="500" 
 />
    <glyph glyph-name="space" unicode=" " horiz-adv-x="559" 
 />
    <glyph glyph-name="space" unicode="&#xa0;" horiz-adv-x="559" 
 />
    <glyph glyph-name="FL0021h" unicode="!" horiz-adv-x="350" 
d="M300 512c0 19.333 -4.83301 34 -14.5 44s-20.5 15 -32.5 15h-153c-10.667 0 -21.667 -5.16699 -33 -15.5s-17 -22.833 -17 -37.5v-240c0 -14.667 5 -27.667 15 -39s20.333 -17 31 -17h157c12 0 22.833 5.5 32.5 16.5s14.5 24.167 14.5 39.5v234zM100 0h150.002
c11.333 0 22.5 4 33.5 12s16.5 17.333 16.5 28v69c0 11.333 -5.33301 21.333 -16 30s-22.334 13 -35.001 13h-148c-12.667 0 -24.334 -4.33301 -35.001 -13s-16 -18.667 -16 -30v-69c0 -10.667 5.5 -20 16.5 -28s22.167 -12 33.5 -12z" />
    <glyph glyph-name="FL0022h" unicode="&#x22;" horiz-adv-x="599" 
d="M369 301l14.001 -0.000976562c6 0 13.667 1.66699 23 5s19 7.33301 29 12s19.333 9.5 28 14.5s15.334 9.16699 20.001 12.5l18.5 13.5c7.66699 5.66699 15 11.834 22 18.501s13 13.5 18 20.5s7.5 13.833 7.5 20.5v110c0 11.333 -5.33301 21.333 -16 30
s-22.334 13 -35.001 13h-124c-12.667 0 -24.334 -4.33301 -35.001 -13s-16 -18.667 -16 -30v-187c0 -10.667 4.83301 -20 14.5 -28s20.167 -12 31.5 -12zM96.001 300.999l14.001 -0.000976562c6 0 13.667 1.66699 23 5s19 7.33301 29 12s19.333 9.5 28 14.5
s15.334 9.16699 20.001 12.5l18.5 13.5c7.66699 5.66699 15 11.834 22 18.501s13 13.5 18 20.5s7.5 13.833 7.5 20.5v110c0 11.333 -5.33301 21.333 -16 30s-22.334 13 -35.001 13h-124c-12.667 0 -24.334 -4.33301 -35.001 -13s-16 -18.667 -16 -30v-187
c0 -10.667 4.83301 -20 14.5 -28s20.167 -12 31.5 -12z" />
    <glyph glyph-name="FL0023h" unicode="#" horiz-adv-x="905" 
d="M726 291v-13.9961c0.666992 -6.66699 3.66699 -13.5 9 -20.5s12 -10.5 20 -10.5h50c11.333 0 22.5 -4 33.5 -12s16.5 -17.333 16.5 -28v-49c0 -11.333 -5.33301 -21.333 -16 -30s-22.334 -13 -35.001 -13h-49c-10.667 0 -18.167 -3.5 -22.5 -10.5s-6.5 -14.5 -6.5 -22.5
v-30c0 -12.667 -4.33301 -24.334 -13 -35.001s-18.667 -16 -30 -16h-104c-10.667 0 -20.334 5.5 -29.001 16.5s-13 22.167 -13 33.5v32c0 9.33301 -2.83301 17 -8.5 23s-13.5 9 -23.5 9h-106c-9.33301 -0.666992 -16 -4.5 -20 -11.5s-6 -14.167 -6 -21.5v-30
c0 -12.667 -4.33301 -24.334 -13 -35.001s-18.667 -16 -30 -16h-105c-10.667 0 -20.334 5.5 -29.001 16.5s-13 22.167 -13 33.5v32c0 9.33301 -2.83301 17 -8.5 23s-13.5 9 -23.5 9h-50c-12.667 0 -24.334 4.33301 -35.001 13s-16 18.667 -16 30v49c0 10.667 5.5 20 16.5 28
s22.167 12 33.5 12h50c18.667 0 29.667 9 33 27v20c0 10 -3 17.833 -9 23.5s-14 8.5 -24 8.5h-50c-11.333 0 -22.5 4 -33.5 12s-16.5 17.333 -16.5 28v49c0 11.333 5.33301 21.333 16 30s22.334 13 35.001 13h50c10 0 17.833 3 23.5 9s8.5 13.667 8.5 23v32
c0 11.333 4.33301 22.5 13 33.5s18.334 16.5 29.001 16.5h105c11.333 0 21.333 -5.33301 30 -16s13 -22.334 13 -35.001v-30c0 -7.33301 2 -14.5 6 -21.5s10.667 -10.833 20 -11.5h106c10 0 17.833 3 23.5 9s8.5 13.667 8.5 23v32c0 11.333 4.33301 22.5 13 33.5
s18.334 16.5 29.001 16.5h104c11.333 0 21.333 -5.33301 30 -16s13 -22.334 13 -35.001v-30c0 -8 2.16699 -15.5 6.5 -22.5s11.833 -10.5 22.5 -10.5h49c12.667 0 24.334 -4.33301 35.001 -13s16 -18.667 16 -30v-49c0 -10.667 -5.5 -20 -16.5 -28s-22.167 -12 -33.5 -12
h-50c-8.66699 0 -15.667 -4 -21 -12s-8 -15.333 -8 -22zM402 325.004c-8.66699 0 -15.667 -4 -21 -12s-8 -15.333 -8 -22v-14c0.666992 -6.66699 3.66699 -13.5 9 -20.5s12 -10.5 20 -10.5h106c17.333 2 27 11.333 29 28v19c0 19.333 -9.66699 30 -29 32h-106z" />
    <glyph glyph-name="FL0024h" unicode="$" 
d="M412 -78c-11.333 0 -22.501 4.00098 -33.501 12.001s-16.5 17.333 -16.5 28v38h-261c-12.667 0 -24.334 4.33301 -35.001 13s-16 18.667 -16 30v69c0 10.667 5.5 20 16.5 28s22.167 12 33.5 12h524c15.333 0 26.166 3 32.499 9s9.5 14 9.5 24
c0 8.66699 -2.83301 17 -8.5 25s-16.834 12 -33.501 12h-437c-40 0 -72.833 10.167 -98.5 30.5s-38.5 46.5 -38.5 78.5v131c0 16 3.66699 30.667 11 44s17.166 24.833 29.499 34.5s26.833 17.167 43.5 22.5s34.334 8 53.001 8h174v38c0 11.333 5.33301 21.333 16 30
s22.334 13 35.001 13h148c12.667 0 24.334 -4.33301 35.001 -13s16 -18.667 16 -30v-38h267c12.667 0 23.5 -4.33301 32.5 -13s13.5 -18.667 13.5 -30v-69c0 -10.667 -5.5 -20 -16.5 -28s-22.167 -12 -33.5 -12h-530c-15.333 0 -26.166 -2.5 -32.499 -7.5
s-9.5 -13.167 -9.5 -24.5c0 -12.667 3.33301 -21.334 10 -26.001s17.334 -7 32.001 -7h443c19.333 0 37.333 -2.66699 54 -8s31.167 -12.833 43.5 -22.5s22 -21.167 29 -34.5s10.5 -28 10.5 -44v-136c0 -16 -3.66699 -30.667 -11 -44s-17.166 -24.833 -29.499 -34.5
s-26.833 -17.167 -43.5 -22.5s-34.334 -8 -53.001 -8h-175v-38c0 -10.667 -5.5 -20 -16.5 -28s-22.167 -12 -33.5 -12h-150z" />
    <glyph glyph-name="FL0025h" unicode="%" horiz-adv-x="1311" 
d="M767 550l-515.999 -508.999c-4 -5.33301 -7.33301 -10.333 -10 -15s-4 -8.66699 -4 -12c0 -8.66699 8 -13.334 24 -14.001h237c2 0 5.16699 0.666992 9.5 2s8.66602 3 12.999 5s8.5 4.16699 12.5 6.5s7 4.83301 9 7.5l516 509c4 5.33301 7.33301 10.333 10 15
s4 8.66699 4 12c0 8 -8 12.667 -24 14h-225c-2 0 -5.66699 -0.666992 -11 -2s-11 -3 -17 -5s-11.667 -4.16699 -17 -6.5s-9 -4.83301 -11 -7.5zM887.001 0.000976562h311.998c18 0 32.833 4.83301 44.5 14.5s17.5 23.5 17.5 41.5v175c0 16 -6.66699 29 -20 39
s-29.333 15 -48 15h-300c-19.333 0 -35.666 -5 -48.999 -15s-20 -23 -20 -39v-175c0 -18 5.83301 -31.833 17.5 -41.5s26.834 -14.5 45.501 -14.5zM1081 199.001c19.333 0 29 -9.33301 29 -28v-57c0 -18.667 -7.33301 -28 -22 -28h-90c-15.333 0 -23 9.33301 -23 28v57
c0 18.667 10 28 30 28h76zM112.999 286.001h311.998c18 0 32.833 4.83301 44.5 14.5s17.5 23.5 17.5 41.5v175c0 16 -6.66699 29 -20 39s-29.333 15 -48 15h-300c-19.333 0 -35.666 -5 -48.999 -15s-20 -23 -20 -39v-175c0 -18 5.83301 -31.833 17.5 -41.5
s26.834 -14.5 45.501 -14.5zM306.997 485.001c19.333 0 29 -9.33301 29 -28v-57c0 -18.667 -7.33301 -28 -22 -28h-90c-15.333 0 -23 9.33301 -23 28v57c0 18.667 10 28 30 28h76z" />
    <glyph glyph-name="FL0026h" unicode="&#x26;" horiz-adv-x="1066" 
d="M965 349c12.667 0 24.3311 -4.16895 34.998 -12.502s16 -18.166 16 -29.499v-46c0 -10.667 -5.5 -19.834 -16.5 -27.501s-22.167 -11.5 -33.5 -11.5h-42v-113c0 -16 -3.66699 -30.667 -11 -44s-17.166 -24.833 -29.499 -34.5s-26.833 -17.167 -43.5 -22.5
s-34.334 -8 -53.001 -8h-600c-18.667 0 -36.334 2.66699 -53.001 8s-31.167 12.833 -43.5 22.5s-22.166 21.167 -29.499 34.5s-11 28 -11 44v100c0 4.66699 1.83301 10.834 5.5 18.501s7.83398 15.334 12.501 23.001s9.33398 14.834 14.001 21.501l9 13
c-4 4.66699 -8.33301 10.5 -13 17.5s-9.16699 14.333 -13.5 22s-7.83301 15.167 -10.5 22.5s-4 14 -4 20v95c0 16 3.66699 30.667 11 44s17.166 24.833 29.499 34.5s26.833 17.167 43.5 22.5s34.334 8 53.001 8h580c11.333 -2.66699 21 -7.83398 29 -15.501
s12 -16.5 12 -26.5v-70c0 -10.667 -5.5 -20 -16.5 -28s-22.167 -12 -33.5 -12h-413c-15.333 0 -26.5 -2.33301 -33.5 -7s-10.5 -13.667 -10.5 -27c0 -12 3.83301 -21 11.5 -27s20.167 -9 37.5 -9h615zM344.997 221.998c-15.333 0 -26.5 -2.33301 -33.5 -7
s-10.5 -13.667 -10.5 -27c0 -12 3.83301 -21 11.5 -27s20.167 -9 37.5 -9h274c17.333 0 29.833 3 37.5 9s11.5 15 11.5 27s-2.83301 20.333 -8.5 25s-14.5 7.66699 -26.5 9h-293z" />
    <glyph glyph-name="FL0027h" unicode="'" horiz-adv-x="350" 
d="M96 301l38.001 -0.000976562c6 0 13.667 1.66699 23 5s19 7.33301 29 12s19.333 9.5 28 14.5s15.334 9.16699 20.001 12.5l18.5 13.5c7.66699 5.66699 15 11.834 22 18.501s13 13.5 18 20.5s7.5 13.833 7.5 20.5v110c0 11.333 -5.33301 21.333 -16 30
s-22.334 13 -35.001 13h-148c-12.667 0 -24.334 -4.33301 -35.001 -13s-16 -18.667 -16 -30v-187c0 -10.667 4.83301 -20 14.5 -28s20.167 -12 31.5 -12z" />
    <glyph glyph-name="FL0028h" unicode="(" horiz-adv-x="603" 
d="M50 510v-448c0 -16 3.66699 -30.667 11 -44s17.166 -24.833 29.499 -34.5s26.833 -17.167 43.5 -22.5s34.334 -8 53.001 -8h315c12.667 0 24.334 4.33301 35.001 13s16 18.667 16 30v69c0 10.667 -5.5 20 -16.5 28s-22.167 12 -33.5 12h-144
c-19.333 0 -34 4.33301 -44 13s-15 23 -15 43v249c0 20 5 34.5 15 43.5s24.667 13.5 44 13.5h144c11.333 0 22.5 4 33.5 12s16.5 17.333 16.5 28v69c0 11.333 -5.33301 21.333 -16 30s-22.334 13 -35.001 13h-315c-18.667 0 -36.334 -2.66699 -53.001 -8
s-31.167 -12.833 -43.5 -22.5s-22.166 -21.167 -29.499 -34.5s-11 -28 -11 -44z" />
    <glyph glyph-name="FL0029h" unicode=")" horiz-adv-x="603" 
d="M552 510v-448c0 -16 -3.66699 -30.667 -11 -44s-17.166 -24.833 -29.499 -34.5s-26.833 -17.167 -43.5 -22.5s-34.334 -8 -53.001 -8h-315c-12.667 0 -24.334 4.33301 -35.001 13s-16 18.667 -16 30v69c0 10.667 5.5 20 16.5 28s22.167 12 33.5 12h144
c19.333 0 34 4.33301 44 13s15 23 15 43v249c0 20 -5 34.5 -15 43.5s-24.667 13.5 -44 13.5h-144c-11.333 0 -22.5 4 -33.5 12s-16.5 17.333 -16.5 28v69c0 11.333 5.33301 21.333 16 30s22.334 13 35.001 13h315c18.667 0 36.334 -2.66699 53.001 -8
s31.167 -12.833 43.5 -22.5s22.166 -21.167 29.499 -34.5s11 -28 11 -44z" />
    <glyph glyph-name="FL002Ah" unicode="*" horiz-adv-x="372" 
d="M326 451c-26.667 -24 -61.3291 -43.3301 -103.996 -57.9971c-9.33301 10 -17 18.667 -23 26s-10.667 14 -14 20c-4.66699 -6 -8 -12 -10 -18s-7 -13.333 -15 -22l-3 -6c-50 12.667 -85 30 -105 52c12 10 23.167 17.5 33.5 22.5s21.166 10.833 32.499 17.5v4h-82
c0 16.667 2.33301 32.167 7 46.5s15.667 28.166 33 41.499l63 -27c-5.33301 4.66699 -8.33301 11.667 -9 21s-2.33398 19.666 -5.00098 30.999c24.667 6.66699 45.334 10 62.001 10c9.33301 0 18.166 -0.666992 26.499 -2s17.166 -3.33301 26.499 -6l6 -2
c-2.66699 -10 -4.33398 -19 -5.00098 -27s-2.66699 -15.333 -6 -22c14.667 3.33301 30 11.666 46 24.999l17 -1c18.667 -13.333 29.5 -26.833 32.5 -40.5s4.83301 -29.5 5.5 -47.5c-1.33301 -1.33301 -7.33301 -2 -18 -2h-62c9.33301 -4.66699 18 -8.5 26 -11.5
s18 -8.16699 30 -15.5z" />
    <glyph glyph-name="FL002Bh" unicode="+" horiz-adv-x="671" 
d="M401 88l0.00292969 99.998c0 6.66699 2.66699 14 8 22s12.333 12 21 12h141c11.333 0 22.5 4 33.5 12s16.5 17.333 16.5 28v49c0 11.333 -5.33301 21.333 -16 30s-22.334 13 -35.001 13h-140c-10.667 0 -18.167 3.5 -22.5 10.5s-6.5 14.5 -6.5 22.5v100
c0 12.667 -4.33301 24.334 -13 35.001s-18.667 16 -30 16h-47c-10.667 0 -20.334 -5.5 -29.001 -16.5s-13 -22.167 -13 -33.5v-102c0 -9.33301 -2.83301 -17 -8.5 -23s-13.5 -9 -23.5 -9h-136c-12.667 0 -24.334 -4.33301 -35.001 -13s-16 -18.667 -16 -30v-49
c0 -10.667 5.5 -20 16.5 -28s22.167 -12 33.5 -12h136c10 0 18 -2.83301 24 -8.5s9 -13.5 9 -23.5v-103c0 -11.333 4 -22.5 12 -33.5s17.333 -16.5 28 -16.5h49c11.333 0 21.333 5.33301 30 16s13 22.334 13 35.001z" />
    <glyph glyph-name="FL002Ch" unicode="," horiz-adv-x="350" 
d="M96 -118l38.001 -0.000976562c6 0 13.667 1.66699 23 5s19 7.33301 29 12s19.333 9.5 28 14.5s15.334 9.16699 20.001 12.5l18.5 13.5c7.66699 5.66699 15 11.834 22 18.501s13 13.5 18 20.5s7.5 13.833 7.5 20.5v110c0 11.333 -5.33301 21.333 -16 30
s-22.334 13 -35.001 13h-148c-12.667 0 -24.334 -4.33301 -35.001 -13s-16 -18.667 -16 -30v-187c0 -10.667 4.83301 -20 14.5 -28s20.167 -12 31.5 -12z" />
    <glyph glyph-name="hyphen" unicode="-" horiz-adv-x="451" 
d="M46 291c0 24 4.66699 46.333 14 67s22.166 38.834 38.499 54.501s35.333 28 57 37s44.834 13.5 69.501 13.5s48 -4.5 70 -13.5s41.167 -21.333 57.5 -37s29.166 -33.834 38.499 -54.501s14 -43 14 -67s-4.66699 -46.333 -14 -67s-22.166 -38.667 -38.499 -54
s-35.5 -27.5 -57.5 -36.5s-45.333 -13.5 -70 -13.5s-47.834 4.5 -69.501 13.5s-40.667 21.167 -57 36.5s-29.166 33.333 -38.499 54s-14 43 -14 67z" />
    <glyph glyph-name="FL002Eh" unicode="." horiz-adv-x="350" 
d="M100 0h150.002c11.333 0 22.5 4 33.5 12s16.5 17.333 16.5 28v69c0 11.333 -5.33301 21.333 -16 30s-22.334 13 -35.001 13h-148c-12.667 0 -24.334 -4.33301 -35.001 -13s-16 -18.667 -16 -30v-69c0 -10.667 5.5 -20 16.5 -28s22.167 -12 33.5 -12z" />
    <glyph glyph-name="FL002Fh" unicode="/" horiz-adv-x="919" 
d="M559 550c2 2.66699 5.66699 5.16602 11 7.49902s11 4.5 17 6.5s11.667 3.66699 17 5s9 2 11 2h249c16 -1.33301 24 -6 24 -14c0 -3.33301 -1.33301 -7.33301 -4 -12s-6 -9.66699 -10 -15l-516 -509c-2 -2.66699 -5.66699 -5.16699 -11 -7.5s-11 -4.5 -17 -6.5
s-11.667 -3.66699 -17 -5s-9 -2 -11 -2h-249c-16 0.666992 -24 5.33398 -24 14.001c0 3.33301 1.33301 7.33301 4 12s6 9.66699 10 15z" />
    <glyph glyph-name="FL0030h" unicode="0" 
d="M175 0h624c36.667 0 66.667 9.66699 90 29s35 47 35 83v350c0 16 -3.66699 30.667 -11 44s-17.166 24.833 -29.499 34.5s-26.833 17.167 -43.5 22.5s-34.334 8 -53.001 8h-600c-18.667 0 -36.334 -2.66699 -53.001 -8s-31.167 -12.833 -43.5 -22.5
s-22.166 -21.167 -29.499 -34.5s-11 -28 -11 -44v-350c0 -36 11.667 -63.667 35 -83s53.333 -29 90 -29zM615 419c19.333 0 34 -4.5 44 -13.5s15 -23.5 15 -43.5v-154c0 -37.333 -15 -56 -45 -56h-284c-30 0 -45 18.667 -45 56v154c0 20 5 34.5 15 43.5s24.667 13.5 44 13.5
h256z" />
    <glyph glyph-name="FL0031h" unicode="1" horiz-adv-x="464" 
d="M164 359c0 20 -2.66895 35 -8.00195 45s-17.666 15 -36.999 15h-19c-11.333 0 -22.5 4 -33.5 12s-16.5 17.333 -16.5 28v69c0 11.333 5.33301 21.333 16 30s22.334 13 35.001 13h266c12 0 22.833 -5 32.5 -15s14.5 -24.667 14.5 -44v-456
c0 -15.333 -4.83301 -28.5 -14.5 -39.5s-20.5 -16.5 -32.5 -16.5h-157c-10.667 0 -21 5.66699 -31 17s-15 24.333 -15 39v303z" />
    <glyph glyph-name="FL0032h" unicode="2" 
d="M50 245l-0.000976562 -135.999c0 -16 3.66699 -30.667 11 -44s17.166 -24.833 29.499 -34.5s26.833 -17.167 43.5 -22.5s34.334 -8 53.001 -8h686c12.667 0 24.334 4.33301 35.001 13s16 18.667 16 30v69c0 10.667 -5.5 20 -16.5 28s-22.167 12 -33.5 12h-524
c-15.333 0 -26.166 3 -32.499 9s-9.5 14 -9.5 24c0 8.66699 2.83301 17 8.5 25s16.834 12 33.501 12h362c40 0 72.833 10.167 98.5 30.5s38.5 46.5 38.5 78.5v131c0 16 -3.66699 30.667 -11 44s-17.166 24.833 -29.499 34.5s-26.833 17.167 -43.5 22.5s-34.334 8 -53.001 8
h-616c-12.667 0 -23.5 -4.33301 -32.5 -13s-13.5 -18.667 -13.5 -30v-69c0 -10.667 5.5 -20 16.5 -28s22.167 -12 33.5 -12h455c15.333 0 26.166 -2.5 32.499 -7.5s9.5 -13.167 9.5 -24.5c0 -12.667 -3.33301 -21.334 -10 -26.001s-17.334 -7 -32.001 -7h-368
c-19.333 0 -37.333 -2.66699 -54 -8s-31.167 -12.833 -43.5 -22.5s-22 -21.167 -29 -34.5s-10.5 -28 -10.5 -44z" />
    <glyph glyph-name="FL0033h" unicode="3" 
d="M924 462l-0.00195312 -353.002c0 -16 -3.66699 -30.667 -11 -44s-17.166 -24.833 -29.499 -34.5s-26.833 -17.167 -43.5 -22.5s-34.334 -8 -53.001 -8h-686c-12.667 0 -24.334 4.33301 -35.001 13s-16 18.667 -16 30v69c0 10.667 5.5 20 16.5 28s22.167 12 33.5 12h530
c15.333 0 26.166 2.5 32.499 7.5s9.5 13.833 9.5 26.5c-0.666992 12.667 -4 21.834 -10 27.501s-16.667 8.5 -32 8.5h-530c-11.333 0 -22.5 4 -33.5 12s-16.5 17.333 -16.5 28v49c0 11.333 5.33301 21.333 16 30s22.334 13 35.001 13h529c14.667 0 25.334 2.33301 32.001 7
s10 13.334 10 26.001c0 11.333 -3.16699 19.5 -9.5 24.5s-17.166 7.5 -32.499 7.5h-530c-11.333 0 -22.5 4 -33.5 12s-16.5 17.333 -16.5 28v69c0 11.333 5.33301 21.333 16 30s22.334 13 35.001 13h686c18.667 0 36.334 -2.66699 53.001 -8s31.167 -12.833 43.5 -22.5
s22.166 -21.167 29.499 -34.5s11 -28 11 -44z" />
    <glyph glyph-name="FL0034h" unicode="4" horiz-adv-x="1024" 
d="M54 96h555.999c12.667 0 24.334 4.33301 35.001 13s16 18.667 16 30v69c0 10.667 -5.5 20 -16.5 28s-22.167 12 -33.5 12h-100l175 147c6.66699 4.66699 14.667 9.33398 24 14.001l14 7v-357c0 -19.333 4.83301 -34 14.5 -44s20.5 -15 32.5 -15h153
c10.667 0 21.667 5.16699 33 15.5s17 22.833 17 37.5v426c0 61.333 -32.667 92 -98 92h-249c-36 0 -70.167 -8.33301 -102.5 -25s-67.833 -42 -106.5 -76l-374 -333c-9.33301 -11.333 -14 -20.333 -14 -27c0 -8.66699 8 -13.334 24 -14.001z" />
    <glyph glyph-name="FL0035h" unicode="5" 
d="M924 301l0.00195312 -250c0 -13.333 -4.83301 -25.166 -14.5 -35.499s-20.167 -15.5 -31.5 -15.5h-777c-12.667 0 -24.334 4.33301 -35.001 13s-16 18.667 -16 30v69c0 10.667 5.5 20 16.5 28s22.167 12 33.5 12h532c15.333 0 24.833 3 28.5 9s5.5 14 5.5 24
c0 8.66699 -1.5 17 -4.5 25s-12.833 12 -29.5 12h-460c-12 0 -22.833 5.66699 -32.5 17s-14.5 24.333 -14.5 39v234c0 14.667 4.66699 28.167 14 40.5s20.666 18.5 33.999 18.5h705c12.667 0 23.5 -4.33301 32.5 -13s13.5 -18.667 13.5 -30v-69
c0 -10.667 -5.5 -20 -16.5 -28s-22.167 -12 -33.5 -12h-465c-15.333 0 -24.5 -2.5 -27.5 -7.5s-4.5 -13.167 -4.5 -24.5c0 -12.667 1.66699 -21.334 5 -26.001s12.333 -7 27 -7h465c13.333 0 25 -4.16699 35 -12.5s15 -21.833 15 -40.5z" />
    <glyph glyph-name="FL0036h" unicode="6" 
d="M924 103c0 -34.667 -11.334 -60.499 -34.001 -77.499s-53 -25.5 -91 -25.5h-624c-36.667 0 -66.667 9.66699 -90 29s-35 47 -35 83v350c0 16 3.66699 30.667 11 44s17.166 24.833 29.499 34.5s26.833 17.167 43.5 22.5s34.334 8 53.001 8h686
c12.667 0 24.334 -4.33301 35.001 -13s16 -18.667 16 -30v-69c0 -10.667 -5.5 -20 -16.5 -28s-22.167 -12 -33.5 -12h-525c-19.333 0 -32.333 -2 -39 -6s-10 -13.667 -10 -29c0 -10 4.83301 -17.333 14.5 -22s18.834 -7.33398 27.501 -8.00098h442
c28.667 0 52.167 -3 70.5 -9s32.666 -14 42.999 -24s17.333 -21.833 21 -35.5s5.5 -28.5 5.5 -44.5v-138zM623.999 152.001c17.333 0 29.834 3 37.501 9s11.5 15 11.5 27c0 13.333 -3.5 22.333 -10.5 27s-18.167 7 -33.5 7h-283c-31.333 0 -47 -11 -47 -33
c0 -14 3.66699 -23.667 11 -29s20.666 -8 39.999 -8h274z" />
    <glyph glyph-name="FL0037h" unicode="7" 
d="M461 419l-381.999 -377.999c-4 -5.33301 -7.33301 -10.333 -10 -15s-4 -8.66699 -4 -12c0 -8.66699 8 -13.334 24 -14.001h249c2 0 5.66699 0.666992 11 2s11 3 17 5s11.667 4.16699 17 6.5s9 4.83301 11 7.5l516 509c4 5.33301 7.33301 10.333 10 15s4 8.66699 4 12
c0 8 -8 12.667 -24 14h-799c-12.667 0 -24.334 -4.33301 -35.001 -13s-16 -18.667 -16 -30v-69c0 -10.667 5.5 -20 16.5 -28s22.167 -12 33.5 -12h361z" />
    <glyph glyph-name="FL0038h" unicode="8" 
d="M787 0h-600.004c-18.667 0 -36.334 2.66699 -53.001 8s-31.167 12.833 -43.5 22.5s-22.166 21.167 -29.499 34.5s-11 28 -11 44v100c0 4.66699 1.83301 10.834 5.5 18.501s7.83398 15.334 12.501 23.001s9.33398 14.834 14.001 21.501l9 13
c-4 4.66699 -8.33301 10.5 -13 17.5s-9.16699 14.333 -13.5 22s-7.83301 15.167 -10.5 22.5s-4 14 -4 20v95c0 16 3.66699 30.667 11 44s17.166 24.833 29.499 34.5s26.833 17.167 43.5 22.5s34.334 8 53.001 8h600c18.667 0 36.334 -2.66699 53.001 -8
s31.167 -12.833 43.5 -22.5s22.166 -21.167 29.499 -34.5s11 -28 11 -44v-95c0 -6 -1.33301 -12.667 -4 -20s-6.16699 -14.833 -10.5 -22.5s-8.83301 -15 -13.5 -22s-9 -12.833 -13 -17.5l9 -13c4.66699 -6.66699 9.33398 -13.834 14.001 -21.501
s8.83398 -15.334 12.501 -23.001s5.5 -13.834 5.5 -18.501v-100c0 -16 -3.66699 -30.667 -11 -44s-17.166 -24.833 -29.499 -34.5s-26.833 -17.167 -43.5 -22.5s-34.334 -8 -53.001 -8zM628.996 419h-284c-15.333 0 -26.5 -2.33301 -33.5 -7s-10.5 -13.667 -10.5 -27
c0 -12 3.83301 -21 11.5 -27s20.167 -9 37.5 -9h274c17.333 0 29.833 3 37.5 9s11.5 15 11.5 27c0 13.333 -3.5 22.333 -10.5 27s-18.167 7 -33.5 7zM628.996 222h-284c-15.333 0 -26.5 -2.33301 -33.5 -7s-10.5 -13.667 -10.5 -27c0 -12 3.83301 -21 11.5 -27
s20.167 -9 37.5 -9h274c17.333 0 29.833 3 37.5 9s11.5 15 11.5 27c0 13.333 -3.5 22.333 -10.5 27s-18.167 7 -33.5 7z" />
    <glyph glyph-name="FL0039h" unicode="9" 
d="M674 142c0 38 -17.668 58 -53.001 60h-434c-40 0 -72.833 10.167 -98.5 30.5s-38.5 46.5 -38.5 78.5v151c0 16 3.66699 30.667 11 44s17.166 24.833 29.499 34.5s26.833 17.167 43.5 22.5s34.334 8 53.001 8h689c12.667 0 23.834 -6 33.501 -18s14.5 -24 14.5 -36v-464
c0 -14.667 -5.66699 -27.167 -17 -37.5s-22.333 -15.5 -33 -15.5h-153c-12 0 -22.833 5 -32.5 15s-14.5 24.667 -14.5 44v83zM349.999 419c-19.333 0 -32.333 -2.16699 -39 -6.5s-10 -12.5 -10 -24.5c0 -13.333 3.66699 -22.333 11 -27s18.666 -7 33.999 -7h283
c30.667 0 46 11 46 33c0 13.333 -3.66699 22 -11 26s-20.666 6 -39.999 6h-274z" />
    <glyph glyph-name="FL003Ah" unicode=":" horiz-adv-x="350" 
d="M100 0h150.002c11.333 0 22.5 4 33.5 12s16.5 17.333 16.5 28v69c0 11.333 -5.33301 21.333 -16 30s-22.334 13 -35.001 13h-148c-12.667 0 -24.334 -4.33301 -35.001 -13s-16 -18.667 -16 -30v-69c0 -10.667 5.5 -20 16.5 -28s22.167 -12 33.5 -12zM99.002 327h150.002
c11.333 0 22.5 4 33.5 12s16.5 17.333 16.5 28v69c0 11.333 -5.33301 21.333 -16 30s-22.334 13 -35.001 13h-148c-12.667 0 -24.334 -4.33301 -35.001 -13s-16 -18.667 -16 -30v-69c0 -10.667 5.5 -20 16.5 -28s22.167 -12 33.5 -12z" />
    <glyph glyph-name="FL003Bh" unicode=";" horiz-adv-x="350" 
d="M99 327h150.002c11.333 0 22.5 4 33.5 12s16.5 17.333 16.5 28v69c0 11.333 -5.33301 21.333 -16 30s-22.334 13 -35.001 13h-148c-12.667 0 -24.334 -4.33301 -35.001 -13s-16 -18.667 -16 -30v-69c0 -10.667 5.5 -20 16.5 -28s22.167 -12 33.5 -12zM96.002 -118
l38.001 -0.000976562c6 0 13.667 1.66699 23 5s19 7.33301 29 12s19.333 9.5 28 14.5s15.334 9.16699 20.001 12.5l18.5 13.5c7.66699 5.66699 15 11.834 22 18.501s13 13.5 18 20.5s7.5 13.833 7.5 20.5v110c0 11.333 -5.33301 21.333 -16 30s-22.334 13 -35.001 13h-148
c-12.667 0 -24.334 -4.33301 -35.001 -13s-16 -18.667 -16 -30v-187c0 -10.667 4.83301 -20 14.5 -28s20.167 -12 31.5 -12z" />
    <glyph glyph-name="FL003Ch" unicode="&#x3c;" horiz-adv-x="582" 
d="M55 375l176 175.002c2 2.66699 5.5 5.16699 10.5 7.5s10.5 4.5 16.5 6.5s11.5 3.66699 16.5 5s8.5 2 10.5 2h243c16 -1.33301 24 -6 24 -14c0 -6.66699 -4.66699 -15.667 -14 -27l-222 -226l222 -263c4 -5.33301 7.33301 -10.333 10 -15s4 -8.66699 4 -12
c0 -8.66699 -8 -13.334 -24 -14.001h-246c-2 0 -5.5 0.666992 -10.5 2s-10.333 3 -16 5s-11 4.16699 -16 6.5s-8.5 4.83301 -10.5 7.5l-174 199c-6.66699 10.667 -12.5 23.167 -17.5 37.5s-7.5 29.166 -7.5 44.499c0 13.333 2.5 25.5 7.5 36.5s10.833 23.167 17.5 36.5z" />
    <glyph glyph-name="FL003Dh" unicode="=" horiz-adv-x="669" 
d="M568 444h-466.998c-12.667 0 -24.334 -4.33301 -35.001 -13s-16 -18.667 -16 -30v-49c0 -10.667 5.5 -20 16.5 -28s22.167 -12 33.5 -12h469c11.333 0 22.5 4 33.5 12s16.5 17.333 16.5 28v49c0 11.333 -5.33301 21.333 -16 30s-22.334 13 -35.001 13zM568.002 262
h-466.998c-12.667 0 -24.334 -4.33301 -35.001 -13s-16 -18.667 -16 -30v-49c0 -10.667 5.5 -20 16.5 -28s22.167 -12 33.5 -12h469c11.333 0 22.5 4 33.5 12s16.5 17.333 16.5 28v49c0 11.333 -5.33301 21.333 -16 30s-22.334 13 -35.001 13z" />
    <glyph glyph-name="FL003Eh" unicode="&#x3e;" horiz-adv-x="582" 
d="M527 375l-176 175.002c-2 2.66699 -5.5 5.16699 -10.5 7.5s-10.5 4.5 -16.5 6.5s-11.5 3.66699 -16.5 5s-8.5 2 -10.5 2h-243c-16 -1.33301 -24 -6 -24 -14c0 -6.66699 4.66699 -15.667 14 -27l222 -226l-222 -263c-4 -5.33301 -7.33301 -10.333 -10 -15
s-4 -8.66699 -4 -12c0 -8.66699 8 -13.334 24 -14.001h246c2 0 5.5 0.666992 10.5 2s10.333 3 16 5s11 4.16699 16 6.5s8.5 4.83301 10.5 7.5l174 199c6.66699 10.667 12.5 23.167 17.5 37.5s7.5 29.166 7.5 44.499c0 13.333 -2.5 25.5 -7.5 36.5s-10.833 23.167 -17.5 36.5
z" />
    <glyph glyph-name="FL003Fh" unicode="?" 
d="M924 331l0.00390625 131.001c0 16 -3.66699 30.667 -11 44s-17.166 24.833 -29.499 34.5s-26.833 17.167 -43.5 22.5s-34.334 8 -53.001 8h-686c-12.667 0 -24.334 -4.33301 -35.001 -13s-16 -18.667 -16 -30v-69c0 -10.667 5.5 -20 16.5 -28s22.167 -12 33.5 -12h530
c15.333 0 26.166 -2.5 32.499 -7.5s9.5 -13.167 9.5 -24.5c0 -12.667 -3.33301 -21.334 -10 -26.001s-17.334 -7 -32.001 -7h-399c-12.667 0 -24.334 -4.33301 -35.001 -13s-16 -18.667 -16 -30v-49c0 -10.667 5.5 -20 16.5 -28s22.167 -12 33.5 -12h557
c18.667 0 36.334 2.66699 53.001 8s31.167 12.833 43.5 22.5s22.166 21.167 29.499 34.5s11 28 11 44zM230.004 0.000976562h150.002c11.333 0 22.5 4 33.5 12s16.5 17.333 16.5 28v69c0 11.333 -5.33301 21.333 -16 30s-22.334 13 -35.001 13h-148
c-12.667 0 -24.334 -4.33301 -35.001 -13s-16 -18.667 -16 -30v-69c0 -10.667 5.5 -20 16.5 -28s22.167 -12 33.5 -12z" />
    <glyph glyph-name="FL0040h" unicode="@" horiz-adv-x="1194" 
d="M1144 510l0.00292969 -257c0 -16 -3.66699 -30.667 -11 -44s-17.166 -24.833 -29.499 -34.5s-26.833 -17.167 -43.5 -22.5s-34.334 -8 -53.001 -8h-583c-18.667 0 -33.834 4.83301 -45.501 14.5s-17.5 23.5 -17.5 41.5v175c0 16 6.66699 29 20 39s29.666 15 48.999 15
h335c18.667 0 34.667 -5 48 -15s20 -23 20 -39v-117h5c19.333 0 33.5 4.33301 42.5 13s13.5 23 13.5 43v96c0 20 -5 34.5 -15 43.5s-24.667 13.5 -44 13.5h-476c-19.333 0 -34 -4.5 -44 -13.5s-15 -23.5 -15 -43.5v-249c0 -20 5 -34.333 15 -43s24.667 -13 44 -13h598
c11.333 0 22.5 -4 33.5 -12s16.5 -17.333 16.5 -28v-69c0 -11.333 -5.33301 -21.333 -16 -30s-22.334 -13 -35.001 -13h-769c-18.667 0 -36.334 2.66699 -53.001 8s-31.167 12.833 -43.5 22.5s-22.166 21.167 -29.499 34.5s-11 28 -11 44v448c0 16 3.66699 30.667 11 44
s17.166 24.833 29.499 34.5s26.833 17.167 43.5 22.5s34.334 8 53.001 8h820c18.667 0 36.334 -2.66699 53.001 -8s31.167 -12.833 43.5 -22.5s22.166 -21.167 29.499 -34.5s11 -28 11 -44zM653.003 343h-111c-20 0 -30 -9.33301 -30 -28v-57c0 -18.667 7.66699 -28 23 -28
h125c14.667 0 22 9.33301 22 28v57c0 18.667 -9.66699 28 -29 28z" />
    <glyph glyph-name="A" unicode="A" horiz-adv-x="1084" 
d="M300 212c0 -40 19.667 -60.002 59 -60.002h80c4 0 8.83301 -1.16699 14.5 -3.5s11.334 -5.33301 17.001 -9s11 -7.5 16 -11.5s9.5 -8 13.5 -12l86 -86c1.33301 -1.33301 3.66602 -4.16602 6.99902 -8.49902s5 -7.16602 5 -8.49902
c0 -5.33301 -1.83301 -8.83301 -5.5 -10.5s-8.16699 -2.5 -13.5 -2.5h-392c-18.667 0 -36.334 2.66699 -53.001 8s-31.167 12.833 -43.5 22.5s-22.166 21.167 -29.499 34.5s-11 28 -11 44v370c0 61.333 32.667 92 98 92h249c36 0 70.5 -7.66699 103.5 -23
s68.167 -41.333 105.5 -78l434 -429c4 -5.33301 7.33301 -10.333 10 -15s4 -8.66699 4 -12c0 -8.66699 -8 -13.334 -24 -14.001h-249c-2 0 -5.5 0.666992 -10.5 2s-10.5 3 -16.5 5s-11.5 4.16699 -16.5 6.5s-8.5 4.83301 -10.5 7.5l-389 374
c-6.66699 4.66699 -14.667 9.33398 -24 14.001l-14 7v-204z" />
    <glyph glyph-name="B" unicode="B" 
d="M50 53c0 -6 1.50195 -12.0029 4.50195 -18.0029s6.83301 -11.667 11.5 -17s10 -9.66602 16 -12.999s12 -5 18 -5h687c18.667 0 36.334 2.66699 53.001 8s31.167 12.833 43.5 22.5s22.166 21.167 29.499 34.5s11 28 11 44v100c0 4.66699 -1.83301 10.834 -5.5 18.501
s-7.83398 15.334 -12.501 23.001s-9.33398 14.834 -14.001 21.501l-9 13c4 4.66699 8.33301 10.5 13 17.5s9.16699 14.333 13.5 22s7.83301 15.167 10.5 22.5s4 14 4 20v95c0 16 -3.66699 30.667 -11 44s-17.166 24.833 -29.499 34.5s-26.833 17.167 -43.5 22.5
s-34.334 8 -53.001 8h-687c-5.33301 0 -10.833 -1.83301 -16.5 -5.5s-11 -8.33398 -16 -14.001s-9.16699 -11.5 -12.5 -17.5s-5 -11.333 -5 -16v-465zM350.002 151.997c-19.333 0 -32.667 2.66699 -40 8s-11 15 -11 29c0 22 15.667 33 47 33h283
c15.333 0 26.5 -2.33301 33.5 -7s10.5 -13.667 10.5 -27c0 -12 -3.83301 -21 -11.5 -27s-20.167 -9 -37.5 -9h-274zM350.001 348.997c-19.333 0 -32.667 2.66699 -40 8s-11 15 -11 29c0 22 15.667 33 47 33h283c15.333 0 26.5 -2.33301 33.5 -7s10.5 -13.667 10.5 -27
c0 -12 -3.83301 -21 -11.5 -27s-20.167 -9 -37.5 -9h-274z" />
    <glyph glyph-name="C" unicode="C" 
d="M50 462v-353c0 -16 3.66699 -30.667 11 -44s17.166 -24.833 29.499 -34.5s26.833 -17.167 43.5 -22.5s34.334 -8 53.001 -8h686c12.667 -0 24.334 4.33301 35.001 13s16 18.667 16 30v69c0 10.667 -5.5 20 -16.5 28s-22.167 12 -33.5 12h-515
c-19.333 0 -34 4.33301 -44 13s-15 23 -15 43v154c0 20 5 34.5 15 43.5s24.667 13.5 44 13.5h515c11.333 0 22.5 4 33.5 12s16.5 17.333 16.5 28v69c0 11.333 -5.33301 21.333 -16 30s-22.334 13 -35.001 13h-686c-18.667 0 -36.334 -2.66699 -53.001 -8
s-31.167 -12.833 -43.5 -22.5s-22.166 -21.167 -29.499 -34.5s-11 -28 -11 -44z" />
    <glyph glyph-name="D" unicode="D" horiz-adv-x="1085" 
d="M785 212c0 -40 -19.665 -60.002 -58.998 -60.002h-537c-4 0 -8.83301 -1.16699 -14.5 -3.5s-11.334 -5.33301 -17.001 -9s-11 -7.5 -16 -11.5s-9.5 -8 -13.5 -12l-86 -86c-1.33301 -1.33301 -3.66602 -4.16602 -6.99902 -8.49902s-5 -7.16602 -5 -8.49902
c0 -5.33301 1.83301 -8.83301 5.5 -10.5s8.16699 -2.5 13.5 -2.5h849c18.667 0 36.334 2.66699 53.001 8s31.167 12.833 43.5 22.5s22.166 21.167 29.499 34.5s11 28 11 44v370c0 61.333 -32.667 92 -98 92h-249c-36 0 -70.5 -7.66699 -103.5 -23
s-68.167 -41.333 -105.5 -78l-229 -226c-4 -5.33301 -7.33301 -10.333 -10 -15s-4 -8.66699 -4 -12c0 -8.66699 8 -13.334 24 -14.001h249c2 0 5.5 0.666992 10.5 2s10.5 3 16.5 5s11.5 4.16699 16.5 6.5s8.5 4.83301 10.5 7.5l184 171
c3.33301 2.66699 8.16602 5.83398 14.499 9.50098s11.666 6.5 15.999 8.5s6.83301 3 7.5 3v-204z" />
    <glyph glyph-name="E" unicode="E" 
d="M50 462l0.00195312 -353.002c0 -16 3.66699 -30.667 11 -44s17.166 -24.833 29.499 -34.5s26.833 -17.167 43.5 -22.5s34.334 -8 53.001 -8h686c12.667 0 24.334 4.33301 35.001 13s16 18.667 16 30v69c0 10.667 -5.5 20 -16.5 28s-22.167 12 -33.5 12h-530
c-15.333 0 -26.166 2.5 -32.499 7.5s-9.5 13.833 -9.5 26.5c0.666992 12.667 4 21.834 10 27.501s16.667 8.5 32 8.5h530c11.333 0 22.5 4 33.5 12s16.5 17.333 16.5 28v49c0 11.333 -5.33301 21.333 -16 30s-22.334 13 -35.001 13h-529
c-14.667 0 -25.334 2.33301 -32.001 7s-10 13.334 -10 26.001c0 11.333 3.16699 19.5 9.5 24.5s17.166 7.5 32.499 7.5h530c11.333 0 22.5 4 33.5 12s16.5 17.333 16.5 28v69c0 11.333 -5.33301 21.333 -16 30s-22.334 13 -35.001 13h-686
c-18.667 0 -36.334 -2.66699 -53.001 -8s-31.167 -12.833 -43.5 -22.5s-22.166 -21.167 -29.499 -34.5s-11 -28 -11 -44z" />
    <glyph glyph-name="F" unicode="F" 
d="M50 462l0.00585938 -406.001c0 -14.667 5 -27.667 15 -39s20.333 -17 31 -17h157c12 0 22.833 5.5 32.5 16.5s14.5 24.167 14.5 39.5v129c1.33301 13.333 5.16602 22.833 11.499 28.5s17.166 8.5 32.499 8.5h530c11.333 0 22.5 4 33.5 12s16.5 17.333 16.5 28v49
c0 11.333 -5.33301 21.333 -16 30s-22.334 13 -35.001 13h-529c-14.667 0 -25.334 2.33301 -32.001 7s-10 13.334 -10 26.001c0 11.333 3.16699 19.5 9.5 24.5s17.166 7.5 32.499 7.5h530c11.333 0 22.5 4 33.5 12s16.5 17.333 16.5 28v69c0 11.333 -5.33301 21.333 -16 30
s-22.334 13 -35.001 13h-686c-18.667 0 -36.334 -2.66699 -53.001 -8s-31.167 -12.833 -43.5 -22.5s-22.166 -21.167 -29.499 -34.5s-11 -28 -11 -44z" />
    <glyph glyph-name="G" unicode="G" 
d="M629 152c29.333 0 43.999 12 43.999 36c0 12.667 -4.83301 21.5 -14.5 26.5s-19.5 7.5 -29.5 7.5h-127c-11.333 0 -22.5 4 -33.5 12s-16.5 17.333 -16.5 28v49c0 11.333 5.33301 21.333 16 30s22.334 13 35.001 13h281c28.667 0 52.167 -3 70.5 -9s32.666 -14 42.999 -24
s17.333 -21.833 21 -35.5s5.5 -28.5 5.5 -44.5v-138c0 -34.667 -11.333 -60.5 -34 -77.5s-53 -25.5 -91 -25.5h-624c-36.667 0 -66.667 9.66699 -90 29s-35 47 -35 83v350c0 16 3.66699 30.667 11 44s17.166 24.833 29.499 34.5s26.833 17.167 43.5 22.5s34.334 8 53.001 8
h686c12.667 0 24.334 -4.33301 35.001 -13s16 -18.667 16 -30v-69c0 -10.667 -5.5 -20 -16.5 -28s-22.167 -12 -33.5 -12h-525c-19.333 0 -32.333 -2 -39 -6s-10 -13.667 -10 -29v-195c0 -14 3.5 -23.667 10.5 -29s20.167 -8 39.5 -8h279z" />
    <glyph glyph-name="H" unicode="H" 
d="M640 221c22.667 0 34 -11.667 34 -35v-130c0 -15.333 4.83301 -28.5 14.5 -39.5s20.5 -16.5 32.5 -16.5h157c10.667 0 21 5.66699 31 17s15 24.333 15 39v462c0 14.667 -5.66699 27.167 -17 37.5s-22.333 15.5 -33 15.5h-153c-12 0 -22.833 -5 -32.5 -15
s-14.5 -24.667 -14.5 -44v-122c0 -24.667 -11.333 -37 -34 -37h-306c-22.667 0 -34 12.333 -34 37v122c0 19.333 -4.83301 34 -14.5 44s-20.5 15 -32.5 15h-153c-10.667 0 -21.667 -5.16699 -33 -15.5s-17 -22.833 -17 -37.5v-462c0 -14.667 5 -27.667 15 -39
s20.333 -17 31 -17h157c12 0 22.833 5.5 32.5 16.5s14.5 24.167 14.5 39.5v130c0 23.333 11.333 35 34 35h306z" />
    <glyph glyph-name="FL0049h" unicode="I" horiz-adv-x="954" 
d="M300 152c17.333 1.33301 30.501 6.33301 39.501 15s13.5 22.667 13.5 42v158c-1.33301 17.333 -6.33301 30 -15 38s-21.334 12.667 -38.001 14h-200c-11.333 0 -22.5 4 -33.5 12s-16.5 17.333 -16.5 28v69c0 11.333 5.33301 21.333 16 30s22.334 13 35.001 13h752
c12.667 0 24.334 -4.33301 35.001 -13s16 -18.667 16 -30v-69c0 -10.667 -5.5 -20 -16.5 -28s-22.167 -12 -33.5 -12h-200c-17.333 -1.33301 -30.5 -6.33301 -39.5 -15s-13.5 -22.667 -13.5 -42v-153c0 -19.333 4.5 -33.333 13.5 -42s22.167 -13.667 39.5 -15h200
c11.333 0 22.5 -4 33.5 -12s16.5 -17.333 16.5 -28v-69c0 -11.333 -5.33301 -21.333 -16 -30s-22.334 -13 -35.001 -13h-752c-12.667 -0 -24.334 4.33301 -35.001 13s-16 18.667 -16 30v69c0 10.667 5.5 20 16.5 28s22.167 12 33.5 12h200z" />
    <glyph glyph-name="j" unicode="J" 
d="M50 287c0 19.333 4.83203 34 14.499 44s20.5 15 32.5 15h153c10.667 0 21.667 -5.16699 33 -15.5s17 -22.833 17 -37.5v-93c0 -32 14.667 -48 44 -48h285c30 0 45 18.667 45 56v154c0 20 -5 34.5 -15 43.5s-24.667 13.5 -44 13.5h-77c-11.333 0 -22.5 4 -33.5 12
s-16.5 17.333 -16.5 28v69c0 11.333 5.33301 21.333 16 30s22.334 13 35.001 13h248c18.667 0 36.334 -2.66699 53.001 -8s31.167 -12.833 43.5 -22.5s22.166 -21.167 29.499 -34.5s11 -28 11 -44v-350c0 -36 -11.667 -63.667 -35 -83s-53.333 -29 -90 -29h-624
c-38 0 -68.333 8.5 -91 25.5s-34 42.833 -34 77.5v184z" />
    <glyph glyph-name="FL004Bh" unicode="K" horiz-adv-x="1073" 
d="M726 550c2 2.66699 5.5 5.16797 10.5 7.50098s10.5 4.5 16.5 6.5s11.5 3.66699 16.5 5s8.5 2 10.5 2h239c16 -1.33301 24 -6 24 -14c0 -6.66699 -4.66699 -15.667 -14 -27l-222 -226l222 -263c4 -5.33301 7.33301 -10.333 10 -15s4 -8.66699 4 -12
c0 -8.66699 -8 -13.334 -24 -14.001h-242c-2 0 -5.5 0.666992 -10.5 2s-10.333 3 -16 5s-11 4.16699 -16 6.5s-8.5 4.83301 -10.5 7.5l-178 199h-212c-22.667 0 -34 -11.667 -34 -35v-129c0 -15.333 -4.83301 -28.5 -14.5 -39.5s-20.5 -16.5 -32.5 -16.5h-157
c-10.667 0 -21 5.66699 -31 17s-15 24.333 -15 39v462c0 14.667 5.66699 27.167 17 37.5s22.333 15.5 33 15.5h153c12 0 22.833 -5 32.5 -15s14.5 -24.667 14.5 -44v-121c0 -24.667 11.333 -37 34 -37h196z" />
    <glyph glyph-name="L" unicode="L" 
d="M300 212l-0.000976562 300c0 19.333 -4.83301 34 -14.5 44s-20.5 15 -32.5 15h-153c-10.667 0 -21.667 -5.16699 -33 -15.5s-17 -22.833 -17 -37.5v-409c0 -16 3.66699 -30.667 11 -44s17.166 -24.833 29.499 -34.5s26.833 -17.167 43.5 -22.5s34.334 -8 53.001 -8h686
c12.667 -0 24.334 4.33301 35.001 13s16 18.667 16 30v69c0 10.667 -5.5 20 -16.5 28s-22.167 12 -33.5 12h-515c-39.333 0 -59 20 -59 60z" />
    <glyph glyph-name="FL004Dh" unicode="M" horiz-adv-x="1513" 
d="M1213 415l0.00488281 -200.999c0 -41.333 -19.667 -62 -59 -62h-80c-4 0 -8.83301 -1.16699 -14.5 -3.5s-11.334 -5.33301 -17.001 -9s-11 -7.5 -16 -11.5s-9.5 -8 -13.5 -12l-86 -86c-1.33301 -1.33301 -3.66602 -4.16602 -6.99902 -8.49902s-5 -7.16602 -5 -8.49902
c0 -5.33301 1.83301 -8.83301 5.5 -10.5s8.16699 -2.5 13.5 -2.5h392c18.667 0 36.334 2.66699 53.001 8s31.167 12.833 43.5 22.5s22.166 21.167 29.499 34.5s11 28 11 44v370c0 61.333 -32.667 92 -98 92h-249c-36 0 -69.167 -7.83301 -99.5 -23.5
s-61.833 -41.5 -94.5 -77.5l-148 -159c-3.33301 -3.33301 -6.83301 -6.5 -10.5 -9.5s-6.16699 -4.5 -7.5 -4.5c-3.33301 0 -6.33301 1.33301 -9 4l-8 8l-148 161c-32.667 36 -64.167 61.833 -94.5 77.5s-63.5 23.5 -99.5 23.5h-249c-65.333 0 -98 -30.667 -98 -92v-370
c0 -16 3.66699 -30.667 11 -44s17.166 -24.833 29.499 -34.5s26.833 -17.167 43.5 -22.5s34.334 -8 53.001 -8h392c5.33301 0 9.83301 0.833008 13.5 2.5s5.5 5.16699 5.5 10.5c0 1.33301 -1.66699 4.16602 -5 8.49902s-5.66602 7.16602 -6.99902 8.49902l-86 86
c-4 4 -8.5 8 -13.5 12s-10.333 7.83301 -16 11.5s-11.334 6.66699 -17.001 9s-10.5 3.5 -14.5 3.5h-80c-39.333 0 -59 20 -59 60v203l14.5 -7c9.66699 -4.66699 18.167 -9 25.5 -13l372 -373c6.66699 -6.66699 13.167 -12 19.5 -16s15.166 -6 26.499 -6
c13.333 0 23.166 1.66699 29.499 5s12.166 7.66602 17.499 12.999l368 377c2.66699 2 6.16699 4.16699 10.5 6.5s8.66602 4.5 12.999 6.5s8.16602 3.66699 11.499 5z" />
    <glyph glyph-name="FL004Eh" unicode="N" horiz-adv-x="1104" 
d="M300 416l-0.000976562 -204.003c0 -40 19.667 -60 59 -60h80c4 0 8.83301 -1.16699 14.5 -3.5s11.334 -5.33301 17.001 -9s11 -7.5 16 -11.5s9.5 -8 13.5 -12l86 -86c1.33301 -1.33301 3.66602 -4.16602 6.99902 -8.49902s5 -7.16602 5 -8.49902
c0 -5.33301 -1.83301 -8.83301 -5.5 -10.5s-8.16699 -2.5 -13.5 -2.5h-392c-18.667 0 -36.334 2.66699 -53.001 8s-31.167 12.833 -43.5 22.5s-22.166 21.167 -29.499 34.5s-11 28 -11 44v370c0 61.333 32.667 92 98 92h252c36 0 70 -7.66699 102 -23
s66.667 -41.333 104 -78l198 -198v240c0 19.333 4.83301 34 14.5 44s20.5 15 32.5 15h153c10.667 0 21.667 -5.16699 33 -15.5s17 -22.833 17 -37.5v-463c0 -13.333 -4.33301 -25.833 -13 -37.5s-20.667 -17.5 -36 -17.5h-215c-3.33301 0 -7.66602 0.666992 -12.999 2
s-10.833 3 -16.5 5s-10.667 4.16699 -15 6.5s-7.5 4.83301 -9.5 7.5l-398 374c-6.66699 4.66699 -14.667 9.33398 -24 14.001z" />
    <glyph glyph-name="O" unicode="O" 
d="M175 0h624c36.667 0 66.667 9.66699 90 29s35 47 35 83v350c0 16 -3.66699 30.667 -11 44s-17.166 24.833 -29.499 34.5s-26.833 17.167 -43.5 22.5s-34.334 8 -53.001 8h-600c-18.667 0 -36.334 -2.66699 -53.001 -8s-31.167 -12.833 -43.5 -22.5
s-22.166 -21.167 -29.499 -34.5s-11 -28 -11 -44v-350c0 -36 11.667 -63.667 35 -83s53.333 -29 90 -29zM615 419c19.333 0 34 -4.5 44 -13.5s15 -23.5 15 -43.5v-154c0 -37.333 -15 -56 -45 -56h-284c-30 0 -45 18.667 -45 56v154c0 20 5 34.5 15 43.5s24.667 13.5 44 13.5
h256z" />
    <glyph glyph-name="P" unicode="P" 
d="M300 142c0 38 17.668 58 53.001 60h434c40 0 72.833 10.167 98.5 30.5s38.5 46.5 38.5 78.5v151c0 16 -3.66699 30.667 -11 44s-17.166 24.833 -29.499 34.5s-26.833 17.167 -43.5 22.5s-34.334 8 -53.001 8h-689c-12.667 0 -23.834 -6 -33.501 -18s-14.5 -24 -14.5 -36
v-464c0 -14.667 5.66699 -27.167 17 -37.5s22.333 -15.5 33 -15.5h153c12 0 22.833 5 32.5 15s14.5 24.667 14.5 44v83zM624.001 419c19.333 0 32.333 -2.16699 39 -6.5s10 -12.5 10 -24.5c0 -13.333 -3.66699 -22.333 -11 -27s-18.666 -7 -33.999 -7h-283
c-30.667 0 -46 11 -46 33c0 12 3.66699 20.333 11 25s20.666 7 39.999 7h274z" />
    <glyph glyph-name="Q" unicode="Q" horiz-adv-x="1145" 
d="M924 212l-0.00195312 250c0 16 -3.66699 30.667 -11 44s-17.166 24.833 -29.499 34.5s-26.833 17.167 -43.5 22.5s-34.334 8 -53.001 8h-600c-18.667 0 -36.334 -2.66699 -53.001 -8s-31.167 -12.833 -43.5 -22.5s-22.166 -21.167 -29.499 -34.5s-11 -28 -11 -44v-350
c0 -36 11.667 -63.667 35 -83s53.333 -29 90 -29h889c12.667 -0 24.334 4.33301 35.001 13s16 18.667 16 30v69c0 10.667 -5.5 20 -16.5 28s-22.167 12 -33.5 12h-93c-19.333 0 -32.166 5 -38.499 15s-9.5 25 -9.5 45zM614.998 419c19.333 0 34 -4.5 44 -13.5
s15 -23.5 15 -43.5v-160c-2 -33.333 -17 -50 -45 -50h-284c-30 0 -45 18.667 -45 56v154c0 20 5 34.5 15 43.5s24.667 13.5 44 13.5h256z" />
    <glyph glyph-name="R" unicode="R" 
d="M300 142c0 38 17.667 57.9961 53 59.9961h122l148 -181c4.66699 -5.33301 11.334 -10.166 20.001 -14.499s15.334 -6.5 20.001 -6.5h254c16 0.666992 24 5.33398 24 14.001c0 3.33301 -1.33301 7.33301 -4 12s-6 9.66699 -10 15l-132 161
c18.667 0.666992 36 3.83398 52 9.50098s29.667 13.334 41 23.001s20.166 21 26.499 34s9.5 27.167 9.5 42.5v151c0 16 -3.66699 30.667 -11 44s-17.166 24.833 -29.499 34.5s-26.833 17.167 -43.5 22.5s-34.334 8 -53.001 8h-689c-12.667 0 -23.834 -6 -33.501 -18
s-14.5 -24 -14.5 -36v-464c0 -14.667 5.66699 -27.167 17 -37.5s22.333 -15.5 33 -15.5h153c12 0 22.833 5 32.5 15s14.5 24.667 14.5 44v83zM624 418.996c19.333 0 32.333 -2.16699 39 -6.5s10 -12.5 10 -24.5c0 -13.333 -3.66699 -22.333 -11 -27s-18.666 -7 -33.999 -7
h-283c-30.667 0 -46 11 -46 33c0 11.333 3.66699 19.5 11 24.5s20.666 7.5 39.999 7.5h274z" />
    <glyph glyph-name="FL0053h" unicode="S" 
d="M924 245l0.000976562 -135.999c0 -16 -3.66699 -30.667 -11 -44s-17.166 -24.833 -29.499 -34.5s-26.833 -17.167 -43.5 -22.5s-34.334 -8 -53.001 -8h-686c-12.667 0 -24.334 4.33301 -35.001 13s-16 18.667 -16 30v69c0 10.667 5.5 20 16.5 28s22.167 12 33.5 12h524
c15.333 0 26.166 3 32.499 9s9.5 14 9.5 24c0 8.66699 -2.83301 17 -8.5 25s-16.834 12 -33.501 12h-362c-40 0 -72.833 10.167 -98.5 30.5s-38.5 46.5 -38.5 78.5v131c0 16 3.66699 30.667 11 44s17.166 24.833 29.499 34.5s26.833 17.167 43.5 22.5s34.334 8 53.001 8h616
c12.667 0 23.5 -4.33301 32.5 -13s13.5 -18.667 13.5 -30v-69c0 -10.667 -5.5 -20 -16.5 -28s-22.167 -12 -33.5 -12h-455c-15.333 0 -26.166 -2.5 -32.499 -7.5s-9.5 -13.167 -9.5 -24.5c0 -12.667 3.33301 -21.334 10 -26.001s17.334 -7 32.001 -7h368
c19.333 0 37.333 -2.66699 54 -8s31.167 -12.833 43.5 -22.5s22 -21.167 29 -34.5s10.5 -28 10.5 -44z" />
    <glyph glyph-name="t" unicode="T" 
d="M674 359l0.000976562 -300c0 -19.333 4.83301 -34 14.5 -44s20.5 -15 32.5 -15h153c10.667 0 21.667 5.16699 33 15.5s17 22.833 17 37.5v409c0 16 -3.66699 30.667 -11 44s-17.166 24.833 -29.499 34.5s-26.833 17.167 -43.5 22.5s-34.334 8 -53.001 8h-686
c-12.667 0 -24.334 -4.33301 -35.001 -13s-16 -18.667 -16 -30v-69c0 -10.667 5.5 -20 16.5 -28s22.167 -12 33.5 -12h515c39.333 0 59 -20 59 -60z" />
    <glyph glyph-name="FL0055h" unicode="U" 
d="M300 512c0 19.333 -4.83301 34 -14.5 44s-20.5 15 -32.5 15h-153c-10.667 0 -21.667 -5.16699 -33 -15.5s-17 -22.833 -17 -37.5v-406c0 -36 11.667 -63.667 35 -83s53.333 -29 90 -29h624c36.667 0 66.667 9.66699 90 29s35 47 35 83v406
c0 14.667 -5.66699 27.167 -17 37.5s-22.333 15.5 -33 15.5h-153c-12 0 -22.833 -5 -32.5 -15s-14.5 -24.667 -14.5 -44v-304c0 -37.333 -15 -56 -45 -56h-284c-30 0 -45 18.667 -45 56v304z" />
    <glyph glyph-name="FL0056h" unicode="V" horiz-adv-x="1084" 
d="M784 359c0 40 -19.667 60.0029 -59 60.0029h-80c-4 0 -8.83301 1.16699 -14.5 3.5s-11.334 5.33301 -17.001 9s-11 7.5 -16 11.5s-9.5 8 -13.5 12l-86 86c-1.33301 1.33301 -3.66602 4.16602 -6.99902 8.49902s-5 7.16602 -5 8.49902c0 5.33301 1.83301 8.83301 5.5 10.5
s8.16699 2.5 13.5 2.5h392c18.667 0 36.334 -2.66699 53.001 -8s31.167 -12.833 43.5 -22.5s22.166 -21.167 29.499 -34.5s11 -28 11 -44v-370c0 -61.333 -32.667 -92 -98 -92h-249c-36 0 -70.5 7.66699 -103.5 23s-68.167 41.333 -105.5 78l-434 429
c-9.33301 11.333 -14 20.333 -14 27c0 8 8 12.667 24 14h249c2 0 5.5 -0.666992 10.5 -2s10.5 -3 16.5 -5s11.5 -4.16699 16.5 -6.5s8.5 -4.83301 10.5 -7.5l389 -374c6.66699 -4.66699 14.667 -9.33398 24 -14.001l14 -7v204z" />
    <glyph glyph-name="FL0057h" unicode="W" horiz-adv-x="1513" 
d="M299 156l-0.00488281 200.999c0 41.333 19.667 62 59 62h80c4 0 8.83301 1.16699 14.5 3.5s11.334 5.33301 17.001 9s11 7.5 16 11.5s9.5 8 13.5 12l86 86c1.33301 1.33301 3.66602 4.16602 6.99902 8.49902s5 7.16602 5 8.49902c0 5.33301 -1.83301 8.83301 -5.5 10.5
s-8.16699 2.5 -13.5 2.5h-392c-18.667 0 -36.334 -2.66699 -53.001 -8s-31.167 -12.833 -43.5 -22.5s-22.166 -21.167 -29.499 -34.5s-11 -28 -11 -44v-370c0 -61.333 32.667 -92 98 -92h249c36 0 69 8 99 24s61.667 41.667 95 77l148 159
c3.33301 3.33301 6.83301 6.5 10.5 9.5s6.16699 4.5 7.5 4.5c3.33301 0 6.33301 -1.33301 9 -4l8 -8l148 -161c32.667 -36 64.167 -61.833 94.5 -77.5s63.5 -23.5 99.5 -23.5h249c65.333 0 98 30.667 98 92v370c0 16 -3.66699 30.667 -11 44s-17.166 24.833 -29.499 34.5
s-26.833 17.167 -43.5 22.5s-34.334 8 -53.001 8h-392c-5.33301 0 -9.83301 -0.833008 -13.5 -2.5s-5.5 -5.16699 -5.5 -10.5c0 -1.33301 1.66699 -4.16602 5 -8.49902s5.66602 -7.16602 6.99902 -8.49902l86 -86c4 -4 8.5 -8 13.5 -12s10.333 -7.83301 16 -11.5
s11.334 -6.66699 17.001 -9s10.5 -3.5 14.5 -3.5h80c39.333 0 59 -20 59 -60v-203l-14.5 7c-9.66699 4.66699 -18.167 9 -25.5 13l-372 373c-6.66699 6.66699 -13.167 12 -19.5 16s-15.166 6 -26.499 6c-13.333 0 -23.166 -1.66699 -29.499 -5
s-12.166 -7.66602 -17.499 -12.999l-368 -377c-2.66699 -2 -6.16699 -4.16699 -10.5 -6.5s-8.66602 -4.5 -12.999 -6.5s-8.16602 -3.66699 -11.499 -5z" />
    <glyph glyph-name="FL0058h" unicode="X" horiz-adv-x="1054" 
d="M351 550l176 -175l176 175c2 2.66699 5.5 5.16699 10.5 7.5s10.5 4.5 16.5 6.5s11.5 3.66699 16.5 5s8.5 2 10.5 2h243c16 -1.33301 24 -6 24 -14c0 -6.66699 -4.66699 -15.667 -14 -27l-222 -226l222 -263c4 -5.33301 7.33301 -10.333 10 -15s4 -8.66699 4 -12
c0 -8.66699 -8 -13.334 -24 -14.001h-246c-2 0 -5.5 0.666992 -10.5 2s-10.333 3 -16 5s-11 4.16699 -16 6.5s-8.5 4.83301 -10.5 7.5l-174 199l-174 -199c-2 -2.66699 -5.5 -5.16699 -10.5 -7.5s-10.333 -4.5 -16 -6.5s-11 -3.66699 -16 -5s-8.5 -2 -10.5 -2h-246
c-16 0.666992 -24 5.33398 -24 14.001c0 3.33301 1.33301 7.33301 4 12s6 9.66699 10 15l222 263l-222 226c-9.33301 11.333 -14 20.333 -14 27c0 8 8 12.667 24 14h243c2 0 5.5 -0.666992 10.5 -2s10.5 -3 16.5 -5s11.5 -4.16699 16.5 -6.5s8.5 -4.83301 10.5 -7.5z" />
    <glyph glyph-name="Y" unicode="Y" horiz-adv-x="1104" 
d="M804 155c-0.666992 0 -3.16992 0.999023 -7.50293 2.99902s-9.66602 4.83301 -15.999 8.5s-11.166 6.83398 -14.499 9.50098l-391 374c-2 2.66699 -5.5 5.16699 -10.5 7.5s-10.5 4.5 -16.5 6.5s-11.5 3.66699 -16.5 5s-8.5 2 -10.5 2h-247c-16 -1.33301 -24 -6 -24 -14
c0 -6.66699 4.66699 -15.667 14 -27l383 -378h-347c-11.333 0 -22.5 -4 -33.5 -12s-16.5 -17.333 -16.5 -28v-69c0 -11.333 5.33301 -21.333 16 -30s22.334 -13 35.001 -13h855c65.333 0 98 30.667 98 92v426c0 14.667 -5.66699 27.167 -17 37.5s-22.333 15.5 -33 15.5h-153
c-12 0 -22.833 -5 -32.5 -15s-14.5 -24.667 -14.5 -44v-357z" />
    <glyph glyph-name="FL005Ah" unicode="Z" 
d="M50 301l-0.00195312 -250c0 -13.333 4.83301 -25.166 14.5 -35.499s20.167 -15.5 31.5 -15.5h777c12.667 0 24.334 4.33301 35.001 13s16 18.667 16 30v69c0 10.667 -5.5 20 -16.5 28s-22.167 12 -33.5 12h-532c-15.333 0 -24.833 3 -28.5 9s-5.5 14 -5.5 24
c0 8.66699 1.5 17 4.5 25s12.833 12 29.5 12h460c12 0 22.833 5.66699 32.5 17s14.5 24.333 14.5 39v234c0 14.667 -4.66699 28.167 -14 40.5s-20.666 18.5 -33.999 18.5h-705c-12.667 0 -23.5 -4.33301 -32.5 -13s-13.5 -18.667 -13.5 -30v-69c0 -10.667 5.5 -20 16.5 -28
s22.167 -12 33.5 -12h465c15.333 0 24.5 -2.5 27.5 -7.5s4.5 -13.167 4.5 -24.5c0 -12.667 -1.66699 -21.334 -5 -26.001s-12.333 -7 -27 -7h-465c-13.333 0 -25 -4.16699 -35 -12.5s-15 -21.833 -15 -40.5z" />
    <glyph glyph-name="FL005Bh" unicode="[" horiz-adv-x="1741" 
d="M1418 419c-17.333 -1.33301 -30.502 -6.33301 -39.502 -15s-13.5 -22.667 -13.5 -42v-306c0 -15.333 -4.83301 -28.5 -14.5 -39.5s-20.5 -16.5 -32.5 -16.5h-130c-12 0 -22.833 5.5 -32.5 16.5s-14.5 24.167 -14.5 39.5v306c0 19.333 -4.5 33.333 -13.5 42
s-22.167 13.667 -39.5 15h-222c-11.333 0 -22.5 4 -33.5 12s-16.5 17.333 -16.5 28v69c0 11.333 5.33301 21.333 16 30s22.334 13 35.001 13h772c12.667 0 24.334 -4.33301 35.001 -13s16 -18.667 16 -30v-69c0 -10.667 -5.5 -20 -16.5 -28s-22.167 -12 -33.5 -12h-222z
M298.998 212c0 -40 19.665 -60.002 58.998 -60.002h80c4 0 8.83301 -1.16699 14.5 -3.5s11.334 -5.33301 17.001 -9s11 -7.5 16 -11.5s9.5 -8 13.5 -12l86 -86c1.33301 -1.33301 3.66602 -4.16602 6.99902 -8.49902s5 -7.16602 5 -8.49902
c0 -5.33301 -1.83301 -8.83301 -5.5 -10.5s-8.16699 -2.5 -13.5 -2.5h-392c-18.667 0 -36.334 2.66699 -53.001 8s-31.167 12.833 -43.5 22.5s-22.166 21.167 -29.499 34.5s-11 28 -11 44v370c0 61.333 32.667 92 98 92h249c36 0 70.5 -7.66699 103.5 -23
s68.167 -41.333 105.5 -78l434 -429c4 -5.33301 7.33301 -10.333 10 -15s4 -8.66699 4 -12c0 -8.66699 -8 -13.334 -24 -14.001h-249c-2 0 -5.5 0.666992 -10.5 2s-10.5 3 -16.5 5s-11.5 4.16699 -16.5 6.5s-8.5 4.83301 -10.5 7.5l-389 374
c-3.33301 2.66699 -8.16602 5.83398 -14.499 9.50098s-11.666 6.5 -15.999 8.5s-6.83301 3 -7.5 3v-204z" />
    <glyph glyph-name="FL005Ch" unicode="\" horiz-adv-x="919" 
d="M359 550c-2 2.66699 -5.66699 5.16602 -11 7.49902s-11 4.5 -17 6.5s-11.667 3.66699 -17 5s-9 2 -11 2h-249c-16 -1.33301 -24 -6 -24 -14c0 -3.33301 1.33301 -7.33301 4 -12s6 -9.66699 10 -15l516 -509c2 -2.66699 5.66699 -5.16699 11 -7.5s11 -4.5 17 -6.5
s11.667 -3.66699 17 -5s9 -2 11 -2h249c16 0.666992 24 5.33398 24 14.001c0 3.33301 -1.33301 7.33301 -4 12s-6 9.66699 -10 15z" />
    <glyph glyph-name="FL0060h" unicode="]" horiz-adv-x="1741" 
d="M322 419c17.333 -1.33301 30.502 -6.33301 39.502 -15s13.5 -22.667 13.5 -42v-306c0 -15.333 4.83301 -28.5 14.5 -39.5s20.5 -16.5 32.5 -16.5h130c12 0 22.833 5.5 32.5 16.5s14.5 24.167 14.5 39.5v306c0 19.333 4.5 33.333 13.5 42s22.167 13.667 39.5 15h222
c11.333 0 22.5 4 33.5 12s16.5 17.333 16.5 28v69c0 11.333 -5.33301 21.333 -16 30s-22.334 13 -35.001 13h-772c-12.667 0 -24.334 -4.33301 -35.001 -13s-16 -18.667 -16 -30v-69c0 -10.667 5.5 -20 16.5 -28s22.167 -12 33.5 -12h222zM1441 212
c0 -40 -19.665 -60.002 -58.998 -60.002h-80c-4 0 -8.83301 -1.16699 -14.5 -3.5s-11.334 -5.33301 -17.001 -9s-11 -7.5 -16 -11.5s-9.5 -8 -13.5 -12l-86 -86c-1.33301 -1.33301 -3.66602 -4.16602 -6.99902 -8.49902s-5 -7.16602 -5 -8.49902
c0 -5.33301 1.83301 -8.83301 5.5 -10.5s8.16699 -2.5 13.5 -2.5h392c18.667 0 36.334 2.66699 53.001 8s31.167 12.833 43.5 22.5s22.166 21.167 29.499 34.5s11 28 11 44v370c0 61.333 -32.667 92 -98 92h-249c-36 0 -70.5 -7.66699 -103.5 -23
s-68.167 -41.333 -105.5 -78l-434 -429c-4 -5.33301 -7.33301 -10.333 -10 -15s-4 -8.66699 -4 -12c0 -8.66699 8 -13.334 24 -14.001h249c2 0 5.5 0.666992 10.5 2s10.5 3 16.5 5s11.5 4.16699 16.5 6.5s8.5 4.83301 10.5 7.5l389 374
c3.33301 2.66699 8.16602 5.83398 14.499 9.50098s11.666 6.5 15.999 8.5s6.83301 3 7.5 3v-204z" />
    <glyph glyph-name="FL005Eh" unicode="^" horiz-adv-x="1084" 
d="M784 512c0 19.333 4.83301 34.001 14.5 44.001s20.5 15 32.5 15h153c10.667 0 21.667 -5.16699 33 -15.5s17 -22.833 17 -37.5v-426c0 -61.333 -32.667 -92 -98 -92h-249c-36 0 -70.5 7.66699 -103.5 23s-68.167 41.333 -105.5 78l-434 429
c-9.33301 11.333 -14 20.333 -14 27c0 8 8 12.667 24 14h248c2 0 5.5 -0.666992 10.5 -2s10.5 -3 16.5 -5s11.5 -4.16699 16.5 -6.5s8.5 -4.83301 10.5 -7.5l390 -374c6.66699 -4.66699 14.667 -9.33398 24 -14.001l14 -7v357z" />
    <glyph glyph-name="FL005Fh" unicode="_" horiz-adv-x="826" 
d="M725 132h-623.998c-12.667 0 -24.334 -4.33301 -35.001 -13s-16 -18.667 -16 -30v-49c0 -10.667 5.5 -20 16.5 -28s22.167 -12 33.5 -12h626c11.333 0 22.5 4 33.5 12s16.5 17.333 16.5 28v49c0 11.333 -5.33301 21.333 -16 30s-22.334 13 -35.001 13z" />
    <glyph glyph-name="FL0061h" unicode="`" horiz-adv-x="1084" 
d="M300 512c0 19.333 -4.83301 34.001 -14.5 44.001s-20.5 15 -32.5 15h-153c-10.667 0 -21.667 -5.16699 -33 -15.5s-17 -22.833 -17 -37.5v-426c0 -61.333 32.667 -92 98 -92h249c36 0 70.5 7.66699 103.5 23s68.167 41.333 105.5 78l434 429
c9.33301 11.333 14 20.333 14 27c0 8 -8 12.667 -24 14h-248c-2 0 -5.5 -0.666992 -10.5 -2s-10.5 -3 -16.5 -5s-11.5 -4.16699 -16.5 -6.5s-8.5 -4.83301 -10.5 -7.5l-390 -374c-6.66699 -4.66699 -14.667 -9.33398 -24 -14.001l-14 -7v357z" />
    <glyph glyph-name="a" unicode="a" horiz-adv-x="1084" 
d="M784 212c0 -40 -19.665 -60.002 -58.998 -60.002h-80c-4 0 -8.83301 -1.16699 -14.5 -3.5s-11.334 -5.33301 -17.001 -9s-11 -7.5 -16 -11.5s-9.5 -8 -13.5 -12l-86 -86c-1.33301 -1.33301 -3.66602 -4.16602 -6.99902 -8.49902s-5 -7.16602 -5 -8.49902
c0 -5.33301 1.83301 -8.83301 5.5 -10.5s8.16699 -2.5 13.5 -2.5h392c18.667 0 36.334 2.66699 53.001 8s31.167 12.833 43.5 22.5s22.166 21.167 29.499 34.5s11 28 11 44v370c0 61.333 -32.667 92 -98 92h-249c-36 0 -70.5 -7.66699 -103.5 -23
s-68.167 -41.333 -105.5 -78l-434 -429c-4 -5.33301 -7.33301 -10.333 -10 -15s-4 -8.66699 -4 -12c0 -8.66699 8 -13.334 24 -14.001h249c2 0 5.5 0.666992 10.5 2s10.5 3 16.5 5s11.5 4.16699 16.5 6.5s8.5 4.83301 10.5 7.5l389 374
c3.33301 2.66699 8.16602 5.83398 14.499 9.50098s11.666 6.5 15.999 8.5s6.83301 3 7.5 3v-204z" />
    <glyph glyph-name="b" unicode="b" 
d="M50 311c0 11.333 5.33008 21.332 15.9971 29.999s22.334 13 35.001 13h529c14.667 0 25.334 2.33301 32.001 7s10 13.334 10 26.001c0 11.333 -3.16699 19.5 -9.5 24.5s-17.166 7.5 -32.499 7.5h-530c-11.333 0 -22.5 4 -33.5 12s-16.5 17.333 -16.5 28v69
c0 11.333 4.5 21.333 13.5 30s19.833 13 32.5 13h691c18.667 0 36.334 -2.66699 53.001 -8s31.167 -12.833 43.5 -22.5s22.166 -21.167 29.499 -34.5s11 -28 11 -44v-95c0 -6 -2.16699 -13.333 -6.5 -22s-9.16602 -17 -14.499 -25l-14.5 -21
c-4.33301 -6 -6.5 -9.66699 -6.5 -11s2.16699 -5.16602 6.5 -11.499l14.5 -21.5c5.33301 -8 10.166 -16.333 14.499 -25s6.5 -15.667 6.5 -21v-100c0 -16 -3.66699 -30.667 -11 -44s-17.166 -24.833 -29.499 -34.5s-26.833 -17.167 -43.5 -22.5s-34.334 -8 -53.001 -8h-687
c-6 0 -12 1.66699 -18 5s-11.333 7.66602 -16 12.999s-8.5 11 -11.5 17s-4.5 12 -4.5 18v258zM623.997 151.999c17.333 0 29.834 3 37.501 9s11.5 15 11.5 27c0 13.333 -3.5 22.333 -10.5 27s-18.167 7 -33.5 7h-283c-31.333 0 -47 -11 -47 -33
c0 -14 3.66699 -23.667 11 -29s20.666 -8 39.999 -8h274z" />
    <glyph glyph-name="c" unicode="c" 
d="M50 462v-353c0 -16 3.66699 -30.667 11 -44s17.166 -24.833 29.499 -34.5s26.833 -17.167 43.5 -22.5s34.334 -8 53.001 -8h686c12.667 -0 24.334 4.33301 35.001 13s16 18.667 16 30v69c0 10.667 -5.5 20 -16.5 28s-22.167 12 -33.5 12h-515
c-19.333 0 -34 4.33301 -44 13s-15 23 -15 43v154c0 20 5 34.5 15 43.5s24.667 13.5 44 13.5h515c11.333 0 22.5 4 33.5 12s16.5 17.333 16.5 28v69c0 11.333 -5.33301 21.333 -16 30s-22.334 13 -35.001 13h-686c-18.667 0 -36.334 -2.66699 -53.001 -8
s-31.167 -12.833 -43.5 -22.5s-22.166 -21.167 -29.499 -34.5s-11 -28 -11 -44z" />
    <glyph glyph-name="d" unicode="d" horiz-adv-x="1085" 
d="M300 212c0 -40 19.667 -60.002 59 -60.002h537c4 0 8.83301 -1.16699 14.5 -3.5s11.334 -5.33301 17.001 -9s11 -7.5 16 -11.5s9.5 -8 13.5 -12l86 -86c1.33301 -1.33301 3.66602 -4.16602 6.99902 -8.49902s5 -7.16602 5 -8.49902
c0 -5.33301 -1.83301 -8.83301 -5.5 -10.5s-8.16699 -2.5 -13.5 -2.5h-849c-18.667 0 -36.334 2.66699 -53.001 8s-31.167 12.833 -43.5 22.5s-22.166 21.167 -29.499 34.5s-11 28 -11 44v370c0 61.333 32.667 92 98 92h249c36 0 70.5 -7.66699 103.5 -23
s68.167 -41.333 105.5 -78l229 -226c4 -5.33301 7.33301 -10.333 10 -15s4 -8.66699 4 -12c0 -8.66699 -8 -13.334 -24 -14.001h-249c-2 0 -5.5 0.666992 -10.5 2s-10.5 3 -16.5 5s-11.5 4.16699 -16.5 6.5s-8.5 4.83301 -10.5 7.5l-184 171
c-6.66699 4.66699 -14.667 9.33398 -24 14.001l-14 7v-204z" />
    <glyph glyph-name="e" unicode="e" 
d="M50 462l0.00195312 -353.002c0 -16 3.66699 -30.667 11 -44s17.166 -24.833 29.499 -34.5s26.833 -17.167 43.5 -22.5s34.334 -8 53.001 -8h686c12.667 0 24.334 4.33301 35.001 13s16 18.667 16 30v69c0 10.667 -5.5 20 -16.5 28s-22.167 12 -33.5 12h-530
c-15.333 0 -26.166 2.5 -32.499 7.5s-9.5 13.833 -9.5 26.5c0.666992 12.667 4 21.834 10 27.501s16.667 8.5 32 8.5h530c11.333 0 22.5 4 33.5 12s16.5 17.333 16.5 28v49c0 11.333 -5.33301 21.333 -16 30s-22.334 13 -35.001 13h-529
c-14.667 0 -25.334 2.33301 -32.001 7s-10 13.334 -10 26.001c0 11.333 3.16699 19.5 9.5 24.5s17.166 7.5 32.499 7.5h530c11.333 0 22.5 4 33.5 12s16.5 17.333 16.5 28v69c0 11.333 -5.33301 21.333 -16 30s-22.334 13 -35.001 13h-686
c-18.667 0 -36.334 -2.66699 -53.001 -8s-31.167 -12.833 -43.5 -22.5s-22.166 -21.167 -29.499 -34.5s-11 -28 -11 -44z" />
    <glyph glyph-name="f" unicode="f" 
d="M50 462l0.00585938 -406.001c0 -14.667 5 -27.667 15 -39s20.333 -17 31 -17h157c12 0 22.833 5.5 32.5 16.5s14.5 24.167 14.5 39.5v129c1.33301 13.333 5.16602 22.833 11.499 28.5s17.166 8.5 32.499 8.5h530c11.333 0 22.5 4 33.5 12s16.5 17.333 16.5 28v49
c0 11.333 -5.33301 21.333 -16 30s-22.334 13 -35.001 13h-529c-14.667 0 -25.334 2.33301 -32.001 7s-10 13.334 -10 26.001c0 11.333 3.16699 19.5 9.5 24.5s17.166 7.5 32.499 7.5h530c11.333 0 22.5 4 33.5 12s16.5 17.333 16.5 28v69c0 11.333 -5.33301 21.333 -16 30
s-22.334 13 -35.001 13h-686c-18.667 0 -36.334 -2.66699 -53.001 -8s-31.167 -12.833 -43.5 -22.5s-22.166 -21.167 -29.499 -34.5s-11 -28 -11 -44z" />
    <glyph glyph-name="g" unicode="g" 
d="M924 287c0 19.333 -4.83203 34 -14.499 44s-20.5 15 -32.5 15h-153c-10.667 0 -21.667 -5.16699 -33 -15.5s-17 -22.833 -17 -37.5v-93c0 -32 -14.667 -48 -44 -48h-285c-30 0 -45 18.667 -45 56v154c0 20 5 34.5 15 43.5s24.667 13.5 44 13.5h515
c11.333 0 22.5 4 33.5 12s16.5 17.333 16.5 28v69c0 11.333 -5.33301 21.333 -16 30s-22.334 13 -35.001 13h-686c-18.667 0 -36.334 -2.66699 -53.001 -8s-31.167 -12.833 -43.5 -22.5s-22.166 -21.167 -29.499 -34.5s-11 -28 -11 -44v-350c0 -36 11.667 -63.667 35 -83
s53.333 -29 90 -29h624c38 0 68.333 8.5 91 25.5s34 42.833 34 77.5v184z" />
    <glyph glyph-name="h" unicode="h" 
d="M640 220c22.667 0 34 -11.667 34 -35v-129c0 -15.333 4.83301 -28.5 14.5 -39.5s20.5 -16.5 32.5 -16.5h157c10.667 0 21 5.66699 31 17s15 24.333 15 39v462c0 14.667 -5.66699 27.167 -17 37.5s-22.333 15.5 -33 15.5h-153c-12 0 -22.833 -5 -32.5 -15
s-14.5 -24.667 -14.5 -44v-121c0 -24.667 -11.333 -37 -34 -37h-306c-22.667 0 -34 12.333 -34 37v121c0 19.333 -4.83301 34 -14.5 44s-20.5 15 -32.5 15h-153c-10.667 0 -21.667 -5.16699 -33 -15.5s-17 -22.833 -17 -37.5v-462c0 -14.667 5 -27.667 15 -39
s20.333 -17 31 -17h157c12 0 22.833 5.5 32.5 16.5s14.5 24.167 14.5 39.5v129c0 23.333 11.333 35 34 35h306z" />
    <glyph glyph-name="i" unicode="i" horiz-adv-x="350" 
d="M300 512c0 19.333 -4.83301 34 -14.5 44s-20.5 15 -32.5 15h-153c-10.667 0 -21.667 -5.16699 -33 -15.5s-17 -22.833 -17 -37.5v-462c0 -14.667 5 -27.667 15 -39s20.333 -17 31 -17h157c12 0 22.833 5.5 32.5 16.5s14.5 24.167 14.5 39.5v456z" />
    <glyph glyph-name="J" unicode="j" 
d="M50 287c0 19.333 4.83203 34 14.499 44s20.5 15 32.5 15h153c10.667 0 21.667 -5.16699 33 -15.5s17 -22.833 17 -37.5v-93c0 -32 14.667 -48 44 -48h285c30 0 45 18.667 45 56v154c0 20 -5 34.5 -15 43.5s-24.667 13.5 -44 13.5h-77c-11.333 0 -22.5 4 -33.5 12
s-16.5 17.333 -16.5 28v69c0 11.333 5.33301 21.333 16 30s22.334 13 35.001 13h320c43.333 0 65 -23 65 -69v-390c0 -36 -11.667 -63.667 -35 -83s-53.333 -29 -90 -29h-624c-38 0 -68.333 8.5 -91 25.5s-34 42.833 -34 77.5v184z" />
    <glyph glyph-name="k" unicode="k" horiz-adv-x="1073" 
d="M327 176l-17.5 -15c-6.33301 -5.33301 -9.5 -7.33301 -9.5 -6v357c0 19.333 -4.83301 34 -14.5 44s-20.5 15 -32.5 15h-153c-10.667 0 -21.667 -5.16699 -33 -15.5s-17 -22.833 -17 -37.5v-426c0 -61.333 32.667 -92 98 -92h237c22 0 43.5 3.5 64.5 10.5
s41.5 16.667 61.5 29s39.667 26.666 59 42.999s38 33.5 56 51.5l91 -113c2 -2.66699 5.5 -5.16699 10.5 -7.5s10.333 -4.5 16 -6.5s11 -3.66699 16 -5s8.5 -2 10.5 -2h249c16 0.666992 24 5.33398 24 14.001c0 3.33301 -1.33301 7.33301 -4 12s-6 9.66699 -10 15l-222 271
l220 218c9.33301 11.333 14 20.333 14 27c0 8 -8 12.667 -24 14h-244c-2 0 -5.5 -0.666992 -10.5 -2s-10.5 -3 -16.5 -5s-11.5 -4.16699 -16.5 -6.5s-8.5 -4.83301 -10.5 -7.5z" />
    <glyph glyph-name="l" unicode="l" 
d="M300 212v300c0 19.333 -4.83301 34 -14.5 44s-20.5 15 -32.5 15h-152c-10.667 0 -21.834 -5.16699 -33.501 -15.5s-17.5 -22.833 -17.5 -37.5v-409c0 -16 3.66699 -30.667 11 -44s17.166 -24.833 29.499 -34.5s26.833 -17.167 43.5 -22.5s34.334 -8 53.001 -8h686
c12.667 -0 24.334 4.33301 35.001 13s16 18.667 16 30v69c0 10.667 -5.5 20 -16.5 28s-22.167 12 -33.5 12h-515c-39.333 0 -59 20 -59 60z" />
    <glyph glyph-name="m" unicode="m" horiz-adv-x="1513" 
d="M1213 415l0.00488281 -200.999c0 -41.333 -19.667 -62 -59 -62h-80c-4 0 -8.83301 -1.16699 -14.5 -3.5s-11.334 -5.33301 -17.001 -9s-11 -7.5 -16 -11.5s-9.5 -8 -13.5 -12l-86 -86c-1.33301 -1.33301 -3.66602 -4.16602 -6.99902 -8.49902s-5 -7.16602 -5 -8.49902
c0 -5.33301 1.83301 -8.83301 5.5 -10.5s8.16699 -2.5 13.5 -2.5h392c18.667 0 36.334 2.66699 53.001 8s31.167 12.833 43.5 22.5s22.166 21.167 29.499 34.5s11 28 11 44v370c0 61.333 -32.667 92 -98 92h-249c-36 0 -69.167 -7.83301 -99.5 -23.5
s-61.833 -41.5 -94.5 -77.5l-148 -159c-3.33301 -3.33301 -6.83301 -6.5 -10.5 -9.5s-6.16699 -4.5 -7.5 -4.5c-3.33301 0 -6.33301 1.33301 -9 4l-8 8l-148 161c-32.667 36 -64.167 61.833 -94.5 77.5s-63.5 23.5 -99.5 23.5h-249c-65.333 0 -98 -30.667 -98 -92v-370
c0 -16 3.66699 -30.667 11 -44s17.166 -24.833 29.499 -34.5s26.833 -17.167 43.5 -22.5s34.334 -8 53.001 -8h392c5.33301 0 9.83301 0.833008 13.5 2.5s5.5 5.16699 5.5 10.5c0 1.33301 -1.66699 4.16602 -5 8.49902s-5.66602 7.16602 -6.99902 8.49902l-86 86
c-4 4 -8.5 8 -13.5 12s-10.333 7.83301 -16 11.5s-11.334 6.66699 -17.001 9s-10.5 3.5 -14.5 3.5h-80c-39.333 0 -59 20 -59 60v203l14.5 -7c9.66699 -4.66699 18.167 -9 25.5 -13l372 -373c6.66699 -6.66699 13.167 -12 19.5 -16s15.166 -6 26.499 -6
c13.333 0 23.166 1.66699 29.499 5s12.166 7.66602 17.499 12.999l368 377c2.66699 2 6.16699 4.16699 10.5 6.5s8.66602 4.5 12.999 6.5s8.16602 3.66699 11.499 5z" />
    <glyph glyph-name="n" unicode="n" horiz-adv-x="1104" 
d="M300 416l-0.000976562 -204.003c0 -40 19.667 -60 59 -60h80c4 0 8.83301 -1.16699 14.5 -3.5s11.334 -5.33301 17.001 -9s11 -7.5 16 -11.5s9.5 -8 13.5 -12l86 -86c1.33301 -1.33301 3.66602 -4.16602 6.99902 -8.49902s5 -7.16602 5 -8.49902
c0 -5.33301 -1.83301 -8.83301 -5.5 -10.5s-8.16699 -2.5 -13.5 -2.5h-392c-18.667 0 -36.334 2.66699 -53.001 8s-31.167 12.833 -43.5 22.5s-22.166 21.167 -29.499 34.5s-11 28 -11 44v370c0 61.333 32.667 92 98 92h252c36 0 70 -7.66699 102 -23
s66.667 -41.333 104 -78l198 -198v240c0 19.333 4.83301 34 14.5 44s20.5 15 32.5 15h153c10.667 0 21.667 -5.16699 33 -15.5s17 -22.833 17 -37.5v-463c0 -13.333 -4.33301 -25.833 -13 -37.5s-20.667 -17.5 -36 -17.5h-215c-3.33301 0 -7.66602 0.666992 -12.999 2
s-10.833 3 -16.5 5s-10.667 4.16699 -15 6.5s-7.5 4.83301 -9.5 7.5l-398 374c-6.66699 4.66699 -14.667 9.33398 -24 14.001z" />
    <glyph glyph-name="o" unicode="o" 
d="M175 0h624c36.667 0 66.667 9.66699 90 29s35 47 35 83v350c0 16 -3.66699 30.667 -11 44s-17.166 24.833 -29.499 34.5s-26.833 17.167 -43.5 22.5s-34.334 8 -53.001 8h-600c-18.667 0 -36.334 -2.66699 -53.001 -8s-31.167 -12.833 -43.5 -22.5
s-22.166 -21.167 -29.499 -34.5s-11 -28 -11 -44v-350c0 -36 11.667 -63.667 35 -83s53.333 -29 90 -29zM615 419c19.333 0 34 -4.5 44 -13.5s15 -23.5 15 -43.5v-154c0 -37.333 -15 -56 -45 -56h-284c-30 0 -45 18.667 -45 56v154c0 20 5 34.5 15 43.5s24.667 13.5 44 13.5
h256z" />
    <glyph glyph-name="p" unicode="p" 
d="M300 142c0 38 17.6699 58.001 53.0029 60.001h434c40 0 72.833 10.167 98.5 30.5s38.5 46.5 38.5 78.5v151c0 16 -3.66699 30.667 -11 44s-17.166 24.833 -29.499 34.5s-26.833 17.167 -43.5 22.5s-34.334 8 -53.001 8h-691c-12.667 0 -23.5 -4.33301 -32.5 -13
s-13.5 -18.667 -13.5 -30v-69c0 -10.667 5.5 -20 16.5 -28s22.167 -12 33.5 -12h530c15.333 0 26.166 -2.5 32.499 -7.5s9.5 -13.167 9.5 -24.5c0 -12.667 -3.33301 -21.334 -10 -26.001s-17.334 -7 -32.001 -7h-529c-12.667 0 -24.334 -4.33301 -35.001 -13
s-16 -18.667 -16 -30v-258c0 -14.667 5.66699 -27.167 17 -37.5s22.333 -15.5 33 -15.5h153c12 0 22.833 5 32.5 15s14.5 24.667 14.5 44v83z" />
    <glyph glyph-name="FL0071h" unicode="q" horiz-adv-x="1145" 
d="M924 212l-0.00195312 250c0 16 -3.66699 30.667 -11 44s-17.166 24.833 -29.499 34.5s-26.833 17.167 -43.5 22.5s-34.334 8 -53.001 8h-600c-18.667 0 -36.334 -2.66699 -53.001 -8s-31.167 -12.833 -43.5 -22.5s-22.166 -21.167 -29.499 -34.5s-11 -28 -11 -44v-350
c0 -36 11.667 -63.667 35 -83s53.333 -29 90 -29h889c12.667 -0 24.334 4.33301 35.001 13s16 18.667 16 30v69c0 10.667 -5.5 20 -16.5 28s-22.167 12 -33.5 12h-93c-19.333 0 -32.166 5 -38.499 15s-9.5 25 -9.5 45zM614.998 419c19.333 0 34 -4.5 44 -13.5
s15 -23.5 15 -43.5v-160c-2 -33.333 -17 -50 -45 -50h-284c-30 0 -45 18.667 -45 56v154c0 20 5 34.5 15 43.5s24.667 13.5 44 13.5h256z" />
    <glyph glyph-name="FL0072h" unicode="r" horiz-adv-x="971" 
d="M872 571c12.667 0 24.334 -4.33105 35.001 -12.998s16 -18.667 16 -30v-70c0 -5.33301 -3.5 -12.333 -10.5 -21s-19.5 -20 -37.5 -34s-42.167 -31.167 -72.5 -51.5s-68.833 -44.833 -115.5 -73.5l225 -237c4 -5.33301 7.33301 -10.333 10 -15s4 -8.66699 4 -12
c0 -8.66699 -8 -13.334 -24 -14.001h-223c-2 0 -5.5 0.666992 -10.5 2s-10.333 3 -16 5s-11 4.16699 -16 6.5s-8.5 4.83301 -10.5 7.5l-269 283l167 103c0 6.66699 -2.66699 10.667 -8 12h-172c-17.333 0 -29 -2.33301 -35 -7s-9 -13 -9 -25v-331
c0 -15.333 -4.83301 -28.5 -14.5 -39.5s-20.5 -16.5 -32.5 -16.5h-157c-10.667 0 -21 5.66699 -31 17s-15 24.333 -15 39v462c0 6 0.666992 12 2 18s3.66602 11.667 6.99902 17s8 9.66602 14 12.999s14 5 24 5h775z" />
    <glyph glyph-name="FL0073h" unicode="s" 
d="M924 245l0.000976562 -135.999c0 -16 -3.66699 -30.667 -11 -44s-17.166 -24.833 -29.499 -34.5s-26.833 -17.167 -43.5 -22.5s-34.334 -8 -53.001 -8h-686c-12.667 0 -24.334 4.33301 -35.001 13s-16 18.667 -16 30v69c0 10.667 5.5 20 16.5 28s22.167 12 33.5 12h524
c15.333 0 26.166 3 32.499 9s9.5 14 9.5 24c0 8.66699 -2.83301 17 -8.5 25s-16.834 12 -33.501 12h-437c-40 0 -72.833 10.167 -98.5 30.5s-38.5 46.5 -38.5 78.5v131c0 16 3.66699 30.667 11 44s17.166 24.833 29.499 34.5s26.833 17.167 43.5 22.5s34.334 8 53.001 8h691
c12.667 0 23.5 -4.33301 32.5 -13s13.5 -18.667 13.5 -30v-69c0 -10.667 -5.5 -20 -16.5 -28s-22.167 -12 -33.5 -12h-530c-15.333 0 -26.166 -2.5 -32.499 -7.5s-9.5 -13.167 -9.5 -24.5c0 -12.667 3.33301 -21.334 10 -26.001s17.334 -7 32.001 -7h443
c19.333 0 37.333 -2.66699 54 -8s31.167 -12.833 43.5 -22.5s22 -21.167 29 -34.5s10.5 -28 10.5 -44z" />
    <glyph glyph-name="T" unicode="t" 
d="M310 419c17.333 -1.33301 30.502 -6.33301 39.502 -15s13.5 -22.667 13.5 -42v-306c0 -15.333 4.83301 -28.5 14.5 -39.5s20.5 -16.5 32.5 -16.5h154c12 0 22.833 5.5 32.5 16.5s14.5 24.167 14.5 39.5v306c0 19.333 4.5 33.333 13.5 42s22.167 13.667 39.5 15h210
c11.333 0 22.5 4 33.5 12s16.5 17.333 16.5 28v69c0 11.333 -5.33301 21.333 -16 30s-22.334 13 -35.001 13h-772c-12.667 0 -24.334 -4.33301 -35.001 -13s-16 -18.667 -16 -30v-69c0 -10.667 5.5 -20 16.5 -28s22.167 -12 33.5 -12h210z" />
    <glyph glyph-name="u" unicode="u" 
d="M300 512c0 19.333 -4.83301 34 -14.5 44s-20.5 15 -32.5 15h-153c-10.667 0 -21.667 -5.16699 -33 -15.5s-17 -22.833 -17 -37.5v-406c0 -36 11.667 -63.667 35 -83s53.333 -29 90 -29h624c36.667 0 66.667 9.66699 90 29s35 47 35 83v406
c0 14.667 -5.66699 27.167 -17 37.5s-22.333 15.5 -33 15.5h-153c-12 0 -22.833 -5 -32.5 -15s-14.5 -24.667 -14.5 -44v-304c0 -37.333 -15 -56 -45 -56h-284c-30 0 -45 18.667 -45 56v304z" />
    <glyph glyph-name="v" unicode="v" horiz-adv-x="1084" 
d="M300 359c0 40 19.667 60.0029 59 60.0029h80c4 0 8.83301 1.16699 14.5 3.5s11.334 5.33301 17.001 9s11 7.5 16 11.5s9.5 8 13.5 12l86 86c1.33301 1.33301 3.66602 4.16602 6.99902 8.49902s5 7.16602 5 8.49902c0 5.33301 -1.83301 8.83301 -5.5 10.5
s-8.16699 2.5 -13.5 2.5h-392c-18.667 0 -36.334 -2.66699 -53.001 -8s-31.167 -12.833 -43.5 -22.5s-22.166 -21.167 -29.499 -34.5s-11 -28 -11 -44v-370c0 -61.333 32.667 -92 98 -92h249c36 0 70.5 7.66699 103.5 23s68.167 41.333 105.5 78l434 429
c9.33301 11.333 14 20.333 14 27c0 8 -8 12.667 -24 14h-249c-2 0 -5.5 -0.666992 -10.5 -2s-10.5 -3 -16.5 -5s-11.5 -4.16699 -16.5 -6.5s-8.5 -4.83301 -10.5 -7.5l-389 -374c-6.66699 -4.66699 -14.667 -9.33398 -24 -14.001l-14 -7v204z" />
    <glyph glyph-name="FL0077h" unicode="w" horiz-adv-x="1513" 
d="M299 156l-0.00488281 200.999c0 41.333 19.667 62 59 62h80c4 0 8.83301 1.16699 14.5 3.5s11.334 5.33301 17.001 9s11 7.5 16 11.5s9.5 8 13.5 12l86 86c1.33301 1.33301 3.66602 4.16602 6.99902 8.49902s5 7.16602 5 8.49902c0 5.33301 -1.83301 8.83301 -5.5 10.5
s-8.16699 2.5 -13.5 2.5h-392c-18.667 0 -36.334 -2.66699 -53.001 -8s-31.167 -12.833 -43.5 -22.5s-22.166 -21.167 -29.499 -34.5s-11 -28 -11 -44v-370c0 -61.333 32.667 -92 98 -92h249c36 0 69 8 99 24s61.667 41.667 95 77l148 159
c3.33301 3.33301 6.83301 6.5 10.5 9.5s6.16699 4.5 7.5 4.5c3.33301 0 6.33301 -1.33301 9 -4l8 -8l148 -161c32.667 -36 64.167 -61.833 94.5 -77.5s63.5 -23.5 99.5 -23.5h249c65.333 0 98 30.667 98 92v370c0 16 -3.66699 30.667 -11 44s-17.166 24.833 -29.499 34.5
s-26.833 17.167 -43.5 22.5s-34.334 8 -53.001 8h-392c-5.33301 0 -9.83301 -0.833008 -13.5 -2.5s-5.5 -5.16699 -5.5 -10.5c0 -1.33301 1.66699 -4.16602 5 -8.49902s5.66602 -7.16602 6.99902 -8.49902l86 -86c4 -4 8.5 -8 13.5 -12s10.333 -7.83301 16 -11.5
s11.334 -6.66699 17.001 -9s10.5 -3.5 14.5 -3.5h80c39.333 0 59 -20 59 -60v-203l-14.5 7c-9.66699 4.66699 -18.167 9 -25.5 13l-372 373c-6.66699 6.66699 -13.167 12 -19.5 16s-15.166 6 -26.499 6c-13.333 0 -23.166 -1.66699 -29.499 -5
s-12.166 -7.66602 -17.499 -12.999l-368 -377c-2.66699 -2 -6.16699 -4.16699 -10.5 -6.5s-8.66602 -4.5 -12.999 -6.5s-8.16602 -3.66699 -11.499 -5z" />
    <glyph glyph-name="FL0078h" unicode="x" horiz-adv-x="1054" 
d="M351 550l176 -175l176 175c2 2.66699 5.5 5.16699 10.5 7.5s10.5 4.5 16.5 6.5s11.5 3.66699 16.5 5s8.5 2 10.5 2h243c16 -1.33301 24 -6 24 -14c0 -6.66699 -4.66699 -15.667 -14 -27l-222 -226l222 -263c4 -5.33301 7.33301 -10.333 10 -15s4 -8.66699 4 -12
c0 -8.66699 -8 -13.334 -24 -14.001h-246c-2 0 -5.5 0.666992 -10.5 2s-10.333 3 -16 5s-11 4.16699 -16 6.5s-8.5 4.83301 -10.5 7.5l-174 199l-174 -199c-2 -2.66699 -5.5 -5.16699 -10.5 -7.5s-10.333 -4.5 -16 -6.5s-11 -3.66699 -16 -5s-8.5 -2 -10.5 -2h-246
c-16 0.666992 -24 5.33398 -24 14.001c0 3.33301 1.33301 7.33301 4 12s6 9.66699 10 15l222 263l-222 226c-9.33301 11.333 -14 20.333 -14 27c0 8 8 12.667 24 14h243c2 0 5.5 -0.666992 10.5 -2s10.5 -3 16.5 -5s11.5 -4.16699 16.5 -6.5s8.5 -4.83301 10.5 -7.5z" />
    <glyph glyph-name="y" unicode="y" horiz-adv-x="1104" 
d="M804 155c-0.666992 0 -3.16992 0.99707 -7.50293 2.99707s-9.66602 4.83301 -15.999 8.5s-11.166 6.83398 -14.499 9.50098l-391 374c-2 2.66699 -5.5 5.16699 -10.5 7.5s-10.5 4.5 -16.5 6.5s-11.5 3.66699 -16.5 5s-8.5 2 -10.5 2h-247c-16 -1.33301 -24 -6 -24 -14
c0 -6.66699 4.66699 -15.667 14 -27l383 -378h-347c-11.333 0 -22.5 -4 -33.5 -12s-16.5 -17.333 -16.5 -28v-69c0 -11.333 5.33301 -21.333 16 -30s22.334 -13 35.001 -13h855c65.333 0 98 30.667 98 92v370c0 16 -3.66699 30.667 -11 44s-17.166 24.833 -29.499 34.5
s-26.833 17.167 -43.5 22.5s-34.334 8 -53.001 8h-392c-5.33301 0 -9.83301 -0.833008 -13.5 -2.5s-5.5 -5.16699 -5.5 -10.5c0 -1.33301 1.66699 -4.16602 5 -8.49902s5.66602 -7.16602 6.99902 -8.49902l86 -86c4 -4 8.5 -8 13.5 -12s10.333 -7.83301 16 -11.5
s11.334 -6.66699 17.001 -9s10.5 -3.5 14.5 -3.5h80c39.333 0 59 -20 59 -60v-204z" />
    <glyph glyph-name="FL007Ah" unicode="z" 
d="M50 301l-0.000976562 -250c0 -13.333 4.83301 -25.166 14.5 -35.499s20.167 -15.5 31.5 -15.5h777c12.667 0 24.334 4.33301 35.001 13s16 18.667 16 30v69c0 10.667 -5.5 20 -16.5 28s-22.167 12 -33.5 12h-532c-15.333 0 -24.833 3 -28.5 9s-5.5 14 -5.5 24
c0 8.66699 1.5 17 4.5 25s12.833 12 29.5 12h535c12 0 22.833 5.66699 32.5 17s14.5 24.333 14.5 39v235c0 14.667 -4.5 28 -13.5 40s-20.167 18 -33.5 18h-781c-12.667 0 -23.5 -4.33301 -32.5 -13s-13.5 -18.667 -13.5 -30v-69c0 -10.667 5.5 -20 16.5 -28
s22.167 -12 33.5 -12h540c15.333 0 24.5 -2.5 27.5 -7.5s4.5 -13.167 4.5 -24.5c0 -12.667 -1.66699 -21.334 -5 -26.001s-12.333 -7 -27 -7h-540c-13.333 0 -25 -4.16699 -35 -12.5s-15 -21.833 -15 -40.5z" />
    <glyph glyph-name="FL007Bh" unicode="{" horiz-adv-x="1749" 
d="M300 212c0 -40 19.665 -60.002 58.998 -60.002h80c4 0 8.83301 -1.16699 14.5 -3.5s11.334 -5.33301 17.001 -9s11 -7.5 16 -11.5s9.5 -8 13.5 -12l86 -86c1.33301 -1.33301 3.66602 -4.16602 6.99902 -8.49902s5 -7.16602 5 -8.49902
c0 -5.33301 -1.83301 -8.83301 -5.5 -10.5s-8.16699 -2.5 -13.5 -2.5h-392c-18.667 0 -36.334 2.66699 -53.001 8s-31.167 12.833 -43.5 22.5s-22.166 21.167 -29.499 34.5s-11 28 -11 44v370c0 61.333 32.667 92 98 92h249c36 0 70.5 -7.66699 103.5 -23
s68.167 -41.333 105.5 -78l434 -429c4 -5.33301 7.33301 -10.333 10 -15s4 -8.66699 4 -12c0 -8.66699 -8 -13.334 -24 -14.001h-249c-2 0 -5.5 0.666992 -10.5 2s-10.5 3 -16.5 5s-11.5 4.16699 -16.5 6.5s-8.5 4.83301 -10.5 7.5l-389 374
c-3.33301 2.66699 -8.16602 5.83398 -14.499 9.50098s-11.666 6.5 -15.999 8.5s-6.83301 3 -7.5 3v-204zM1449 358.998c0 40 -19.667 60.0029 -59 60.0029h-80c-4 0 -8.83301 1.16699 -14.5 3.5s-11.334 5.33301 -17.001 9s-11 7.5 -16 11.5s-9.5 8 -13.5 12l-86 86
c-1.33301 1.33301 -3.66602 4.16602 -6.99902 8.49902s-5 7.16602 -5 8.49902c0 5.33301 1.83301 8.83301 5.5 10.5s8.16699 2.5 13.5 2.5h392c18.667 0 36.334 -2.66699 53.001 -8s31.167 -12.833 43.5 -22.5s22.166 -21.167 29.499 -34.5s11 -28 11 -44v-370
c0 -61.333 -32.667 -92 -98 -92h-249c-36 0 -70.5 7.66699 -103.5 23s-68.167 41.333 -105.5 78l-434 429c-9.33301 11.333 -14 20.333 -14 27c0 8 8 12.667 24 14h249c2 0 5.5 -0.666992 10.5 -2s10.5 -3 16.5 -5s11.5 -4.16699 16.5 -6.5s8.5 -4.83301 10.5 -7.5l389 -374
c6.66699 -4.66699 14.667 -9.33398 24 -14.001l14 -7v204z" />
    <glyph glyph-name="FL007Ch" unicode="|" horiz-adv-x="350" 
d="M300 617c0 19.333 -4.83301 34 -14.5 44s-20.5 15 -32.5 15h-153c-10.667 0 -21.667 -5.16699 -33 -15.5s-17 -22.833 -17 -37.5v-672c0 -14.667 5 -27.667 15 -39s20.333 -17 31 -17h157c12 0 22.833 5.5 32.5 16.5s14.5 24.167 14.5 39.5v666z" />
    <glyph glyph-name="FL007Dh" unicode="}" horiz-adv-x="1749" 
d="M1449 212c0 -40 -19.665 -60.002 -58.998 -60.002h-80c-4 0 -8.83301 -1.16699 -14.5 -3.5s-11.334 -5.33301 -17.001 -9s-11 -7.5 -16 -11.5s-9.5 -8 -13.5 -12l-86 -86c-1.33301 -1.33301 -3.66602 -4.16602 -6.99902 -8.49902s-5 -7.16602 -5 -8.49902
c0 -5.33301 1.83301 -8.83301 5.5 -10.5s8.16699 -2.5 13.5 -2.5h392c18.667 0 36.334 2.66699 53.001 8s31.167 12.833 43.5 22.5s22.166 21.167 29.499 34.5s11 28 11 44v370c0 61.333 -32.667 92 -98 92h-249c-36 0 -70.5 -7.66699 -103.5 -23
s-68.167 -41.333 -105.5 -78l-434 -429c-4 -5.33301 -7.33301 -10.333 -10 -15s-4 -8.66699 -4 -12c0 -8.66699 8 -13.334 24 -14.001h249c2 0 5.5 0.666992 10.5 2s10.5 3 16.5 5s11.5 4.16699 16.5 6.5s8.5 4.83301 10.5 7.5l389 374
c3.33301 2.66699 8.16602 5.83398 14.499 9.50098s11.666 6.5 15.999 8.5s6.83301 3 7.5 3v-204zM300.002 358.998c0 40 19.667 60.0029 59 60.0029h80c4 0 8.83301 1.16699 14.5 3.5s11.334 5.33301 17.001 9s11 7.5 16 11.5s9.5 8 13.5 12l86 86
c1.33301 1.33301 3.66602 4.16602 6.99902 8.49902s5 7.16602 5 8.49902c0 5.33301 -1.83301 8.83301 -5.5 10.5s-8.16699 2.5 -13.5 2.5h-392c-18.667 0 -36.334 -2.66699 -53.001 -8s-31.167 -12.833 -43.5 -22.5s-22.166 -21.167 -29.499 -34.5s-11 -28 -11 -44v-370
c0 -61.333 32.667 -92 98 -92h249c36 0 70.5 7.66699 103.5 23s68.167 41.333 105.5 78l434 429c9.33301 11.333 14 20.333 14 27c0 8 -8 12.667 -24 14h-249c-2 0 -5.5 -0.666992 -10.5 -2s-10.5 -3 -16.5 -5s-11.5 -4.16699 -16.5 -6.5s-8.5 -4.83301 -10.5 -7.5
l-389 -374c-6.66699 -4.66699 -14.667 -9.33398 -24 -14.001l-14 -7v204z" />
    <glyph glyph-name="FL007Eh" unicode="~" horiz-adv-x="622" 
d="M521 354h-419.998c-12.667 0 -24.334 -4.33301 -35.001 -13s-16 -18.667 -16 -30v-49c0 -10.667 5.5 -20 16.5 -28s22.167 -12 33.5 -12h422c11.333 0 22.5 4 33.5 12s16.5 17.333 16.5 28v49c0 11.333 -5.33301 21.333 -16 30s-22.334 13 -35.001 13z" />
    <glyph glyph-name="FL007Fh" horiz-adv-x="268" 
 />
    <glyph glyph-name="FL00A1h" unicode="&#xa1;" horiz-adv-x="350" 
d="M50 59c0 -19.333 4.83301 -34 14.5 -44s20.5 -15 32.5 -15h153c10.667 0 21.667 5.16699 33 15.5s17 22.833 17 37.5v240c0 14.667 -5 27.667 -15 39s-20.333 17 -31 17h-157c-12 0 -22.833 -5.5 -32.5 -16.5s-14.5 -24.167 -14.5 -39.5v-234zM250 571h-150.002
c-11.333 0 -22.5 -4 -33.5 -12s-16.5 -17.333 -16.5 -28v-69c0 -11.333 5.33301 -21.333 16 -30s22.334 -13 35.001 -13h148c12.667 0 24.334 4.33301 35.001 13s16 18.667 16 30v69c0 10.667 -5.5 20 -16.5 28s-22.167 12 -33.5 12z" />
    <glyph glyph-name="FL00A2h" unicode="&#xa2;" 
d="M705 617v-46h168c12.667 0 24.334 -4.33301 35.001 -13s16 -18.667 16 -30v-69c0 -10.667 -5.5 -20 -16.5 -28s-22.167 -12 -33.5 -12h-169v-267h169c11.333 0 22.5 -4 33.5 -12s16.5 -17.333 16.5 -28v-69c0 -11.333 -5.33301 -21.333 -16 -30s-22.334 -13 -35.001 -13
h-168v-49c0 -15.333 -4.83301 -28.5 -14.5 -39.5s-20.5 -16.5 -32.5 -16.5h-157c-10.667 0 -21 5.66699 -31 17s-15 24.333 -15 39v49h-268c-18.667 0 -36.334 2.66699 -53.001 8s-31.167 12.833 -43.5 22.5s-22.166 21.167 -29.499 34.5s-11 28 -11 44v353
c0 16 3.66699 30.667 11 44s17.166 24.833 29.499 34.5s26.833 17.167 43.5 22.5s34.334 8 53.001 8h268v52c0 14.667 5.66699 27.167 17 37.5s22.333 15.5 33 15.5h153c12 0 22.833 -5 32.5 -15s14.5 -24.667 14.5 -44zM455 419h-96c-19.333 0 -34 -4.5 -44 -13.5
s-15 -23.5 -15 -43.5v-154c0 -20 5 -34.333 15 -43s24.667 -13 44 -13h96v267z" />
    <glyph glyph-name="FL00A3h" unicode="&#xa3;" horiz-adv-x="1018" 
d="M918 152c11.333 0 22.4961 -3.99805 33.4961 -11.998s16.5 -17.333 16.5 -28v-69c0 -11.333 -5.33301 -21.333 -16 -30s-22.334 -13 -35.001 -13h-817c-11.333 0 -22.5 4 -33.5 12s-16.5 17.333 -16.5 28v69c0 11.333 5.33301 21.333 16 30s22.334 13 35.001 13h65v70
h-66c-11.333 0 -22.5 4 -33.5 12s-16.5 17.333 -16.5 28v49c0 11.333 5.33301 21.333 16 30s22.334 13 35.001 13h65v108c0 16 3.66699 30.667 11 44s17.166 24.833 29.499 34.5s26.833 17.167 43.5 22.5s34.334 8 53.001 8h254c12.667 0 24.334 -4.33301 35.001 -13
s16 -18.667 16 -30v-69c0 -10.667 -5.5 -20 -16.5 -28s-22.167 -12 -33.5 -12h-98c-15.333 0 -26.166 -2.5 -32.499 -7.5s-9.5 -13.167 -9.5 -24.5c0 -12.667 3.33301 -21.334 10 -26.001s17.334 -7 32.001 -7h260c12.667 0 24.334 -4.33301 35.001 -13s16 -18.667 16 -30
v-49c0 -10.667 -5.5 -20 -16.5 -28s-22.167 -12 -33.5 -12h-261c-15.333 0 -26 -2.83301 -32 -8.5s-9.33301 -14.834 -10 -27.501c0 -12.667 3.16699 -21.5 9.5 -26.5s17.166 -7.5 32.499 -7.5h458z" />
    <glyph glyph-name="FL00A4h" unicode="&#xa4;" horiz-adv-x="1054" 
d="M399 502l-48 48c-2 2.66699 -5.5 5.16699 -10.5 7.5s-10.5 4.5 -16.5 6.5s-11.5 3.66699 -16.5 5s-8.5 2 -10.5 2h-243c-16 -1.33301 -24 -6 -24 -14c0 -6.66699 4.66699 -15.667 14 -27l128 -131v-207l-128 -151c-4 -5.33301 -7.33301 -10.333 -10 -15
s-4 -8.66699 -4 -12c0 -8.66699 8 -13.334 24 -14.001h246c2 0 5.5 0.666992 10.5 2s10.333 3 16 5s11 4.16699 16 6.5s8.5 4.83301 10.5 7.5l61 70h226l61 -70c2 -2.66699 5.5 -5.16699 10.5 -7.5s10.333 -4.5 16 -6.5s11 -3.66699 16 -5s8.5 -2 10.5 -2h246
c16 0.666992 24 5.33398 24 14.001c0 3.33301 -1.33301 7.33301 -4 12s-6 9.66699 -10 15l-137 162v187l137 140c9.33301 11.333 14 20.333 14 27c0 8 -8 12.667 -24 14h-243c-2 0 -5.5 -0.666992 -10.5 -2s-10.5 -3 -16.5 -5s-11.5 -4.16699 -16.5 -6.5
s-8.5 -4.83301 -10.5 -7.5l-49 -48h-255zM615 386c32 0 48 -13.667 48 -41v-97c0 -27.333 -12 -41 -36 -41h-208c-24 0 -36 13.667 -36 41v97c0 27.333 15.667 41 47 41h185z" />
    <glyph glyph-name="FL00A5h" unicode="&#xa5;" horiz-adv-x="1331" 
d="M1230 262c12.667 0 24.335 -4.33203 35.002 -12.999s16 -18.667 16 -30v-49c0 -10.667 -5.5 -20 -16.5 -28s-22.167 -12 -33.5 -12h-177v-38c0 -61.333 -32.667 -92 -98 -92h-854c-12.667 0 -24.334 4.33301 -35.001 13s-16 18.667 -16 30v69c0 10.667 5.5 20 16.5 28
s22.167 12 33.5 12h346l-383 378c-9.33301 11.333 -14 20.333 -14 27c0 8 8 12.667 24 14h247c2 0 5.5 -0.666992 10.5 -2s10.5 -3 16.5 -5s11.5 -4.16699 16.5 -6.5s8.5 -4.83301 10.5 -7.5l391 -374c3.33301 -2.66699 8.16602 -5.83398 14.499 -9.50098
s11.666 -6.5 15.999 -8.5s6.83301 -3 7.5 -3v357c0 19.333 4.83301 34 14.5 44s20.5 15 32.5 15h153c10.667 0 21.667 -5.16699 33 -15.5s17 -22.833 17 -37.5v-74h176c12.667 0 24.334 -4.33301 35.001 -13s16 -18.667 16 -30v-49c0 -10.667 -5.5 -20 -16.5 -28
s-22.167 -12 -33.5 -12h-177v-50h176z" />
    <glyph glyph-name="FL00A6h" unicode="&#xa6;" horiz-adv-x="350" 
d="M300 617c0 19.333 -4.83301 34 -14.5 44s-20.5 15 -32.5 15h-153c-10.667 0 -21.667 -5.16699 -33 -15.5s-17 -22.833 -17 -37.5v-672c0 -14.667 5 -27.667 15 -39s20.333 -17 31 -17h157c12 0 22.833 5.5 32.5 16.5s14.5 24.167 14.5 39.5v666z" />
    <glyph glyph-name="FL00A7h" unicode="&#xa7;" horiz-adv-x="1036" 
d="M1006 296l-14.001 -32.999h-58l38 -58c1.33301 -1.33301 2 -4 2 -8v-6c0 -18.667 -6.33301 -29.334 -19 -32.001l-65 14l-7 -87c-4 -10.667 -12.333 -16 -25 -16c-9.33301 0 -19.166 2.5 -29.499 7.5s-22.5 12.167 -36.5 21.5l-63 -80l-32 -10l-40 46l-124 -73l-20 6v46
l-161 -28l-20 13l5 36l-168 16v28l21 24l-104 21c-12.667 0 -19 9.66699 -19 29l40 38l-73 38l-4 36l69 13l-38 53l6 47l76 -11c0 71.333 10 107 30 107h2l73 -30c16 24 30 43.333 42 58s23.667 24.667 35 30l59 -44l116 67l26 -23l-6 -22l6 -8l131 30l43 -7l-3 -44h153
l13 -16c0 -26 -8.66699 -40 -26 -42l131 -39v-9c0 -13.333 -3.83301 -23.333 -11.5 -30s-19.167 -11.334 -34.5 -14.001c56 -21.333 84 -39.666 84 -54.999zM986.999 285.001l-6.99902 13.002l-104 63l64 21h8l-8 16l-148 36l52 44h-175l11 52l-167 -29l-5 44l-14 7
l-118 -67l-51 45l-69 -87c-8 -2.66699 -13.333 -4 -16 -4c-16.667 0 -38.334 10.333 -65.001 31l-10 -102l-85 6l6 -29l45 -67l-83 -7l110 -66l-72 -37l156 -40l-52 -42l182 -8l-20 -52l161 37l20 -29l-7 -28l131 72l59 -44l63 89l84 -31l6 105l86 -17
c0 3.33301 0.166992 5.66602 0.5 6.99902s0.5 1.66602 0.5 0.999023c0 15.333 -17.333 45.333 -52 90zM860 336.003l-14 -95l-19 4l5 101zM850 201.003l-19 -21l-14 16l15 13zM801 208.003c-18.667 0 -42 21.667 -70 65v-64l-19 -2v129l64 -82l5 92l20 -9v-129zM694 209.003
l-15.998 6.00098c-8 20 -17.333 30 -28 30c-4 0 -8.5 -2.5 -13.5 -7.5s-9.83301 -12.5 -14.5 -22.5h-24c4 40.667 20 84 48 130c0.666992 2.66699 6 4 16 4c7.33301 0 13.166 -3.83301 17.499 -11.5s9.16602 -17.834 14.499 -30.501v-98zM585.002 346.004l-5 -129l-28 -10
l12 132zM531.002 204.004c-18.667 0 -42 20.667 -70 62v-61l-20 -4v130l69 -82v90l21 -8v-127zM429.002 295.004c-8 -60.667 -23 -91 -45 -91l-7.5 -1.5l-2.5 -0.5h-9c-20.667 0 -34 7.33301 -40 22c0 56 15 93.667 45 113c2 0 3.16699 0.166992 3.5 0.5l0.5 0.5h6
c26 0 42.333 -14.333 49 -43zM318.002 343.004l-2.00098 -31.999c-3.33301 1.33301 -5.66602 2.16602 -6.99902 2.49902s-3.33301 0.5 -6 0.5c-10 0 -20.333 -6.33301 -31 -19c-11.333 -17.333 -17 -35 -17 -53c0 -16.667 8 -25 24 -25h14c4 0 6.66699 0.666992 8 2l2 -22
c-5.33301 -0.666992 -9.83301 -1.66699 -13.5 -3s-7.16699 -2 -10.5 -2c-22.667 0 -37.334 19 -44.001 57c-0.666992 0.666992 -1 4 -1 10v7c0 21.333 6.83301 38 20.5 50s34.834 21 63.501 27zM222.001 339.005l-6 -128l-26 -10l12 132zM671.001 273.005l-13 43l-24 -43h37
zM407.001 277.005c0 6.66699 -1.00098 11.668 -3.00098 15.001c-7.33301 11.333 -15 17 -23 17c-5.33301 0 -11.166 -3.5 -17.499 -10.5s-11.5 -17.833 -15.5 -32.5v-8c0 -21.333 6.33301 -32 19 -32c6 0 15.667 3.66699 29 11c7.33301 13.333 11 26.666 11 39.999z" />
    <glyph glyph-name="FL00A8h" unicode="&#xa8;" 
d="M50 468c0 34.667 11.335 60.499 34.002 77.499s53 25.5 91 25.5h624c36.667 0 66.667 -9.66699 90 -29s35 -47 35 -83v-350c0 -16 -3.66699 -30.667 -11 -44s-17.166 -24.833 -29.499 -34.5s-26.833 -17.167 -43.5 -22.5s-34.334 -8 -53.001 -8h-686
c-12.667 0 -24.334 4.33301 -35.001 13s-16 18.667 -16 30v69c0 10.667 5.5 20 16.5 28s22.167 12 33.5 12h525c19.333 0 32.333 2 39 6s10 13.667 10 29c0 10 -4.83301 17.333 -14.5 22s-18.834 7.33398 -27.501 8.00098h-442c-29.333 0 -53 3 -71 9s-32.167 14 -42.5 24
s-17.333 21.833 -21 35.5s-5.5 28.5 -5.5 44.5v138zM350.002 418.999c-17.333 0 -29.834 -3 -37.501 -9s-11.5 -15 -11.5 -27c0 -13.333 3.5 -22.333 10.5 -27s18.167 -7 33.5 -7h283c31.333 0 47 11 47 33c0 14 -3.66699 23.667 -11 29s-20.666 8 -39.999 8h-274z" />
    <glyph glyph-name="FL00A9h" unicode="&#xa9;" horiz-adv-x="290" 
d="M145 612c-18.667 0 -36.667 -4.66699 -54 -14c-18.667 -10 -32.667 -23.667 -42 -41c-4.66699 -9.33301 -8.33398 -18.5 -11.001 -27.5s-4 -18.5 -4 -28.5c0 -19.333 5 -37.333 15 -54c5.33301 -9.33301 11.333 -17.333 18 -24s14.334 -12.667 23.001 -18
c17.333 -9.33301 35.666 -14 54.999 -14c12.667 0 31 4.66699 55 14c9.33301 5.33301 17.333 11.333 24 18s12.334 14.667 17.001 24c10 16.667 15 34.667 15 54c0 20 -5 38.667 -15 56c-9.33301 17.333 -23.333 31 -42 41c-17.333 9.33301 -35.333 14 -54 14zM145 594
c7.33301 0 14.8301 -0.830078 22.4971 -2.49707s15.167 -4.83398 22.5 -9.50098c8.66699 -4.66699 15.834 -9.83398 21.501 -15.501s10.167 -11.834 13.5 -18.501c8 -15.333 12 -31 12 -47c0 -15.333 -4 -30.333 -12 -45c-10 -16 -21.333 -27.333 -34 -34
c-15.333 -8 -30.666 -12 -45.999 -12c-16 0 -31.333 4 -46 12c-16 10 -27.333 21.333 -34 34c-8 14.667 -12 29.667 -12 45c0 16 4 31.667 12 47c8.66699 15.333 20.334 26.833 35.001 34.5s29.667 11.5 45 11.5zM180.997 484.003c-4.66699 -18.667 -17 -27.999 -37 -27.999
c-24.667 0 -37 15 -37 45c0 15.333 3.5 27 10.5 35s16.5 12 28.5 12c14.667 0 25.667 -7.66699 33 -23l17 4c-7.33301 23.333 -24 35 -50 35c-18 0 -32.333 -5.33301 -43 -16s-16 -26.334 -16 -47.001c0 -20 5.33301 -35.5 16 -46.5s24.667 -16.5 42 -16.5
c13.333 0 24.833 3.66699 34.5 11s16.167 17.333 19.5 30z" />
    <glyph glyph-name="cedilla" unicode="&#xaa;" horiz-adv-x="987" 
d="M937 478l0.00195312 -395c0 -55.333 -27 -83 -81 -83h-450c-13.333 2 -20 6 -20 12c0 5.33301 3.66699 11.666 11 18.999l93 87c20.667 18.667 39.667 28 57 28h152c23.333 0 35 13.667 35 41v166c0 26 -1.33301 41.333 -4 46c-0.666992 2.66699 -2 4 -4 4
c-4.66699 0 -13.334 -8.33301 -26.001 -25l-403 -378h-243c-16 0.666992 -24 5.33398 -24 14.001c0 6.66699 4.66699 15.667 14 27l464 429c73.333 67.333 144.666 101 213.999 101h116c66 0 99 -31 99 -93z" />
    <glyph glyph-name="FL00ABh" unicode="&#xab;" horiz-adv-x="1047" 
d="M520 375l176 175.002c2 2.66699 5.5 5.16699 10.5 7.5s10.5 4.5 16.5 6.5s11.5 3.66699 16.5 5s8.5 2 10.5 2h243c16 -1.33301 24 -6 24 -14c0 -6.66699 -4.66699 -15.667 -14 -27l-222 -226l222 -263c4 -5.33301 7.33301 -10.333 10 -15s4 -8.66699 4 -12
c0 -8.66699 -8 -13.334 -24 -14.001h-246c-2 0 -5.5 0.666992 -10.5 2s-10.333 3 -16 5s-11 4.16699 -16 6.5s-8.5 4.83301 -10.5 7.5l-174 199c-6.66699 10.667 -12.5 23.167 -17.5 37.5s-7.5 29.166 -7.5 44.499c0 13.333 2.5 25.5 7.5 36.5s10.833 23.167 17.5 36.5z
M55 375.002l176 175.002c2 2.66699 5.5 5.16699 10.5 7.5s10.5 4.5 16.5 6.5s11.5 3.66699 16.5 5s8.5 2 10.5 2h243c16 -1.33301 24 -6 24 -14c0 -6.66699 -4.66699 -15.667 -14 -27l-222 -226l222 -263c4 -5.33301 7.33301 -10.333 10 -15s4 -8.66699 4 -12
c0 -8.66699 -8 -13.334 -24 -14.001h-246c-2 0 -5.5 0.666992 -10.5 2s-10.333 3 -16 5s-11 4.16699 -16 6.5s-8.5 4.83301 -10.5 7.5l-174 199c-6.66699 10.667 -12.5 23.167 -17.5 37.5s-7.5 29.166 -7.5 44.499c0 13.333 2.5 25.5 7.5 36.5s10.833 23.167 17.5 36.5z" />
    <glyph glyph-name="FL00ACh" unicode="&#xac;" horiz-adv-x="671" 
d="M621 88l0.00195312 222.999c0 11.333 -5.33301 21.333 -16 30s-22.334 13 -35.001 13h-469c-12.667 0 -24.334 -4.33301 -35.001 -13s-16 -18.667 -16 -30v-49c0 -10.667 5.5 -20 16.5 -28s22.167 -12 33.5 -12h356c10 0 18 -2.83301 24 -8.5s9 -13.5 9 -23.5v-103
c0 -11.333 4 -22.5 12 -33.5s17.333 -16.5 28 -16.5h49c11.333 0 21.333 5.33301 30 16s13 22.334 13 35.001z" />
    <glyph glyph-name="FL00ADh" unicode="&#xad;" horiz-adv-x="498" 
d="M397 354h-295.998c-12.667 0 -24.334 -4.33301 -35.001 -13s-16 -18.667 -16 -30v-49c0 -10.667 5.5 -20 16.5 -28s22.167 -12 33.5 -12h298c11.333 0 22.5 4 33.5 12s16.5 17.333 16.5 28v49c0 11.333 -5.33301 21.333 -16 30s-22.334 13 -35.001 13z" />
    <glyph glyph-name="registered" unicode="&#xae;" horiz-adv-x="290" 
d="M145 612c-18.667 0 -36.667 -4.66699 -54 -14c-18.667 -10 -32.667 -23.667 -42 -41c-4.66699 -9.33301 -8.33398 -18.5 -11.001 -27.5s-4 -18.5 -4 -28.5c0 -19.333 5 -37.333 15 -54c5.33301 -9.33301 11.333 -17.333 18 -24s14.334 -12.667 23.001 -18
c17.333 -9.33301 35.666 -14 54.999 -14c12.667 0 31 4.66699 55 14c9.33301 5.33301 17.333 11.333 24 18s12.334 14.667 17.001 24c10 16.667 15 34.667 15 54c0 20 -5 38.667 -15 56c-9.33301 17.333 -23.333 31 -42 41c-17.333 9.33301 -35.333 14 -54 14zM145 594
c7.33301 0 14.8301 -0.830078 22.4971 -2.49707s15.167 -4.83398 22.5 -9.50098c8.66699 -4.66699 15.834 -9.83398 21.501 -15.501s10.167 -11.834 13.5 -18.501c8 -15.333 12 -31 12 -47c0 -15.333 -4 -30.333 -12 -45c-10 -16 -21.333 -27.333 -34 -34
c-15.333 -8 -30.666 -12 -45.999 -12c-16 0 -31.333 4 -46 12c-16 10 -27.333 21.333 -34 34c-8 14.667 -12 29.667 -12 45c0 16 4 31.667 12 47c8.66699 15.333 20.334 26.833 35.001 34.5s29.667 11.5 45 11.5zM96.9971 441.003l19 -0.000976562v50h11
c7.33301 0 12.333 -1.33301 15 -4c5.33301 -3.33301 12.333 -12.666 21 -27.999l10 -18h24l-15 23c-5.33301 8.66699 -9.83301 15.167 -13.5 19.5s-8.5 7.83301 -14.5 10.5c10.667 0.666992 19 4.16699 25 10.5s9 13.833 9 22.5c0 6.66699 -2 12.667 -6 18
c-2 4 -6.66699 7.66699 -14 11c-4.66699 2.66699 -15 4 -31 4h-40v-119zM115.997 507.002l-0.000976562 35.999h21c12.667 0 19.334 -0.333008 20.001 -1c7.33301 -3.33301 11 -9 11 -17c0 -5.33301 -2 -9.66602 -6 -12.999s-11.667 -5 -23 -5h-23z" />
    <glyph glyph-name="FL00AFh" unicode="&#xaf;" horiz-adv-x="826" 
d="M725 571h-623.998c-12.667 0 -24.334 -4.33301 -35.001 -13s-16 -18.667 -16 -30v-49c0 -10.667 5.5 -20 16.5 -28s22.167 -12 33.5 -12h626c11.333 0 22.5 4 33.5 12s16.5 17.333 16.5 28v49c0 11.333 -5.33301 21.333 -16 30s-22.334 13 -35.001 13z" />
    <glyph glyph-name="FL00BAh" unicode="&#xb0;" 
d="M674 59c0 -19.333 4.83301 -34 14.5 -44s20.5 -15 32.5 -15h153c10.667 0 21.667 5.16699 33 15.5s17 22.833 17 37.5v406c0 36 -11.667 63.667 -35 83s-53.333 29 -90 29h-624c-36.667 0 -66.667 -9.66699 -90 -29s-35 -47 -35 -83v-406
c0 -14.667 5.66699 -27.167 17 -37.5s22.333 -15.5 33 -15.5h153c12 0 22.833 5 32.5 15s14.5 24.667 14.5 44v304c0 37.333 15 56 45 56h284c30 0 45 -18.667 45 -56v-304z" />
    <glyph glyph-name="FL00B1h" unicode="&#xb1;" horiz-adv-x="671" 
d="M401 221l0.00292969 49.998c0 6.66699 2.66699 14 8 22s12.333 12 21 12h141c11.333 0 22.5 4 33.5 12s16.5 17.333 16.5 28v49c0 11.333 -5.33301 21.333 -16 30s-22.334 13 -35.001 13h-140c-10.667 0 -18.167 3.5 -22.5 10.5s-6.5 14.5 -6.5 22.5v50
c0 12.667 -4.33301 24.334 -13 35.001s-18.667 16 -30 16h-47c-10.667 0 -20.334 -5.5 -29.001 -16.5s-13 -22.167 -13 -33.5v-52c0 -9.33301 -2.83301 -17 -8.5 -23s-13.5 -9 -23.5 -9h-136c-12.667 0 -24.334 -4.33301 -35.001 -13s-16 -18.667 -16 -30v-49
c0 -10.667 5.5 -20 16.5 -28s22.167 -12 33.5 -12h136c10 0 18 -2.83301 24 -8.5s9 -13.5 9 -23.5v-53c0 -11.333 4 -22.5 12 -33.5s17.333 -16.5 28 -16.5h49c11.333 0 21.333 5.33301 30 16s13 22.334 13 35.001zM100.003 -0.00195312h471.002c11.333 0 22.5 4 33.5 12
s16.5 17.333 16.5 28v49c0 11.333 -5.33301 21.333 -16 30s-22.334 13 -35.001 13h-469c-12.667 0 -24.334 -4.33301 -35.001 -13s-16 -18.667 -16 -30v-49c0 -10.667 5.5 -20 16.5 -28s22.167 -12 33.5 -12z" />
    <glyph glyph-name="FL00B2h" unicode="&#xb2;" horiz-adv-x="537" 
d="M50 450l-0.000976562 -68.001c0 -16 6.66699 -29 20 -39s29.666 -15 48.999 -15h343c6 0 11.667 2.16699 17 6.5s8 9.16602 8 14.499v37c0 5.33301 -2.66699 10 -8 14s-11 6 -17 6h-257c-14 0 -21 4.66699 -21 14c0 4.66699 1.5 8.83398 4.5 12.501s8.5 5.5 16.5 5.5h176
c20 0 36.5 5.16699 49.5 15.5s19.5 23.5 19.5 39.5v66c0 16 -6.66699 29 -20 39s-29.666 15 -48.999 15h-308c-6 0 -11.333 -2.16699 -16 -6.5s-7 -9.16602 -7 -14.499v-37c0 -5.33301 2.83301 -10 8.5 -14s11.167 -6 16.5 -6h223c7.33301 0 12.666 -0.833008 15.999 -2.5
s5 -5.5 5 -11.5s-1.66699 -10 -5 -12s-8.66602 -3 -15.999 -3h-179c-19.333 0 -35.666 -5.33301 -48.999 -16s-20 -24 -20 -40z" />
    <glyph glyph-name="FL00B4h" unicode="&#xb3;" horiz-adv-x="537" 
d="M487 559l0.000976562 -176.998c0 -16 -6.66699 -29 -20 -39s-29.333 -15 -48 -15h-343c-6.66699 0 -12.667 2.16699 -18 6.5s-8 9.16602 -8 14.499v37c0 5.33301 2.83301 10 8.5 14s11.167 6 16.5 6h260c8 0 13.5 1 16.5 3s4.5 6.33301 4.5 13c0 6 -1.5 10.5 -4.5 13.5
s-8.5 4.5 -16.5 4.5h-260c-5.33301 0 -10.833 2 -16.5 6s-8.5 8.66699 -8.5 14v23c0 6 2.66699 11.333 8 16s11.333 7 18 7h259c7.33301 0 12.666 0.833008 15.999 2.5s5 5.5 5 11.5s-1.5 10 -4.5 12s-8.5 3 -16.5 3h-260c-5.33301 0 -10.833 2 -16.5 6
s-8.5 8.66699 -8.5 14v37c0 5.33301 2.66699 10.166 8 14.499s11.333 6.5 18 6.5h343c18.667 0 34.667 -5 48 -15s20 -23 20 -39z" />
    <glyph glyph-name="FL00B3h" unicode="&#xb4;" 
d="M924 284c0 -19.333 -4.83203 -34 -14.499 -44s-20.5 -15 -32.5 -15h-153c-10.667 0 -21.667 5.16699 -33 15.5s-17 22.833 -17 37.5v93c0 32 -14.667 48 -44 48h-285c-30 0 -45 -18.667 -45 -56v-154c0 -20 5 -34.5 15 -43.5s24.667 -13.5 44 -13.5h515
c11.333 0 22.5 -4 33.5 -12s16.5 -17.333 16.5 -28v-69c0 -11.333 -5.33301 -21.333 -16 -30s-22.334 -13 -35.001 -13h-686c-18.667 0 -36.334 2.66699 -53.001 8s-31.167 12.833 -43.5 22.5s-22.166 21.167 -29.499 34.5s-11 28 -11 44v350c0 36 11.667 63.667 35 83
s53.333 29 90 29h624c38 0 68.333 -8.5 91 -25.5s34 -42.833 34 -77.5v-184z" />
    <glyph glyph-name="FL00B5h" unicode="&#xb5;" horiz-adv-x="1084" 
d="M300 155c0.666992 0 3.16992 0.99707 7.50293 2.99707s9.66602 4.83301 15.999 8.5s11.166 6.83398 14.499 9.50098l391 374c2 2.66699 5.5 5.16699 10.5 7.5s10.5 4.5 16.5 6.5s11.5 3.66699 16.5 5s8.5 2 10.5 2h247c16 -1.33301 24 -6 24 -14
c0 -6.66699 -4.66699 -15.667 -14 -27l-383 -378h347c11.333 0 22.5 -4 33.5 -12s16.5 -17.333 16.5 -28v-69c0 -11.333 -5.33301 -21.333 -16 -30s-22.334 -13 -35.001 -13h-855c-65.333 0 -98 30.667 -98 92v370c0 16 3.66699 30.667 11 44s17.166 24.833 29.499 34.5
s26.833 17.167 43.5 22.5s34.334 8 53.001 8h392c5.33301 0 9.83301 -0.833008 13.5 -2.5s5.5 -5.16699 5.5 -10.5c0 -1.33301 -1.66699 -4.16602 -5 -8.49902s-5.66602 -7.16602 -6.99902 -8.49902l-86 -86c-4 -4 -8.5 -8 -13.5 -12s-10.333 -7.83301 -16 -11.5
s-11.334 -6.66699 -17.001 -9s-10.5 -3.5 -14.5 -3.5h-80c-39.333 0 -59 -20 -59 -60v-204z" />
    <glyph glyph-name="r" unicode="&#xb6;" horiz-adv-x="956" 
d="M50 462c0 16 3.66699 30.668 11 44.001s17.166 24.833 29.499 34.5s26.833 17.167 43.5 22.5s34.334 8 53.001 8h713c16 -1.33301 24 -6 24 -14c0 -6.66699 -4.66699 -15.667 -14 -27l-220 -226l222 -263c4 -5.33301 7.33301 -10.333 10 -15s4 -8.66699 4 -12
c0 -8.66699 -8 -13.334 -24 -14.001h-226c-2 0 -5.5 0.666992 -10.5 2s-10.333 3 -16 5s-11 4.16699 -16 6.5s-8.5 4.83301 -10.5 7.5l-266 283l125 84c7.33301 7.33301 11 14 11 20c0 5.33301 -3.66699 9 -11 11h-138c-29.333 0 -44 -10.667 -44 -32v-331
c0 -15.333 -4.83301 -28.5 -14.5 -39.5s-20.5 -16.5 -32.5 -16.5h-157c-10.667 0 -21 5.66699 -31 17s-15 24.333 -15 39v406z" />
    <glyph glyph-name="FL00B7h" unicode="&#xb7;" horiz-adv-x="350" 
d="M100 211h150.002c11.333 0 22.5 4 33.5 12s16.5 17.333 16.5 28v69c0 11.333 -5.33301 21.333 -16 30s-22.334 13 -35.001 13h-148c-12.667 0 -24.334 -4.33301 -35.001 -13s-16 -18.667 -16 -30v-69c0 -10.667 5.5 -20 16.5 -28s22.167 -12 33.5 -12z" />
    <glyph glyph-name="FL00B8h" unicode="&#xb8;" horiz-adv-x="1104" 
d="M300 155c0.666992 0 3.16992 0.999023 7.50293 2.99902s9.66602 4.83301 15.999 8.5s11.166 6.83398 14.499 9.50098l391 374c2 2.66699 5.5 5.16699 10.5 7.5s10.5 4.5 16.5 6.5s11.5 3.66699 16.5 5s8.5 2 10.5 2h247c16 -1.33301 24 -6 24 -14
c0 -6.66699 -4.66699 -15.667 -14 -27l-383 -378h347c11.333 0 22.5 -4 33.5 -12s16.5 -17.333 16.5 -28v-69c0 -11.333 -5.33301 -21.333 -16 -30s-22.334 -13 -35.001 -13h-855c-65.333 0 -98 30.667 -98 92v426c0 14.667 5.66699 27.167 17 37.5s22.333 15.5 33 15.5h153
c12 0 22.833 -5 32.5 -15s14.5 -24.667 14.5 -44v-357z" />
    <glyph glyph-name="FL00B9h" unicode="&#xb9;" horiz-adv-x="334" 
d="M284 567v-215.998c0 -11.333 -4.33301 -18 -13 -20s-16 -3 -22 -3h-92c-6.66699 0 -12.5 2.66699 -17.5 8s-7.5 10.666 -7.5 15.999v183h-57c-5.33301 0 -10.833 2 -16.5 6s-8.5 8.66699 -8.5 14v37c0 5.33301 2.66699 10.166 8 14.499s11.333 6.5 18 6.5h146
c18.667 0 33.667 -3.66699 45 -11s17 -19 17 -35z" />
    <glyph glyph-name="FL00BCh" unicode="&#xba;" horiz-adv-x="537" 
d="M113 328h311.998c18 0 32.833 4.83301 44.5 14.5s17.5 23.5 17.5 41.5v175c0 16 -6.66699 29 -20 39s-29.333 15 -48 15h-300c-19.333 0 -35.666 -5 -48.999 -15s-20 -23 -20 -39v-175c0 -18 5.83301 -31.833 17.5 -41.5s26.834 -14.5 45.501 -14.5zM306.998 527
c19.333 0 29 -9.33301 29 -28v-57c0 -18.667 -7.33301 -28 -22 -28h-90c-15.333 0 -23 9.33301 -23 28v57c0 18.667 10 28 30 28h76z" />
    <glyph glyph-name="FL00BBh" unicode="&#xbb;" horiz-adv-x="1047" 
d="M526 375l-176 175.002c-2 2.66699 -5.5 5.16699 -10.5 7.5s-10.5 4.5 -16.5 6.5s-11.5 3.66699 -16.5 5s-8.5 2 -10.5 2h-243c-16 -1.33301 -24 -6 -24 -14c0 -6.66699 4.66699 -15.667 14 -27l222 -226l-222 -263c-4 -5.33301 -7.33301 -10.333 -10 -15
s-4 -8.66699 -4 -12c0 -8.66699 8 -13.334 24 -14.001h246c2 0 5.5 0.666992 10.5 2s10.333 3 16 5s11 4.16699 16 6.5s8.5 4.83301 10.5 7.5l174 199c6.66699 10.667 12.5 23.167 17.5 37.5s7.5 29.166 7.5 44.499c0 13.333 -2.5 25.5 -7.5 36.5s-10.833 23.167 -17.5 36.5
zM991 375.002l-176 175.002c-2 2.66699 -5.5 5.16699 -10.5 7.5s-10.5 4.5 -16.5 6.5s-11.5 3.66699 -16.5 5s-8.5 2 -10.5 2h-243c-16 -1.33301 -24 -6 -24 -14c0 -6.66699 4.66699 -15.667 14 -27l222 -226l-222 -263c-4 -5.33301 -7.33301 -10.333 -10 -15
s-4 -8.66699 -4 -12c0 -8.66699 8 -13.334 24 -14.001h246c2 0 5.5 0.666992 10.5 2s10.333 3 16 5s11 4.16699 16 6.5s8.5 4.83301 10.5 7.5l174 199c6.66699 10.667 12.5 23.167 17.5 37.5s7.5 29.166 7.5 44.499c0 13.333 -2.5 25.5 -7.5 36.5s-10.833 23.167 -17.5 36.5
z" />
    <glyph glyph-name="FL00BEh" unicode="&#xbc;" horiz-adv-x="999" 
d="M969 285l-6.99902 13.002l-104 63l64 21h8l-8 16l-148 36l52 44h-175l11 52l-167 -29l-5 44l-14 7l-118 -67l-51 45l-69 -87c-8 -2.66699 -13.333 -4 -16 -4c-16.667 0 -38.334 10.333 -65.001 31l-10 -102l-85 6l6 -29l45 -67l-83 -7l110 -66l-72 -37l156 -40l-52 -42
l182 -8l-20 -52l161 37l20 -29l-7 -28l131 72l59 -44l63 89l84 -31l6 105l86 -17c0 3.33301 0.166992 5.66602 0.5 6.99902s0.5 1.66602 0.5 0.999023c0 15.333 -17.333 45.333 -52 90zM842.001 336.002l-14 -95l-19 4l5 101zM832.001 201.002l-19 -21l-14 16l15 13z
M783.001 208.002c-18.667 0 -42 21.667 -70 65v-64l-19 -2v129l64 -82l5 92l20 -9v-129zM676.001 209.002l-15.998 6.00098c-8 20 -17.333 30 -28 30c-4 0 -8.5 -2.5 -13.5 -7.5s-9.83301 -12.5 -14.5 -22.5h-24c4 40.667 20 84 48 130c0.666992 2.66699 6 4 16 4
c7.33301 0 13.166 -3.83301 17.499 -11.5s9.16602 -17.834 14.499 -30.501v-98zM567.003 346.003l-5 -129l-28 -10l12 132zM513.003 204.003c-18.667 0 -42 20.667 -70 62v-61l-20 -4v130l69 -82v90l21 -8v-127zM411.003 295.003c-8 -60.667 -23 -91 -45 -91l-7.5 -1.5
l-2.5 -0.5h-9c-20.667 0 -34 7.33301 -40 22c0 56 15 93.667 45 113c2 0 3.16699 0.166992 3.5 0.5l0.5 0.5h6c26 0 42.333 -14.333 49 -43zM300.003 343.003l-2.00098 -31.999c-3.33301 1.33301 -5.66602 2.16602 -6.99902 2.49902s-3.33301 0.5 -6 0.5
c-10 0 -20.333 -6.33301 -31 -19c-11.333 -17.333 -17 -35 -17 -53c0 -16.667 8 -25 24 -25h14c4 0 6.66699 0.666992 8 2l2 -22c-5.33301 -0.666992 -9.83301 -1.66699 -13.5 -3s-7.16699 -2 -10.5 -2c-22.667 0 -37.334 19 -44.001 57c-0.666992 0.666992 -1 4 -1 10v7
c0 21.333 6.83301 38 20.5 50s34.834 21 63.501 27zM204.002 339.004l-6 -128l-26 -10l12 132zM653.002 273.004l-13 43l-24 -43h37zM389.002 277.004c0 6.66699 -1.00098 11.668 -3.00098 15.001c-7.33301 11.333 -15 17 -23 17c-5.33301 0 -11.166 -3.5 -17.499 -10.5
s-11.5 -17.833 -15.5 -32.5v-8c0 -21.333 6.33301 -32 19 -32c6 0 15.667 3.66699 29 11c7.33301 13.333 11 26.666 11 39.999z" />
    <glyph glyph-name="FL00BDh" unicode="&#xbd;" horiz-adv-x="1159" 
d="M284 309v215.998c0 16 -5.66699 27.667 -17 35s-26.333 11 -45 11h-146c-6.66699 0 -12.667 -2.16699 -18 -6.5s-8 -9.16602 -8 -14.499v-37c0 -5.33301 2.83301 -10 8.5 -14s11.167 -6 16.5 -6h57v-183c0 -5.33301 2.5 -10.666 7.5 -15.999s10.833 -8 17.5 -8h92
c6 0 13.333 1 22 3s13 8.66699 13 20zM599 549.998l-515.999 -508.999c-4 -5.33301 -7.33301 -10.333 -10 -15s-4 -8.66699 -4 -12c0 -8.66699 8 -13.334 24 -14.001h237c2 0 5.16699 0.666992 9.5 2s8.66602 3 12.999 5s8.5 4.16699 12.5 6.5s7 4.83301 9 7.5l516 509
c4 5.33301 7.33301 10.333 10 15s4 8.66699 4 12c0 8 -8 12.667 -24 14h-225c-2 0 -5.66699 -0.666992 -11 -2s-11 -3 -17 -5s-11.667 -4.16699 -17 -6.5s-9 -4.83301 -11 -7.5zM672.001 121.999l-0.000976562 -68.001c0 -16 6.66699 -29 20 -39s29.666 -15 48.999 -15h343
c6 0 11.667 2.16699 17 6.5s8 9.16602 8 14.499v37c0 5.33301 -2.66699 10 -8 14s-11 6 -17 6h-234c-14 0 -21 4.66699 -21 14c0 4.66699 1.5 8.83398 4.5 12.501s8.5 5.5 16.5 5.5h153c20 0 36.5 5.16699 49.5 15.5s19.5 23.5 19.5 39.5v66c0 16 -6.66699 29 -20 39
s-29.666 15 -48.999 15h-308c-6 0 -11.333 -2.16699 -16 -6.5s-7 -9.16602 -7 -14.499v-37c0 -5.33301 2.83301 -10 8.5 -14s11.167 -6 16.5 -6h196c7.33301 0 12.666 -0.833008 15.999 -2.5s5 -5.5 5 -11.5s-1.66699 -10 -5 -12s-8.66602 -3 -15.999 -3h-152
c-19.333 0 -35.666 -5.33301 -48.999 -16s-20 -24 -20 -40z" />
    <glyph glyph-name="FL0892h" unicode="&#xbe;" horiz-adv-x="770" 
d="M720 336l-14 -95l-19 4l5 101zM710 201l-19 -21l-14 16l15 13zM661 208c-18.667 0 -42 21.667 -70 65v-64l-19 -2v129l64 -82l5 92l20 -9v-129zM554 209l-15.998 6.00098c-8 20 -17.333 30 -28 30c-4 0 -8.5 -2.5 -13.5 -7.5s-9.83301 -12.5 -14.5 -22.5h-24
c4 40.667 20 84 48 130c0.666992 2.66699 6 4 16 4c7.33301 0 13.166 -3.83301 17.499 -11.5s9.16602 -17.834 14.499 -30.501v-98zM445.002 346.001l-5 -129l-28 -10l12 132zM391.002 204.001c-18.667 0 -42 20.667 -70 62v-61l-20 -4v130l69 -82v90l21 -8v-127z
M289.002 295.001c-8 -60.667 -23 -91 -45 -91l-7.5 -1.5l-2.5 -0.5h-9c-20.667 0 -34 7.33301 -40 22c0 56 15 93.667 45 113c2 0 3.16699 0.166992 3.5 0.5l0.5 0.5h6c26 0 42.333 -14.333 49 -43zM178.002 343.001l-2.00098 -31.999
c-3.33301 1.33301 -5.66602 2.16602 -6.99902 2.49902s-3.33301 0.5 -6 0.5c-10 0 -20.333 -6.33301 -31 -19c-11.333 -17.333 -17 -35 -17 -53c0 -16.667 8 -25 24 -25h14c4 0 6.66699 0.666992 8 2l2 -22c-5.33301 -0.666992 -9.83301 -1.66699 -13.5 -3
s-7.16699 -2 -10.5 -2c-22.667 0 -37.334 19 -44.001 57c-0.666992 0.666992 -1 4 -1 10v7c0 21.333 6.83301 38 20.5 50s34.834 21 63.501 27zM82.001 339.002l-6 -128l-26 -10l12 132zM531.001 273.002l-13 43l-24 -43h37zM267.001 277.002
c0 6.66699 -1.00098 11.668 -3.00098 15.001c-7.33301 11.333 -15 17 -23 17c-5.33301 0 -11.166 -3.5 -17.499 -10.5s-11.5 -17.833 -15.5 -32.5v-8c0 -21.333 6.33301 -32 19 -32c6 0 15.667 3.66699 29 11c7.33301 13.333 11 26.666 11 39.999z" />
    <glyph glyph-name="FL00BFh" unicode="&#xbf;" 
d="M50 240l-0.00390625 -131.001c0 -16 3.66699 -30.667 11 -44s17.166 -24.833 29.499 -34.5s26.833 -17.167 43.5 -22.5s34.334 -8 53.001 -8h686c12.667 0 24.334 4.33301 35.001 13s16 18.667 16 30v69c0 10.667 -5.5 20 -16.5 28s-22.167 12 -33.5 12h-530
c-15.333 0 -26.166 2.5 -32.499 7.5s-9.5 13.167 -9.5 24.5c0 12.667 3.33301 21.334 10 26.001s17.334 7 32.001 7h399c12.667 0 24.334 4.33301 35.001 13s16 18.667 16 30v49c0 10.667 -5.5 20 -16.5 28s-22.167 12 -33.5 12h-557c-18.667 0 -36.334 -2.66699 -53.001 -8
s-31.167 -12.833 -43.5 -22.5s-22.166 -21.167 -29.499 -34.5s-11 -28 -11 -44zM743.996 570.999h-150.002c-11.333 0 -22.5 -4 -33.5 -12s-16.5 -17.333 -16.5 -28v-69c0 -11.333 5.33301 -21.333 16 -30s22.334 -13 35.001 -13h148c12.667 0 24.334 4.33301 35.001 13
s16 18.667 16 30v69c0 10.667 -5.5 20 -16.5 28s-22.167 12 -33.5 12z" />
    <glyph glyph-name="FL00C0h" unicode="&#xc0;" horiz-adv-x="1084" 
d="M300 212l0.00195312 204.002c0.666992 0 3.16699 -1 7.5 -3s9.66602 -4.83301 15.999 -8.5s11.166 -6.83398 14.499 -9.50098l389 -374c2 -2.66699 5.5 -5.16699 10.5 -7.5s10.5 -4.5 16.5 -6.5s11.5 -3.66699 16.5 -5s8.5 -2 10.5 -2h249
c16 0.666992 24 5.33398 24 14.001c0 3.33301 -1.33301 7.33301 -4 12s-6 9.66699 -10 15l-434 429c-37.333 36.667 -72.5 62.667 -105.5 78s-67.5 23 -103.5 23h-249c-65.333 0 -98 -30.667 -98 -92v-370c0 -16 3.66699 -30.667 11 -44s17.166 -24.833 29.499 -34.5
s26.833 -17.167 43.5 -22.5s34.334 -8 53.001 -8h392c5.33301 0 9.83301 0.833008 13.5 2.5s5.5 5.16699 5.5 10.5c0 1.33301 -1.66699 4.16602 -5 8.49902s-5.66602 7.16602 -6.99902 8.49902l-86 86c-4 4 -8.5 8 -13.5 12s-10.333 7.83301 -16 11.5
s-11.334 6.66699 -17.001 9s-10.5 3.5 -14.5 3.5h-80c-39.333 0 -59 20 -59 60zM435.002 658.002l-27.998 46.998c-9.33301 15.333 -18.833 27.833 -28.5 37.5s-20.834 14.834 -33.501 15.501l-9 1h-139c-9.33301 0 -19.5 -3.16699 -30.5 -9.5s-16.5 -13.166 -16.5 -20.499
c0 -3.33301 0.333008 -5.33301 1 -6c7.33301 -12.667 15.666 -25 24.999 -37s20 -22.667 32 -32s25.5 -16.833 40.5 -22.5s31.833 -8.5 50.5 -8.5h120c12.667 0 19 7 19 21c0 4 -1 8.66699 -3 14z" />
    <glyph glyph-name="FL00C1h" unicode="&#xc1;" horiz-adv-x="1084" 
d="M300 212l0.00195312 204.002c0.666992 0 3.16699 -1 7.5 -3s9.66602 -4.83301 15.999 -8.5s11.166 -6.83398 14.499 -9.50098l389 -374c2 -2.66699 5.5 -5.16699 10.5 -7.5s10.5 -4.5 16.5 -6.5s11.5 -3.66699 16.5 -5s8.5 -2 10.5 -2h249
c16 0.666992 24 5.33398 24 14.001c0 3.33301 -1.33301 7.33301 -4 12s-6 9.66699 -10 15l-434 429c-37.333 36.667 -72.5 62.667 -105.5 78s-67.5 23 -103.5 23h-249c-65.333 0 -98 -30.667 -98 -92v-370c0 -16 3.66699 -30.667 11 -44s17.166 -24.833 29.499 -34.5
s26.833 -17.167 43.5 -22.5s34.334 -8 53.001 -8h392c5.33301 0 9.83301 0.833008 13.5 2.5s5.5 5.16699 5.5 10.5c0 1.33301 -1.66699 4.16602 -5 8.49902s-5.66602 7.16602 -6.99902 8.49902l-86 86c-4 4 -8.5 8 -13.5 12s-10.333 7.83301 -16 11.5
s-11.334 6.66699 -17.001 9s-10.5 3.5 -14.5 3.5h-80c-39.333 0 -59 20 -59 60zM223.002 705.002l-27.998 -46.998c-2 -5.33301 -3 -10 -3 -14c0 -14 6.33301 -21 19 -21h120c18.667 0 35.5 2.83301 50.5 8.5s28.5 13.167 40.5 22.5s22.667 20 32 32
s17.666 24.333 24.999 37c0.666992 0.666992 1 2.66699 1 6c0 7.33301 -5.5 14.166 -16.5 20.499s-21.167 9.5 -30.5 9.5h-139l-9 -1c-12.667 -0.666992 -23.834 -5.83398 -33.501 -15.501s-19.167 -22.167 -28.5 -37.5z" />
    <glyph glyph-name="FL00C2h" unicode="&#xc2;" horiz-adv-x="1084" 
d="M300 416l-0.00195312 -204.002c0 -40 19.667 -60 59 -60h80c4 0 8.83301 -1.16699 14.5 -3.5s11.334 -5.33301 17.001 -9s11 -7.5 16 -11.5s9.5 -8 13.5 -12l86 -86c1.33301 -1.33301 3.66602 -4.16602 6.99902 -8.49902s5 -7.16602 5 -8.49902
c0 -5.33301 -1.83301 -8.83301 -5.5 -10.5s-8.16699 -2.5 -13.5 -2.5h-392c-18.667 0 -36.334 2.66699 -53.001 8s-31.167 12.833 -43.5 22.5s-22.166 21.167 -29.499 34.5s-11 28 -11 44v370c0 61.333 32.667 92 98 92h249c36 0 70.5 -7.66699 103.5 -23
s68.167 -41.333 105.5 -78l434 -429c4 -5.33301 7.33301 -10.333 10 -15s4 -8.66699 4 -12c0 -8.66699 -8 -13.334 -24 -14.001h-249c-2 0 -5.5 0.666992 -10.5 2s-10.5 3 -16.5 5s-11.5 4.16699 -16.5 6.5s-8.5 4.83301 -10.5 7.5l-389 374
c-3.33301 2.66699 -8.16602 5.83398 -14.499 9.50098s-11.666 6.5 -15.999 8.5s-6.83301 3 -7.5 3zM246.998 622.998h-138.999c-9.33301 0 -19.5 3.16699 -30.5 9.5s-16.5 13.166 -16.5 20.499c0 3.33301 0.333008 5.33301 1 6c7.33301 12.667 15.666 25 24.999 37
s20 22.667 32 32s25.5 16.833 40.5 22.5s31.833 8.5 50.5 8.5h212c18.667 0 35.5 -2.83301 50.5 -8.5s28.5 -13.167 40.5 -22.5s22.667 -20 32 -32s17.666 -24.333 24.999 -37c0.666992 -0.666992 1 -2.66699 1 -6c0 -7.33301 -5.5 -14.166 -16.5 -20.499
s-21.167 -9.5 -30.5 -9.5h-139c-4.66699 0 -7.66699 0.333008 -9 1c-20.667 4 -40.667 21.667 -60 53c-10 -18 -21.167 -31.5 -33.5 -40.5s-24.166 -13.5 -35.499 -13.5z" />
    <glyph glyph-name="FL00C3h" unicode="&#xc3;" horiz-adv-x="1084" 
d="M300 416l-0.00195312 -204.002c0 -40 19.667 -60 59 -60h80c4 0 8.83301 -1.16699 14.5 -3.5s11.334 -5.33301 17.001 -9s11 -7.5 16 -11.5s9.5 -8 13.5 -12l86 -86c1.33301 -1.33301 3.66602 -4.16602 6.99902 -8.49902s5 -7.16602 5 -8.49902
c0 -5.33301 -1.83301 -8.83301 -5.5 -10.5s-8.16699 -2.5 -13.5 -2.5h-392c-18.667 0 -36.334 2.66699 -53.001 8s-31.167 12.833 -43.5 22.5s-22.166 21.167 -29.499 34.5s-11 28 -11 44v370c0 61.333 32.667 92 98 92h249c36 0 70.5 -7.66699 103.5 -23
s68.167 -41.333 105.5 -78l434 -429c4 -5.33301 7.33301 -10.333 10 -15s4 -8.66699 4 -12c0 -8.66699 -8 -13.334 -24 -14.001h-249c-2 0 -5.5 0.666992 -10.5 2s-10.5 3 -16.5 5s-11.5 4.16699 -16.5 6.5s-8.5 4.83301 -10.5 7.5l-389 374
c-3.33301 2.66699 -8.16602 5.83398 -14.499 9.50098s-11.666 6.5 -15.999 8.5s-6.83301 3 -7.5 3zM376.998 622.998c-11.333 0 -23.166 4.50098 -35.499 13.501s-23.5 22.5 -33.5 40.5c-19.333 -31.333 -39.333 -49 -60 -53c-1.33301 -0.666992 -4.33301 -1 -9 -1h-129
c-9.33301 0 -19.5 3.16699 -30.5 9.5s-16.5 13.166 -16.5 20.499v4c0 2 0.333008 3.33301 1 4c14.667 26 33.667 48.833 57 68.5s53.666 29.5 90.999 29.5h187c11.333 0 23.166 -4.5 35.499 -13.5s23.5 -22.5 33.5 -40.5c19.333 31.333 39.333 49 60 53
c1.33301 0.666992 4.33301 1 9 1h129c10 0 20.333 -3.5 31 -10.5s16 -14.167 16 -21.5c0 -3.33301 -0.333008 -5.33301 -1 -6c-7.33301 -13.333 -15.666 -25.833 -24.999 -37.5s-20 -22 -32 -31s-25.5 -16.167 -40.5 -21.5s-31.833 -8 -50.5 -8h-187z" />
    <glyph glyph-name="FL00C4h" unicode="&#xc4;" horiz-adv-x="1084" 
d="M300 212l0.00195312 204.002c0.666992 0 3.16699 -1 7.5 -3s9.66602 -4.83301 15.999 -8.5s11.166 -6.83398 14.499 -9.50098l389 -374c2 -2.66699 5.5 -5.16699 10.5 -7.5s10.5 -4.5 16.5 -6.5s11.5 -3.66699 16.5 -5s8.5 -2 10.5 -2h249
c16 0.666992 24 5.33398 24 14.001c0 3.33301 -1.33301 7.33301 -4 12s-6 9.66699 -10 15l-434 429c-37.333 36.667 -72.5 62.667 -105.5 78s-67.5 23 -103.5 23h-249c-65.333 0 -98 -30.667 -98 -92v-370c0 -16 3.66699 -30.667 11 -44s17.166 -24.833 29.499 -34.5
s26.833 -17.167 43.5 -22.5s34.334 -8 53.001 -8h392c5.33301 0 9.83301 0.833008 13.5 2.5s5.5 5.16699 5.5 10.5c0 1.33301 -1.66699 4.16602 -5 8.49902s-5.66602 7.16602 -6.99902 8.49902l-86 86c-4 4 -8.5 8 -13.5 12s-10.333 7.83301 -16 11.5
s-11.334 6.66699 -17.001 9s-10.5 3.5 -14.5 3.5h-80c-39.333 0 -59 20 -59 60zM102.002 623.002h139c11.333 0 22 3.66699 32 11s15 15.666 15 24.999v61c0 11.333 -5 20.666 -15 27.999s-21 11 -33 11h-137c-11.333 0 -22 -3.66699 -32 -11s-15 -16.666 -15 -27.999v-61
c0 -9.33301 5 -17.666 15 -24.999s20.333 -11 31 -11zM379.002 623.002h139c10.667 0 21 3.66699 31 11s15 15.666 15 24.999v61c0 11.333 -5 20.666 -15 27.999s-20.667 11 -32 11h-137c-12 0 -23 -3.66699 -33 -11s-15 -16.666 -15 -27.999v-61
c0 -9.33301 5 -17.666 15 -24.999s20.667 -11 32 -11z" />
    <glyph glyph-name="FL00C5h" unicode="&#xc5;" horiz-adv-x="1084" 
d="M369 623h-139c-11.333 0 -22 3.66699 -32 11s-15 15.666 -15 24.999v61c0 11.333 5 20.666 15 27.999s21 11 33 11h137c11.333 0 22 -3.66699 32 -11s15 -16.666 15 -27.999v-61c0 -9.33301 -5 -17.666 -15 -24.999s-20.333 -11 -31 -11zM300 416l-0.00195312 -204.002
c0 -40 19.667 -60 59 -60h80c4 0 8.83301 -1.16699 14.5 -3.5s11.334 -5.33301 17.001 -9s11 -7.5 16 -11.5s9.5 -8 13.5 -12l86 -86c1.33301 -1.33301 3.66602 -4.16602 6.99902 -8.49902s5 -7.16602 5 -8.49902c0 -5.33301 -1.83301 -8.83301 -5.5 -10.5
s-8.16699 -2.5 -13.5 -2.5h-392c-18.667 0 -36.334 2.66699 -53.001 8s-31.167 12.833 -43.5 22.5s-22.166 21.167 -29.499 34.5s-11 28 -11 44v370c0 61.333 32.667 92 98 92h249c36 0 70.5 -7.66699 103.5 -23s68.167 -41.333 105.5 -78l434 -429
c4 -5.33301 7.33301 -10.333 10 -15s4 -8.66699 4 -12c0 -8.66699 -8 -13.334 -24 -14.001h-249c-2 0 -5.5 0.666992 -10.5 2s-10.5 3 -16.5 5s-11.5 4.16699 -16.5 6.5s-8.5 4.83301 -10.5 7.5l-389 374c-3.33301 2.66699 -8.16602 5.83398 -14.499 9.50098
s-11.666 6.5 -15.999 8.5s-6.83301 3 -7.5 3zM276.998 667.998h42.998c4.66699 0 9.16699 1.5 13.5 4.5s6.5 6.5 6.5 10.5v14c0 4.66699 -2.16699 8.5 -6.5 11.5s-9.16602 4.5 -14.499 4.5h-41c-5.33301 0 -10.166 -1.5 -14.499 -4.5s-6.5 -6.83301 -6.5 -11.5v-14
c0 -4 2.16699 -7.5 6.5 -10.5s8.83301 -4.5 13.5 -4.5z" />
    <glyph glyph-name="FL00C6h" unicode="&#xc6;" horiz-adv-x="1605" 
d="M681 462c0 16 3.66504 30.666 10.998 43.999s17.166 24.833 29.499 34.5s26.833 17.167 43.5 22.5s34.334 8 53.001 8h686c12.667 0 24.334 -4.33301 35.001 -13s16 -18.667 16 -30v-69c0 -10.667 -5.5 -20 -16.5 -28s-22.167 -12 -33.5 -12h-530
c-15.333 0 -26.166 -2.5 -32.499 -7.5s-9.5 -13.167 -9.5 -24.5c0 -12.667 3.33301 -21.334 10 -26.001s17.334 -7 32.001 -7h529c12.667 0 24.334 -4.33301 35.001 -13s16 -18.667 16 -30v-49c0 -10.667 -5.5 -20 -16.5 -28s-22.167 -12 -33.5 -12h-530
c-15.333 0 -26 -2.83301 -32 -8.5s-9.33301 -14.834 -10 -27.501c0 -12.667 3.16699 -21.5 9.5 -26.5s17.166 -7.5 32.499 -7.5h530c11.333 0 22.5 -4 33.5 -12s16.5 -17.333 16.5 -28v-69c0 -11.333 -5.33301 -21.333 -16 -30s-22.334 -13 -35.001 -13h-723
c-2 0 -5.5 0.666992 -10.5 2s-10.5 3 -16.5 5s-11.5 4.16699 -16.5 6.5s-8.5 4.83301 -10.5 7.5l-389 374c-6.66699 4.66699 -14.667 9.33398 -24 14.001l-14 7v-204c0 -40 19.667 -60 59 -60h80c4 0 8.83301 -1.16699 14.5 -3.5s11.334 -5.33301 17.001 -9
s11 -7.5 16 -11.5s9.5 -8 13.5 -12l86 -86c1.33301 -1.33301 3.66602 -4.16602 6.99902 -8.49902s5 -7.16602 5 -8.49902c0 -5.33301 -1.83301 -8.83301 -5.5 -10.5s-8.16699 -2.5 -13.5 -2.5h-392c-18.667 0 -36.334 2.66699 -53.001 8s-31.167 12.833 -43.5 22.5
s-22.166 21.167 -29.499 34.5s-11 28 -11 44v370c0 61.333 32.667 92 98 92h249c36 0 70.5 -7.66699 103.5 -23s68.167 -41.333 105.5 -78l75 -74v66z" />
    <glyph glyph-name="FL00C7h" unicode="&#xc7;" 
d="M630 -118c0 -12.667 -4.33398 -24.333 -13.001 -35s-18.667 -16 -30 -16h-171c-11.333 0 -22.5 4 -33.5 12s-16.5 17.333 -16.5 28v45c0 11.333 5.33301 21.333 16 30s22.334 13 35.001 13h53c10 0 17.833 3 23.5 9s8.5 13.667 8.5 23v9h-315
c-18.667 0 -36.334 2.66699 -53.001 8s-31.167 12.833 -43.5 22.5s-22.166 21.167 -29.499 34.5s-11 28 -11 44v353c0 16 3.66699 30.667 11 44s17.166 24.833 29.499 34.5s26.833 17.167 43.5 22.5s34.334 8 53.001 8h686c12.667 0 24.334 -4.33301 35.001 -13
s16 -18.667 16 -30v-69c0 -10.667 -5.5 -20 -16.5 -28s-22.167 -12 -33.5 -12h-515c-19.333 0 -34 -4.5 -44 -13.5s-15 -23.5 -15 -43.5v-154c0 -20 5 -34.333 15 -43s24.667 -13 44 -13h515c11.333 0 22.5 -4 33.5 -12s16.5 -17.333 16.5 -28v-69
c0 -11.333 -5.33301 -21.333 -16 -30s-22.334 -13 -35.001 -13h-243v-118z" />
    <glyph glyph-name="FL00C8h" unicode="&#xc8;" 
d="M50 109l-0.00195312 353.002c0 16 3.66699 30.667 11 44s17.166 24.833 29.499 34.5s26.833 17.167 43.5 22.5s34.334 8 53.001 8h686c12.667 0 24.334 -4.33301 35.001 -13s16 -18.667 16 -30v-69c0 -10.667 -5.5 -20 -16.5 -28s-22.167 -12 -33.5 -12h-530
c-15.333 0 -26.166 -2.5 -32.499 -7.5s-9.5 -13.167 -9.5 -24.5c0 -12.667 3.33301 -21.334 10 -26.001s17.334 -7 32.001 -7h529c12.667 0 24.334 -4.33301 35.001 -13s16 -18.667 16 -30v-49c0 -10.667 -5.5 -20 -16.5 -28s-22.167 -12 -33.5 -12h-530
c-15.333 0 -26 -2.83301 -32 -8.5s-9.33301 -14.834 -10 -27.501c0 -12.667 3.16699 -21.5 9.5 -26.5s17.166 -7.5 32.499 -7.5h530c11.333 0 22.5 -4 33.5 -12s16.5 -17.333 16.5 -28v-69c0 -11.333 -5.33301 -21.333 -16 -30s-22.334 -13 -35.001 -13h-686
c-18.667 0 -36.334 2.66699 -53.001 8s-31.167 12.833 -43.5 22.5s-22.166 21.167 -29.499 34.5s-11 28 -11 44zM592.998 705.002l27.998 -46.998c2 -5.33301 3 -10 3 -14c0 -14 -6.33301 -21 -19 -21h-120c-18.667 0 -35.5 2.83301 -50.5 8.5s-28.5 13.167 -40.5 22.5
s-22.667 20 -32 32s-17.666 24.333 -24.999 37c-0.666992 0.666992 -1 2.66699 -1 6c0 7.33301 5.5 14.166 16.5 20.499s21.167 9.5 30.5 9.5h139l9 -1c12.667 -0.666992 23.834 -5.83398 33.501 -15.501s19.167 -22.167 28.5 -37.5z" />
    <glyph glyph-name="FL00C9h" unicode="&#xc9;" 
d="M50 109l-0.00195312 353.002c0 16 3.66699 30.667 11 44s17.166 24.833 29.499 34.5s26.833 17.167 43.5 22.5s34.334 8 53.001 8h686c12.667 0 24.334 -4.33301 35.001 -13s16 -18.667 16 -30v-69c0 -10.667 -5.5 -20 -16.5 -28s-22.167 -12 -33.5 -12h-530
c-15.333 0 -26.166 -2.5 -32.499 -7.5s-9.5 -13.167 -9.5 -24.5c0 -12.667 3.33301 -21.334 10 -26.001s17.334 -7 32.001 -7h529c12.667 0 24.334 -4.33301 35.001 -13s16 -18.667 16 -30v-49c0 -10.667 -5.5 -20 -16.5 -28s-22.167 -12 -33.5 -12h-530
c-15.333 0 -26 -2.83301 -32 -8.5s-9.33301 -14.834 -10 -27.501c0 -12.667 3.16699 -21.5 9.5 -26.5s17.166 -7.5 32.499 -7.5h530c11.333 0 22.5 -4 33.5 -12s16.5 -17.333 16.5 -28v-69c0 -11.333 -5.33301 -21.333 -16 -30s-22.334 -13 -35.001 -13h-686
c-18.667 0 -36.334 2.66699 -53.001 8s-31.167 12.833 -43.5 22.5s-22.166 21.167 -29.499 34.5s-11 28 -11 44zM382.998 658.002l27.998 46.998c9.33301 15.333 18.833 27.833 28.5 37.5s20.834 14.834 33.501 15.501l9 1h139c9.33301 0 19.5 -3.16699 30.5 -9.5
s16.5 -13.166 16.5 -20.499c0 -3.33301 -0.333008 -5.33301 -1 -6c-7.33301 -12.667 -15.666 -25 -24.999 -37s-20 -22.667 -32 -32s-25.5 -16.833 -40.5 -22.5s-31.833 -8.5 -50.5 -8.5h-120c-12.667 0 -19 7 -19 21c0 4 1 8.66699 3 14z" />
    <glyph glyph-name="FL00CAh" unicode="&#xca;" 
d="M50 109l-0.00195312 353.002c0 16 3.66699 30.667 11 44s17.166 24.833 29.499 34.5s26.833 17.167 43.5 22.5s34.334 8 53.001 8h686c12.667 0 24.334 -4.33301 35.001 -13s16 -18.667 16 -30v-69c0 -10.667 -5.5 -20 -16.5 -28s-22.167 -12 -33.5 -12h-530
c-15.333 0 -26.166 -2.5 -32.499 -7.5s-9.5 -13.167 -9.5 -24.5c0 -12.667 3.33301 -21.334 10 -26.001s17.334 -7 32.001 -7h529c12.667 0 24.334 -4.33301 35.001 -13s16 -18.667 16 -30v-49c0 -10.667 -5.5 -20 -16.5 -28s-22.167 -12 -33.5 -12h-530
c-15.333 0 -26 -2.83301 -32 -8.5s-9.33301 -14.834 -10 -27.501c0 -12.667 3.16699 -21.5 9.5 -26.5s17.166 -7.5 32.499 -7.5h530c11.333 0 22.5 -4 33.5 -12s16.5 -17.333 16.5 -28v-69c0 -11.333 -5.33301 -21.333 -16 -30s-22.334 -13 -35.001 -13h-686
c-18.667 0 -36.334 2.66699 -53.001 8s-31.167 12.833 -43.5 22.5s-22.166 21.167 -29.499 34.5s-11 28 -11 44zM570.998 623.002c-11.333 0 -23.165 4.5 -35.498 13.5s-23.5 22.5 -33.5 40.5c-19.333 -31.333 -39.333 -49 -60 -53c-1.33301 -0.666992 -4.33301 -1 -9 -1
h-139c-9.33301 0 -19.5 3.16699 -30.5 9.5s-16.5 13.166 -16.5 20.499c0 3.33301 0.333008 5.33301 1 6c7.33301 12.667 15.666 25 24.999 37s20 22.667 32 32s25.5 16.833 40.5 22.5s31.833 8.5 50.5 8.5h212c18.667 0 35.5 -2.83301 50.5 -8.5s28.5 -13.167 40.5 -22.5
s22.667 -20 32 -32s17.666 -24.333 24.999 -37c0.666992 -0.666992 1 -2.66699 1 -6c0 -7.33301 -5.5 -14.166 -16.5 -20.499s-21.167 -9.5 -30.5 -9.5h-139z" />
    <glyph glyph-name="FL00CBh" unicode="&#xcb;" 
d="M50 109l-0.00195312 353.002c0 16 3.66699 30.667 11 44s17.166 24.833 29.499 34.5s26.833 17.167 43.5 22.5s34.334 8 53.001 8h686c12.667 0 24.334 -4.33301 35.001 -13s16 -18.667 16 -30v-69c0 -10.667 -5.5 -20 -16.5 -28s-22.167 -12 -33.5 -12h-530
c-15.333 0 -26.166 -2.5 -32.499 -7.5s-9.5 -13.167 -9.5 -24.5c0 -12.667 3.33301 -21.334 10 -26.001s17.334 -7 32.001 -7h529c12.667 0 24.334 -4.33301 35.001 -13s16 -18.667 16 -30v-49c0 -10.667 -5.5 -20 -16.5 -28s-22.167 -12 -33.5 -12h-530
c-15.333 0 -26 -2.83301 -32 -8.5s-9.33301 -14.834 -10 -27.501c0 -12.667 3.16699 -21.5 9.5 -26.5s17.166 -7.5 32.499 -7.5h530c11.333 0 22.5 -4 33.5 -12s16.5 -17.333 16.5 -28v-69c0 -11.333 -5.33301 -21.333 -16 -30s-22.334 -13 -35.001 -13h-686
c-18.667 0 -36.334 2.66699 -53.001 8s-31.167 12.833 -43.5 22.5s-22.166 21.167 -29.499 34.5s-11 28 -11 44zM709.998 623.002h-139c-11.333 0 -22 3.66699 -32 11s-15 15.666 -15 24.999v61c0 11.333 5 20.666 15 27.999s21 11 33 11h137c11.333 0 22 -3.66699 32 -11
s15 -16.666 15 -27.999v-61c0 -9.33301 -5 -17.666 -15 -24.999s-20.333 -11 -31 -11zM432.998 623.002h-139c-10.667 0 -21 3.66699 -31 11s-15 15.666 -15 24.999v61c0 11.333 5 20.666 15 27.999s20.667 11 32 11h137c12 0 23 -3.66699 33 -11s15 -16.666 15 -27.999v-61
c0 -9.33301 -5 -17.666 -15 -24.999s-20.667 -11 -32 -11z" />
    <glyph glyph-name="FL00CCh" unicode="&#xcc;" horiz-adv-x="954" 
d="M568 705l27.998 -46.998c2 -5.33301 3 -10 3 -14c0 -14 -6.33301 -21 -19 -21h-120c-18.667 0 -35.5 2.83301 -50.5 8.5s-28.5 13.167 -40.5 22.5s-22.667 20 -32 32s-17.666 24.333 -24.999 37c-0.666992 0.666992 -1 2.66699 -1 6c0 7.33301 5.5 14.166 16.5 20.499
s21.167 9.5 30.5 9.5h139l9 -1c12.667 -0.666992 23.834 -5.83398 33.501 -15.501s19.167 -22.167 28.5 -37.5zM299.998 152.002c17.333 1.33301 30.501 6.33301 39.501 15s13.5 22.667 13.5 42v158c-1.33301 17.333 -6.33301 30 -15 38s-21.334 12.667 -38.001 14h-200
c-11.333 0 -22.5 4 -33.5 12s-16.5 17.333 -16.5 28v69c0 11.333 5.33301 21.333 16 30s22.334 13 35.001 13h752c12.667 0 24.334 -4.33301 35.001 -13s16 -18.667 16 -30v-69c0 -10.667 -5.5 -20 -16.5 -28s-22.167 -12 -33.5 -12h-200
c-17.333 -1.33301 -30.5 -6.33301 -39.5 -15s-13.5 -22.667 -13.5 -42v-153c0 -19.333 4.5 -33.333 13.5 -42s22.167 -13.667 39.5 -15h200c11.333 0 22.5 -4 33.5 -12s16.5 -17.333 16.5 -28v-69c0 -11.333 -5.33301 -21.333 -16 -30s-22.334 -13 -35.001 -13h-752
c-12.667 0 -24.334 4.33301 -35.001 13s-16 18.667 -16 30v69c0 10.667 5.5 20 16.5 28s22.167 12 33.5 12h200z" />
    <glyph glyph-name="FL00CDh" unicode="&#xcd;" horiz-adv-x="954" 
d="M358 658l27.998 46.998c9.33301 15.333 18.833 27.833 28.5 37.5s20.834 14.834 33.501 15.501l9 1h139c9.33301 0 19.5 -3.16699 30.5 -9.5s16.5 -13.166 16.5 -20.499c0 -3.33301 -0.333008 -5.33301 -1 -6c-7.33301 -12.667 -15.666 -25 -24.999 -37
s-20 -22.667 -32 -32s-25.5 -16.833 -40.5 -22.5s-31.833 -8.5 -50.5 -8.5h-120c-12.667 0 -19 7 -19 21c0 4 1 8.66699 3 14zM299.998 151.998c17.333 1.33301 30.501 6.33301 39.501 15s13.5 22.667 13.5 42v158c-1.33301 17.333 -6.33301 30 -15 38
s-21.334 12.667 -38.001 14h-200c-11.333 0 -22.5 4 -33.5 12s-16.5 17.333 -16.5 28v69c0 11.333 5.33301 21.333 16 30s22.334 13 35.001 13h752c12.667 0 24.334 -4.33301 35.001 -13s16 -18.667 16 -30v-69c0 -10.667 -5.5 -20 -16.5 -28s-22.167 -12 -33.5 -12h-200
c-17.333 -1.33301 -30.5 -6.33301 -39.5 -15s-13.5 -22.667 -13.5 -42v-153c0 -19.333 4.5 -33.333 13.5 -42s22.167 -13.667 39.5 -15h200c11.333 0 22.5 -4 33.5 -12s16.5 -17.333 16.5 -28v-69c0 -11.333 -5.33301 -21.333 -16 -30s-22.334 -13 -35.001 -13h-752
c-12.667 0 -24.334 4.33301 -35.001 13s-16 18.667 -16 30v69c0 10.667 5.5 20 16.5 28s22.167 12 33.5 12h200z" />
    <glyph glyph-name="FL00CEh" unicode="&#xce;" horiz-adv-x="954" 
d="M546 623c-11.333 0 -23.165 4.5 -35.498 13.5s-23.5 22.5 -33.5 40.5c-19.333 -31.333 -39.333 -49 -60 -53c-1.33301 -0.666992 -4.33301 -1 -9 -1h-139c-9.33301 0 -19.5 3.16699 -30.5 9.5s-16.5 13.166 -16.5 20.499c0 3.33301 0.333008 5.33301 1 6
c7.33301 12.667 15.666 25 24.999 37s20 22.667 32 32s25.5 16.833 40.5 22.5s31.833 8.5 50.5 8.5h212c18.667 0 35.5 -2.83301 50.5 -8.5s28.5 -13.167 40.5 -22.5s22.667 -20 32 -32s17.666 -24.333 24.999 -37c0.666992 -0.666992 1 -2.66699 1 -6
c0 -7.33301 -5.5 -14.166 -16.5 -20.499s-21.167 -9.5 -30.5 -9.5h-139zM300.001 152c17.333 1.33301 30.501 6.33301 39.501 15s13.5 22.667 13.5 42v158c-1.33301 17.333 -6.33301 30 -15 38s-21.334 12.667 -38.001 14h-200c-11.333 0 -22.5 4 -33.5 12
s-16.5 17.333 -16.5 28v69c0 11.333 5.33301 21.333 16 30s22.334 13 35.001 13h752c12.667 0 24.334 -4.33301 35.001 -13s16 -18.667 16 -30v-69c0 -10.667 -5.5 -20 -16.5 -28s-22.167 -12 -33.5 -12h-200c-17.333 -1.33301 -30.5 -6.33301 -39.5 -15
s-13.5 -22.667 -13.5 -42v-153c0 -19.333 4.5 -33.333 13.5 -42s22.167 -13.667 39.5 -15h200c11.333 0 22.5 -4 33.5 -12s16.5 -17.333 16.5 -28v-69c0 -11.333 -5.33301 -21.333 -16 -30s-22.334 -13 -35.001 -13h-752c-12.667 -0 -24.334 4.33301 -35.001 13
s-16 18.667 -16 30v69c0 10.667 5.5 20 16.5 28s22.167 12 33.5 12h200z" />
    <glyph glyph-name="FL00CFh" unicode="&#xcf;" horiz-adv-x="954" 
d="M685 623h-139c-11.333 0 -22 3.66699 -32 11s-15 15.666 -15 24.999v61c0 11.333 5 20.666 15 27.999s21 11 33 11h137c11.333 0 22 -3.66699 32 -11s15 -16.666 15 -27.999v-61c0 -9.33301 -5 -17.666 -15 -24.999s-20.333 -11 -31 -11zM408 623h-139
c-10.667 0 -21 3.66699 -31 11s-15 15.666 -15 24.999v61c0 11.333 5 20.666 15 27.999s20.667 11 32 11h137c12 0 23 -3.66699 33 -11s15 -16.666 15 -27.999v-61c0 -9.33301 -5 -17.666 -15 -24.999s-20.667 -11 -32 -11zM300 152
c17.333 1.33301 30.501 6.33301 39.501 15s13.5 22.667 13.5 42v158c-1.33301 17.333 -6.33301 30 -15 38s-21.334 12.667 -38.001 14h-200c-11.333 0 -22.5 4 -33.5 12s-16.5 17.333 -16.5 28v69c0 11.333 5.33301 21.333 16 30s22.334 13 35.001 13h752
c12.667 0 24.334 -4.33301 35.001 -13s16 -18.667 16 -30v-69c0 -10.667 -5.5 -20 -16.5 -28s-22.167 -12 -33.5 -12h-200c-17.333 -1.33301 -30.5 -6.33301 -39.5 -15s-13.5 -22.667 -13.5 -42v-153c0 -19.333 4.5 -33.333 13.5 -42s22.167 -13.667 39.5 -15h200
c11.333 0 22.5 -4 33.5 -12s16.5 -17.333 16.5 -28v-69c0 -11.333 -5.33301 -21.333 -16 -30s-22.334 -13 -35.001 -13h-752c-12.667 -0 -24.334 4.33301 -35.001 13s-16 18.667 -16 30v69c0 10.667 5.5 20 16.5 28s22.167 12 33.5 12h200z" />
    <glyph glyph-name="FL00D0h" unicode="&#xd0;" horiz-adv-x="1253" 
d="M468 212c0 -40 19.666 -60.002 58.999 -60.002h537c4 0 8.83301 -1.16699 14.5 -3.5s11.334 -5.33301 17.001 -9s11 -7.5 16 -11.5s9.5 -8 13.5 -12l86 -86c1.33301 -1.33301 3.66602 -4.16602 6.99902 -8.49902s5 -7.16602 5 -8.49902
c0 -5.33301 -1.83301 -8.83301 -5.5 -10.5s-8.16699 -2.5 -13.5 -2.5h-849c-18.667 0 -36.334 2.66699 -53.001 8s-31.167 12.833 -43.5 22.5s-22.166 21.167 -29.499 34.5s-11 28 -11 44v85c-2.66699 18.667 -13.667 28 -33 28h-85c-11.333 0 -22.5 4 -33.5 12
s-16.5 17.333 -16.5 28v49c0 11.333 5.33301 21.333 16 30s22.334 13 35.001 13h85c19.333 0 30 9.33301 32 28v97c0 61.333 32.667 92 98 92h249c36 0 70.5 -7.66699 103.5 -23s68.167 -41.333 105.5 -78l229 -226c4 -5.33301 7.33301 -10.333 10 -15s4 -8.66699 4 -12
c0 -8.66699 -8 -13.334 -24 -14.001h-249l-238 192c-6.66699 4.66699 -14.667 9.33398 -24 14.001l-14 7v-204z" />
    <glyph glyph-name="FL00D1h" unicode="&#xd1;" horiz-adv-x="1104" 
d="M300 416l-0.000976562 -204.003c0 -40 19.667 -60 59 -60h80c4 0 8.83301 -1.16699 14.5 -3.5s11.334 -5.33301 17.001 -9s11 -7.5 16 -11.5s9.5 -8 13.5 -12l86 -86c1.33301 -1.33301 3.66602 -4.16602 6.99902 -8.49902s5 -7.16602 5 -8.49902
c0 -5.33301 -1.83301 -8.83301 -5.5 -10.5s-8.16699 -2.5 -13.5 -2.5h-392c-18.667 0 -36.334 2.66699 -53.001 8s-31.167 12.833 -43.5 22.5s-22.166 21.167 -29.499 34.5s-11 28 -11 44v370c0 61.333 32.667 92 98 92h252c36 0 70 -7.66699 102 -23
s66.667 -41.333 104 -78l198 -198v240c0 19.333 4.83301 34 14.5 44s20.5 15 32.5 15h153c10.667 0 21.667 -5.16699 33 -15.5s17 -22.833 17 -37.5v-463c0 -13.333 -4.33301 -25.833 -13 -37.5s-20.667 -17.5 -36 -17.5h-215c-3.33301 0 -7.66602 0.666992 -12.999 2
s-10.833 3 -16.5 5s-10.667 4.16699 -15 6.5s-7.5 4.83301 -9.5 7.5l-398 374c-6.66699 4.66699 -14.667 9.33398 -24 14.001zM539.999 622.997c-11.333 0 -23.166 4.50098 -35.499 13.501s-23.5 22.5 -33.5 40.5c-19.333 -31.333 -39.333 -49 -60 -53
c-1.33301 -0.666992 -4.33301 -1 -9 -1h-129c-9.33301 0 -19.5 3.16699 -30.5 9.5s-16.5 13.166 -16.5 20.499v4c0 2 0.333008 3.33301 1 4c14.667 26 33.667 48.833 57 68.5s53.666 29.5 90.999 29.5h187c11.333 0 23.166 -4.5 35.499 -13.5s23.5 -22.5 33.5 -40.5
c19.333 31.333 39.333 49 60 53c1.33301 0.666992 4.33301 1 9 1h129c10 0 20.333 -3.5 31 -10.5s16 -14.167 16 -21.5c0 -3.33301 -0.333008 -5.33301 -1 -6c-7.33301 -13.333 -15.666 -25.833 -24.999 -37.5s-20 -22 -32 -31s-25.5 -16.167 -40.5 -21.5
s-31.833 -8 -50.5 -8h-187z" />
    <glyph glyph-name="FL00D2h" unicode="&#xd2;" 
d="M615 419h-256c-19.333 0 -34 -4.5 -44 -13.5s-15 -23.5 -15 -43.5v-154c0 -37.333 15 -56 45 -56h284c30 0 45 18.667 45 56v154c0 20 -5 34.5 -15 43.5s-24.667 13.5 -44 13.5zM799 0h-624c-36.667 0 -66.667 9.66699 -90 29s-35 47 -35 83v350
c0 16 3.66699 30.667 11 44s17.166 24.833 29.499 34.5s26.833 17.167 43.5 22.5s34.334 8 53.001 8h600c18.667 0 36.334 -2.66699 53.001 -8s31.167 -12.833 43.5 -22.5s22.166 -21.167 29.499 -34.5s11 -28 11 -44v-350c0 -36 -11.667 -63.667 -35 -83
s-53.333 -29 -90 -29zM578 705l27.998 -46.998c2 -5.33301 3 -10 3 -14c0 -14 -6.33301 -21 -19 -21h-120c-18.667 0 -35.5 2.83301 -50.5 8.5s-28.5 13.167 -40.5 22.5s-22.667 20 -32 32s-17.666 24.333 -24.999 37c-0.666992 0.666992 -1 2.66699 -1 6
c0 7.33301 5.5 14.166 16.5 20.499s21.167 9.5 30.5 9.5h139l9 -1c12.667 -0.666992 23.834 -5.83398 33.501 -15.501s19.167 -22.167 28.5 -37.5z" />
    <glyph glyph-name="FL00D3h" unicode="&#xd3;" 
d="M615 419h-256c-19.333 0 -34 -4.5 -44 -13.5s-15 -23.5 -15 -43.5v-154c0 -37.333 15 -56 45 -56h284c30 0 45 18.667 45 56v154c0 20 -5 34.5 -15 43.5s-24.667 13.5 -44 13.5zM799 0h-624c-36.667 0 -66.667 9.66699 -90 29s-35 47 -35 83v350
c0 16 3.66699 30.667 11 44s17.166 24.833 29.499 34.5s26.833 17.167 43.5 22.5s34.334 8 53.001 8h600c18.667 0 36.334 -2.66699 53.001 -8s31.167 -12.833 43.5 -22.5s22.166 -21.167 29.499 -34.5s11 -28 11 -44v-350c0 -36 -11.667 -63.667 -35 -83
s-53.333 -29 -90 -29zM368 658l27.998 46.998c9.33301 15.333 18.833 27.833 28.5 37.5s20.834 14.834 33.501 15.501l9 1h139c9.33301 0 19.5 -3.16699 30.5 -9.5s16.5 -13.166 16.5 -20.499c0 -3.33301 -0.333008 -5.33301 -1 -6
c-7.33301 -12.667 -15.666 -25 -24.999 -37s-20 -22.667 -32 -32s-25.5 -16.833 -40.5 -22.5s-31.833 -8.5 -50.5 -8.5h-120c-12.667 0 -19 7 -19 21c0 4 1 8.66699 3 14z" />
    <glyph glyph-name="FL00D4h" unicode="&#xd4;" 
d="M175 0c-36.667 0 -66.667 9.66699 -90 29s-35 47 -35 83v350c0 16 3.66699 30.667 11 44s17.166 24.833 29.499 34.5s26.833 17.167 43.5 22.5s34.334 8 53.001 8h600c18.667 0 36.334 -2.66699 53.001 -8s31.167 -12.833 43.5 -22.5s22.166 -21.167 29.499 -34.5
s11 -28 11 -44v-350c0 -36 -11.667 -63.667 -35 -83s-53.333 -29 -90 -29h-624zM359 419c-19.333 0 -34 -4.5 -44 -13.5s-15 -23.5 -15 -43.5v-154c0 -37.333 15 -56 45 -56h284c30 0 45 18.667 45 56v154c0 20 -5 34.5 -15 43.5s-24.667 13.5 -44 13.5h-256zM556 623
c-11.333 0 -23.165 4.5 -35.498 13.5s-23.5 22.5 -33.5 40.5c-19.333 -31.333 -39.333 -49 -60 -53c-1.33301 -0.666992 -4.33301 -1 -9 -1h-139c-9.33301 0 -19.5 3.16699 -30.5 9.5s-16.5 13.166 -16.5 20.499c0 3.33301 0.333008 5.33301 1 6
c7.33301 12.667 15.666 25 24.999 37s20 22.667 32 32s25.5 16.833 40.5 22.5s31.833 8.5 50.5 8.5h212c18.667 0 35.5 -2.83301 50.5 -8.5s28.5 -13.167 40.5 -22.5s22.667 -20 32 -32s17.666 -24.333 24.999 -37c0.666992 -0.666992 1 -2.66699 1 -6
c0 -7.33301 -5.5 -14.166 -16.5 -20.499s-21.167 -9.5 -30.5 -9.5h-139z" />
    <glyph glyph-name="FL00D5h" unicode="&#xd5;" 
d="M175 0c-36.667 0 -66.667 9.66699 -90 29s-35 47 -35 83v350c0 16 3.66699 30.667 11 44s17.166 24.833 29.499 34.5s26.833 17.167 43.5 22.5s34.334 8 53.001 8h600c18.667 0 36.334 -2.66699 53.001 -8s31.167 -12.833 43.5 -22.5s22.166 -21.167 29.499 -34.5
s11 -28 11 -44v-350c0 -36 -11.667 -63.667 -35 -83s-53.333 -29 -90 -29h-624zM359 419c-19.333 0 -34 -4.5 -44 -13.5s-15 -23.5 -15 -43.5v-154c0 -37.333 15 -56 45 -56h284c30 0 45 18.667 45 56v154c0 20 -5 34.5 -15 43.5s-24.667 13.5 -44 13.5h-256zM479 623
c-11.333 0 -23.166 4.50098 -35.499 13.501s-23.5 22.5 -33.5 40.5c-19.333 -31.333 -39.333 -49 -60 -53c-1.33301 -0.666992 -4.33301 -1 -9 -1h-129c-9.33301 0 -19.5 3.16699 -30.5 9.5s-16.5 13.166 -16.5 20.499v4c0 2 0.333008 3.33301 1 4
c14.667 26 33.667 48.833 57 68.5s53.666 29.5 90.999 29.5h187c11.333 0 23.166 -4.5 35.499 -13.5s23.5 -22.5 33.5 -40.5c19.333 31.333 39.333 49 60 53c1.33301 0.666992 4.33301 1 9 1h129c10 0 20.333 -3.5 31 -10.5s16 -14.167 16 -21.5
c0 -3.33301 -0.333008 -5.33301 -1 -6c-7.33301 -13.333 -15.666 -25.833 -24.999 -37.5s-20 -22 -32 -31s-25.5 -16.167 -40.5 -21.5s-31.833 -8 -50.5 -8h-187z" />
    <glyph glyph-name="FL00D6h" unicode="&#xd6;" 
d="M695 623h-139c-11.333 0 -22 3.66699 -32 11s-15 15.666 -15 24.999v61c0 11.333 5 20.666 15 27.999s21 11 33 11h137c11.333 0 22 -3.66699 32 -11s15 -16.666 15 -27.999v-61c0 -9.33301 -5 -17.666 -15 -24.999s-20.333 -11 -31 -11zM418 623h-139
c-10.667 0 -21 3.66699 -31 11s-15 15.666 -15 24.999v61c0 11.333 5 20.666 15 27.999s20.667 11 32 11h137c12 0 23 -3.66699 33 -11s15 -16.666 15 -27.999v-61c0 -9.33301 -5 -17.666 -15 -24.999s-20.667 -11 -32 -11zM615 419h-256c-19.333 0 -34 -4.5 -44 -13.5
s-15 -23.5 -15 -43.5v-154c0 -37.333 15 -56 45 -56h284c30 0 45 18.667 45 56v154c0 20 -5 34.5 -15 43.5s-24.667 13.5 -44 13.5zM799 0h-624c-36.667 0 -66.667 9.66699 -90 29s-35 47 -35 83v350c0 16 3.66699 30.667 11 44s17.166 24.833 29.499 34.5
s26.833 17.167 43.5 22.5s34.334 8 53.001 8h600c18.667 0 36.334 -2.66699 53.001 -8s31.167 -12.833 43.5 -22.5s22.166 -21.167 29.499 -34.5s11 -28 11 -44v-350c0 -36 -11.667 -63.667 -35 -83s-53.333 -29 -90 -29z" />
    <glyph glyph-name="FL00D7h" unicode="&#xd7;" horiz-adv-x="484" 
d="M343 483c10.667 10.667 23.667 16 39 16c11.333 0 20.333 -3.33301 27 -10l35 -35c6 -6 9 -14 9 -24c0 -15.333 -5.33301 -28.333 -16 -39l-102 -102l103 -103c10.667 -10.667 16 -23.667 16 -39c0 -11.333 -3.33301 -20.333 -10 -27l-35 -35c-6 -6 -14 -9 -24 -9
c-15.333 0 -28.333 5.33301 -39 16l-104 104l-104 -104c-10.667 -10.667 -23.667 -16 -39 -16c-10 0 -18 3 -24 9l-35 35c-6.66699 6.66699 -10 15.667 -10 27c0 15.333 5.33301 28.333 16 39l103 103l-102 102c-10.667 10.667 -16 23.667 -16 39c0 10 3 18 9 24l35 35
c6.66699 6.66699 15.667 10 27 10c15.333 0 28.333 -5.33301 39 -16l101 -101z" />
    <glyph glyph-name="FL00D8h" unicode="&#xd8;" 
d="M175 0c-12 0 -25.166 2.66602 -39.499 7.99902s-27.833 13 -40.5 23s-23.334 21.833 -32.001 35.5s-13 28.834 -13 45.501v350c0 16 3.66699 30.667 11 44s17.166 24.833 29.499 34.5s26.833 17.167 43.5 22.5s34.334 8 53.001 8h600c40 0 72.833 -9 98.5 -27
s38.5 -45.333 38.5 -82v-350c0 -36 -11.667 -63.667 -35 -83s-53.333 -29 -90 -29h-624zM674.001 323.999l-175 -172h130c30 0 45 18.667 45 56v116zM300.001 246.999l175 172h-130c-30 0 -45 -18.667 -45 -56v-116z" />
    <glyph glyph-name="FL00D9h" unicode="&#xd9;" 
d="M606 658l-27.998 46.998c-9.33301 15.333 -18.833 27.833 -28.5 37.5s-20.834 14.834 -33.501 15.501l-9 1h-139c-9.33301 0 -19.5 -3.16699 -30.5 -9.5s-16.5 -13.166 -16.5 -20.499c0 -3.33301 0.333008 -5.33301 1 -6c7.33301 -12.667 15.666 -25 24.999 -37
s20 -22.667 32 -32s25.5 -16.833 40.5 -22.5s31.833 -8.5 50.5 -8.5h120c12.667 0 19 7 19 21c0 4 -1 8.66699 -3 14zM300.002 511.998c0 19.333 -4.83301 34 -14.5 44s-20.5 15 -32.5 15h-153c-10.667 0 -21.667 -5.16699 -33 -15.5s-17 -22.833 -17 -37.5v-406
c0 -36 11.667 -63.667 35 -83s53.333 -29 90 -29h624c36.667 0 66.667 9.66699 90 29s35 47 35 83v406c0 14.667 -5.66699 27.167 -17 37.5s-22.333 15.5 -33 15.5h-153c-12 0 -22.833 -5 -32.5 -15s-14.5 -24.667 -14.5 -44v-304c0 -37.333 -15 -56 -45 -56h-284
c-30 0 -45 18.667 -45 56v304z" />
    <glyph glyph-name="FL00DAh" unicode="&#xda;" 
d="M396 705l-27.998 -46.998c-2 -5.33301 -3 -10 -3 -14c0 -14 6.33301 -21 19 -21h120c18.667 0 35.5 2.83301 50.5 8.5s28.5 13.167 40.5 22.5s22.667 20 32 32s17.666 24.333 24.999 37c0.666992 0.666992 1 2.66699 1 6c0 7.33301 -5.5 14.166 -16.5 20.499
s-21.167 9.5 -30.5 9.5h-139l-9 -1c-12.667 -0.666992 -23.834 -5.83398 -33.501 -15.501s-19.167 -22.167 -28.5 -37.5zM300.002 512.002c0 19.333 -4.83301 34 -14.5 44s-20.5 15 -32.5 15h-153c-10.667 0 -21.667 -5.16699 -33 -15.5s-17 -22.833 -17 -37.5v-406
c0 -36 11.667 -63.667 35 -83s53.333 -29 90 -29h624c36.667 0 66.667 9.66699 90 29s35 47 35 83v406c0 14.667 -5.66699 27.167 -17 37.5s-22.333 15.5 -33 15.5h-153c-12 0 -22.833 -5 -32.5 -15s-14.5 -24.667 -14.5 -44v-304c0 -37.333 -15 -56 -45 -56h-284
c-30 0 -45 18.667 -45 56v304z" />
    <glyph glyph-name="FL00DBh" unicode="&#xdb;" 
d="M556 623h138.999c9.33301 0 19.5 3.16699 30.5 9.5s16.5 13.166 16.5 20.499c0 3.33301 -0.333008 5.33301 -1 6c-7.33301 12.667 -15.666 25 -24.999 37s-20 22.667 -32 32s-25.5 16.833 -40.5 22.5s-31.833 8.5 -50.5 8.5h-212c-18.667 0 -35.5 -2.83301 -50.5 -8.5
s-28.5 -13.167 -40.5 -22.5s-22.667 -20 -32 -32s-17.666 -24.333 -24.999 -37c-0.666992 -0.666992 -1 -2.66699 -1 -6c0 -7.33301 5.5 -14.166 16.5 -20.499s21.167 -9.5 30.5 -9.5h139c4.66699 0 7.66699 0.333008 9 1c20.667 4 40.667 21.667 60 53
c10 -18 21.167 -31.5 33.5 -40.5s24.166 -13.5 35.499 -13.5zM299.999 512c0 19.333 -4.83301 34 -14.5 44s-20.5 15 -32.5 15h-153c-10.667 0 -21.667 -5.16699 -33 -15.5s-17 -22.833 -17 -37.5v-406c0 -36 11.667 -63.667 35 -83s53.333 -29 90 -29h624
c36.667 0 66.667 9.66699 90 29s35 47 35 83v406c0 14.667 -5.66699 27.167 -17 37.5s-22.333 15.5 -33 15.5h-153c-12 0 -22.833 -5 -32.5 -15s-14.5 -24.667 -14.5 -44v-304c0 -37.333 -15 -56 -45 -56h-284c-30 0 -45 18.667 -45 56v304z" />
    <glyph glyph-name="FL00DCh" unicode="&#xdc;" 
d="M279 623h139c11.333 0 22 3.66699 32 11s15 15.666 15 24.999v61c0 11.333 -5 20.666 -15 27.999s-21 11 -33 11h-137c-11.333 0 -22 -3.66699 -32 -11s-15 -16.666 -15 -27.999v-61c0 -9.33301 5 -17.666 15 -24.999s20.333 -11 31 -11zM556 623h139
c10.667 0 21 3.66699 31 11s15 15.666 15 24.999v61c0 11.333 -5 20.666 -15 27.999s-20.667 11 -32 11h-137c-12 0 -23 -3.66699 -33 -11s-15 -16.666 -15 -27.999v-61c0 -9.33301 5 -17.666 15 -24.999s20.667 -11 32 -11zM300 512c0 19.333 -4.83301 34 -14.5 44
s-20.5 15 -32.5 15h-153c-10.667 0 -21.667 -5.16699 -33 -15.5s-17 -22.833 -17 -37.5v-406c0 -36 11.667 -63.667 35 -83s53.333 -29 90 -29h624c36.667 0 66.667 9.66699 90 29s35 47 35 83v406c0 14.667 -5.66699 27.167 -17 37.5s-22.333 15.5 -33 15.5h-153
c-12 0 -22.833 -5 -32.5 -15s-14.5 -24.667 -14.5 -44v-304c0 -37.333 -15 -56 -45 -56h-284c-30 0 -45 18.667 -45 56v304z" />
    <glyph glyph-name="FL00DDh" unicode="&#xdd;" horiz-adv-x="1104" 
d="M481 705l-27.998 -46.998c-2 -5.33301 -3 -10 -3 -14c0 -14 6.33301 -21 19 -21h120c18.667 0 35.5 2.83301 50.5 8.5s28.5 13.167 40.5 22.5s22.667 20 32 32s17.666 24.333 24.999 37c0.666992 0.666992 1 2.66699 1 6c0 7.33301 -5.5 14.166 -16.5 20.499
s-21.167 9.5 -30.5 9.5h-139l-9 -1c-12.667 -0.666992 -23.834 -5.83398 -33.501 -15.501s-19.167 -22.167 -28.5 -37.5zM804.002 155.002c-0.666992 0 -3.16992 0.999023 -7.50293 2.99902s-9.66602 4.83301 -15.999 8.5s-11.166 6.83398 -14.499 9.50098l-391 374
c-2 2.66699 -5.5 5.16699 -10.5 7.5s-10.5 4.5 -16.5 6.5s-11.5 3.66699 -16.5 5s-8.5 2 -10.5 2h-247c-16 -1.33301 -24 -6 -24 -14c0 -6.66699 4.66699 -15.667 14 -27l383 -378h-347c-11.333 0 -22.5 -4 -33.5 -12s-16.5 -17.333 -16.5 -28v-69
c0 -11.333 5.33301 -21.333 16 -30s22.334 -13 35.001 -13h855c65.333 0 98 30.667 98 92v426c0 14.667 -5.66699 27.167 -17 37.5s-22.333 15.5 -33 15.5h-153c-12 0 -22.833 -5 -32.5 -15s-14.5 -24.667 -14.5 -44v-357z" />
    <glyph glyph-name="FL00DEh" unicode="&#xde;" 
d="M300 512v-39h487c18.667 0 36.334 -2.66699 53.001 -8s31.167 -12.833 43.5 -22.5s22.166 -21.167 29.499 -34.5s11 -28 11 -44v-151c0 -32 -12.833 -58.167 -38.5 -78.5s-58.5 -30.5 -98.5 -30.5h-487v-45c0 -19.333 -4.83301 -34 -14.5 -44s-20.5 -15 -32.5 -15h-153
c-10.667 0 -21.667 5.16699 -33 15.5s-17 22.833 -17 37.5v465c0 14.667 5.66699 27.167 17 37.5s22.333 15.5 33 15.5h153c12 0 22.833 -5 32.5 -15s14.5 -24.667 14.5 -44zM624 321h-273.999c-16 0 -27.833 -1.16699 -35.5 -3.5s-12.5 -7.83301 -14.5 -16.5v-21
c4 -16 19 -24 45 -24h283c15.333 0 26.666 2.33301 33.999 7s11 13.667 11 27c0 12 -3.33301 20.167 -10 24.5s-19.667 6.5 -39 6.5z" />
    <glyph glyph-name="FL00DFh" unicode="&#xdf;" 
d="M100 571l686.999 -0.00195312c18.667 0 36.334 -2.66699 53.001 -8s31.167 -12.833 43.5 -22.5s22.166 -21.167 29.499 -34.5s11 -28 11 -44v-353c0 -16 -3.66699 -30.667 -11 -44s-17.166 -24.833 -29.499 -34.5s-26.833 -17.167 -43.5 -22.5s-34.334 -8 -53.001 -8
h-342c-12.667 0 -24.334 4.33301 -35.001 13s-16 18.667 -16 30v69c0 10.667 5.5 20 16.5 28s22.167 12 33.5 12h186c15.333 0 26.166 2.5 32.499 7.5s9.5 13.833 9.5 26.5c-0.666992 12.667 -4 21.834 -10 27.501s-16.667 8.5 -32 8.5h-186c-11.333 0 -22.5 4 -33.5 12
s-16.5 17.333 -16.5 28v49c0 11.333 5.33301 21.333 16 30s22.334 13 35.001 13h185c14.667 0 25.334 2.33301 32.001 7s10 13.334 10 26.001c0 11.333 -3.16699 19.5 -9.5 24.5s-17.166 7.5 -32.499 7.5h-330v-512c0 -15.333 -4.83301 -28.5 -14.5 -39.5
s-20.5 -16.5 -32.5 -16.5h-157c-10.667 0 -21 5.66699 -31 17s-15 24.333 -15 39v611c0 14.667 5.66699 27.167 17 37.5s22.333 15.5 33 15.5z" />
    <glyph glyph-name="FL00E0h" unicode="&#xe0;" horiz-adv-x="1084" 
d="M784 212l-0.00195312 204.002c-0.666992 0 -3.16699 -1 -7.5 -3s-9.66602 -4.83301 -15.999 -8.5s-11.166 -6.83398 -14.499 -9.50098l-389 -374c-2 -2.66699 -5.5 -5.16699 -10.5 -7.5s-10.5 -4.5 -16.5 -6.5s-11.5 -3.66699 -16.5 -5s-8.5 -2 -10.5 -2h-249
c-16 0.666992 -24 5.33398 -24 14.001c0 3.33301 1.33301 7.33301 4 12s6 9.66699 10 15l434 429c37.333 36.667 72.5 62.667 105.5 78s67.5 23 103.5 23h249c65.333 0 98 -30.667 98 -92v-370c0 -16 -3.66699 -30.667 -11 -44s-17.166 -24.833 -29.499 -34.5
s-26.833 -17.167 -43.5 -22.5s-34.334 -8 -53.001 -8h-392c-5.33301 0 -9.83301 0.833008 -13.5 2.5s-5.5 5.16699 -5.5 10.5c0 1.33301 1.66699 4.16602 5 8.49902s5.66602 7.16602 6.99902 8.49902l86 86c4 4 8.5 8 13.5 12s10.333 7.83301 16 11.5
s11.334 6.66699 17.001 9s10.5 3.5 14.5 3.5h80c39.333 0 59 20 59 60zM860.998 705.002l27.998 -46.998c2 -5.33301 3 -10 3 -14c0 -14 -6.33301 -21 -19 -21h-120c-18.667 0 -35.5 2.83301 -50.5 8.5s-28.5 13.167 -40.5 22.5s-22.667 20 -32 32
s-17.666 24.333 -24.999 37c-0.666992 0.666992 -1 2.66699 -1 6c0 7.33301 5.5 14.166 16.5 20.499s21.167 9.5 30.5 9.5h139l9 -1c12.667 -0.666992 23.834 -5.83398 33.501 -15.501s19.167 -22.167 28.5 -37.5z" />
    <glyph glyph-name="FL00E1h" unicode="&#xe1;" horiz-adv-x="1084" 
d="M784 212l-0.00195312 204.002c-0.666992 0 -3.16699 -1 -7.5 -3s-9.66602 -4.83301 -15.999 -8.5s-11.166 -6.83398 -14.499 -9.50098l-389 -374c-2 -2.66699 -5.5 -5.16699 -10.5 -7.5s-10.5 -4.5 -16.5 -6.5s-11.5 -3.66699 -16.5 -5s-8.5 -2 -10.5 -2h-249
c-16 0.666992 -24 5.33398 -24 14.001c0 3.33301 1.33301 7.33301 4 12s6 9.66699 10 15l434 429c37.333 36.667 72.5 62.667 105.5 78s67.5 23 103.5 23h249c65.333 0 98 -30.667 98 -92v-370c0 -16 -3.66699 -30.667 -11 -44s-17.166 -24.833 -29.499 -34.5
s-26.833 -17.167 -43.5 -22.5s-34.334 -8 -53.001 -8h-392c-5.33301 0 -9.83301 0.833008 -13.5 2.5s-5.5 5.16699 -5.5 10.5c0 1.33301 1.66699 4.16602 5 8.49902s5.66602 7.16602 6.99902 8.49902l86 86c4 4 8.5 8 13.5 12s10.333 7.83301 16 11.5
s11.334 6.66699 17.001 9s10.5 3.5 14.5 3.5h80c39.333 0 59 20 59 60zM648.998 658.002l27.998 46.998c9.33301 15.333 18.833 27.833 28.5 37.5s20.834 14.834 33.501 15.501l9 1h139c9.33301 0 19.5 -3.16699 30.5 -9.5s16.5 -13.166 16.5 -20.499
c0 -3.33301 -0.333008 -5.33301 -1 -6c-7.33301 -12.667 -15.666 -25 -24.999 -37s-20 -22.667 -32 -32s-25.5 -16.833 -40.5 -22.5s-31.833 -8.5 -50.5 -8.5h-120c-12.667 0 -19 7 -19 21c0 4 1 8.66699 3 14z" />
    <glyph glyph-name="FL00E2h" unicode="&#xe2;" horiz-adv-x="1084" 
d="M784 416l0.00195312 -204.002c0 -40 -19.667 -60 -59 -60h-80c-4 0 -8.83301 -1.16699 -14.5 -3.5s-11.334 -5.33301 -17.001 -9s-11 -7.5 -16 -11.5s-9.5 -8 -13.5 -12l-86 -86c-1.33301 -1.33301 -3.66602 -4.16602 -6.99902 -8.49902s-5 -7.16602 -5 -8.49902
c0 -5.33301 1.83301 -8.83301 5.5 -10.5s8.16699 -2.5 13.5 -2.5h392c18.667 0 36.334 2.66699 53.001 8s31.167 12.833 43.5 22.5s22.166 21.167 29.499 34.5s11 28 11 44v370c0 61.333 -32.667 92 -98 92h-249c-36 0 -70.5 -7.66699 -103.5 -23
s-68.167 -41.333 -105.5 -78l-434 -429c-4 -5.33301 -7.33301 -10.333 -10 -15s-4 -8.66699 -4 -12c0 -8.66699 8 -13.334 24 -14.001h249c2 0 5.5 0.666992 10.5 2s10.5 3 16.5 5s11.5 4.16699 16.5 6.5s8.5 4.83301 10.5 7.5l389 374
c3.33301 2.66699 8.16602 5.83398 14.499 9.50098s11.666 6.5 15.999 8.5s6.83301 3 7.5 3zM837.002 622.998h138.999c9.33301 0 19.5 3.16699 30.5 9.5s16.5 13.166 16.5 20.499c0 3.33301 -0.333008 5.33301 -1 6c-7.33301 12.667 -15.666 25 -24.999 37
s-20 22.667 -32 32s-25.5 16.833 -40.5 22.5s-31.833 8.5 -50.5 8.5h-212c-18.667 0 -35.5 -2.83301 -50.5 -8.5s-28.5 -13.167 -40.5 -22.5s-22.667 -20 -32 -32s-17.666 -24.333 -24.999 -37c-0.666992 -0.666992 -1 -2.66699 -1 -6c0 -7.33301 5.5 -14.166 16.5 -20.499
s21.167 -9.5 30.5 -9.5h139c4.66699 0 7.66699 0.333008 9 1c20.667 4 40.667 21.667 60 53c10 -18 21.167 -31.5 33.5 -40.5s24.166 -13.5 35.499 -13.5z" />
    <glyph glyph-name="FL00E3h" unicode="&#xe3;" horiz-adv-x="1084" 
d="M784 212l-0.00195312 204.002c-0.666992 0 -3.16699 -1 -7.5 -3s-9.66602 -4.83301 -15.999 -8.5s-11.166 -6.83398 -14.499 -9.50098l-389 -374c-2 -2.66699 -5.5 -5.16699 -10.5 -7.5s-10.5 -4.5 -16.5 -6.5s-11.5 -3.66699 -16.5 -5s-8.5 -2 -10.5 -2h-249
c-16 0.666992 -24 5.33398 -24 14.001c0 3.33301 1.33301 7.33301 4 12s6 9.66699 10 15l434 429c37.333 36.667 72.5 62.667 105.5 78s67.5 23 103.5 23h249c65.333 0 98 -30.667 98 -92v-370c0 -16 -3.66699 -30.667 -11 -44s-17.166 -24.833 -29.499 -34.5
s-26.833 -17.167 -43.5 -22.5s-34.334 -8 -53.001 -8h-392c-5.33301 0 -9.83301 0.833008 -13.5 2.5s-5.5 5.16699 -5.5 10.5c0 1.33301 1.66699 4.16602 5 8.49902s5.66602 7.16602 6.99902 8.49902l86 86c4 4 8.5 8 13.5 12s10.333 7.83301 16 11.5
s11.334 6.66699 17.001 9s10.5 3.5 14.5 3.5h80c39.333 0 59 20 59 60zM686.998 623.002c-11.333 0 -23.166 4.50098 -35.499 13.501s-23.5 22.5 -33.5 40.5c-19.333 -31.333 -39.333 -49 -60 -53c-1.33301 -0.666992 -4.33301 -1 -9 -1h-129
c-9.33301 0 -19.5 3.16699 -30.5 9.5s-16.5 13.166 -16.5 20.499v4c0 2 0.333008 3.33301 1 4c14.667 26 33.667 48.833 57 68.5s53.666 29.5 90.999 29.5h187c11.333 0 23.166 -4.5 35.499 -13.5s23.5 -22.5 33.5 -40.5c19.333 31.333 39.333 49 60 53
c1.33301 0.666992 4.33301 1 9 1h129c10 0 20.333 -3.5 31 -10.5s16 -14.167 16 -21.5c0 -3.33301 -0.333008 -5.33301 -1 -6c-7.33301 -13.333 -15.666 -25.833 -24.999 -37.5s-20 -22 -32 -31s-25.5 -16.167 -40.5 -21.5s-31.833 -8 -50.5 -8h-187z" />
    <glyph glyph-name="FL00E4h" unicode="&#xe4;" horiz-adv-x="1084" 
d="M784 212l-0.00195312 204.002c-0.666992 0 -3.16699 -1 -7.5 -3s-9.66602 -4.83301 -15.999 -8.5s-11.166 -6.83398 -14.499 -9.50098l-389 -374c-2 -2.66699 -5.5 -5.16699 -10.5 -7.5s-10.5 -4.5 -16.5 -6.5s-11.5 -3.66699 -16.5 -5s-8.5 -2 -10.5 -2h-249
c-16 0.666992 -24 5.33398 -24 14.001c0 3.33301 1.33301 7.33301 4 12s6 9.66699 10 15l434 429c37.333 36.667 72.5 62.667 105.5 78s67.5 23 103.5 23h249c65.333 0 98 -30.667 98 -92v-370c0 -16 -3.66699 -30.667 -11 -44s-17.166 -24.833 -29.499 -34.5
s-26.833 -17.167 -43.5 -22.5s-34.334 -8 -53.001 -8h-392c-5.33301 0 -9.83301 0.833008 -13.5 2.5s-5.5 5.16699 -5.5 10.5c0 1.33301 1.66699 4.16602 5 8.49902s5.66602 7.16602 6.99902 8.49902l86 86c4 4 8.5 8 13.5 12s10.333 7.83301 16 11.5
s11.334 6.66699 17.001 9s10.5 3.5 14.5 3.5h80c39.333 0 59 20 59 60zM981.998 623.002h-139c-11.333 0 -22 3.66699 -32 11s-15 15.666 -15 24.999v61c0 11.333 5 20.666 15 27.999s21 11 33 11h137c11.333 0 22 -3.66699 32 -11s15 -16.666 15 -27.999v-61
c0 -9.33301 -5 -17.666 -15 -24.999s-20.333 -11 -31 -11zM704.998 623.002h-139c-10.667 0 -21 3.66699 -31 11s-15 15.666 -15 24.999v61c0 11.333 5 20.666 15 27.999s20.667 11 32 11h137c12 0 23 -3.66699 33 -11s15 -16.666 15 -27.999v-61
c0 -9.33301 -5 -17.666 -15 -24.999s-20.667 -11 -32 -11z" />
    <glyph glyph-name="FL00E5h" unicode="&#xe5;" horiz-adv-x="1084" 
d="M715 623h139c11.333 0 22 3.66699 32 11s15 15.666 15 24.999v61c0 11.333 -5 20.666 -15 27.999s-21 11 -33 11h-137c-11.333 0 -22 -3.66699 -32 -11s-15 -16.666 -15 -27.999v-61c0 -9.33301 5 -17.666 15 -24.999s20.333 -11 31 -11zM784 416l0.00195312 -204.002
c0 -40 -19.667 -60 -59 -60h-80c-4 0 -8.83301 -1.16699 -14.5 -3.5s-11.334 -5.33301 -17.001 -9s-11 -7.5 -16 -11.5s-9.5 -8 -13.5 -12l-86 -86c-1.33301 -1.33301 -3.66602 -4.16602 -6.99902 -8.49902s-5 -7.16602 -5 -8.49902c0 -5.33301 1.83301 -8.83301 5.5 -10.5
s8.16699 -2.5 13.5 -2.5h392c18.667 0 36.334 2.66699 53.001 8s31.167 12.833 43.5 22.5s22.166 21.167 29.499 34.5s11 28 11 44v370c0 61.333 -32.667 92 -98 92h-249c-36 0 -70.5 -7.66699 -103.5 -23s-68.167 -41.333 -105.5 -78l-434 -429
c-4 -5.33301 -7.33301 -10.333 -10 -15s-4 -8.66699 -4 -12c0 -8.66699 8 -13.334 24 -14.001h249c2 0 5.5 0.666992 10.5 2s10.5 3 16.5 5s11.5 4.16699 16.5 6.5s8.5 4.83301 10.5 7.5l389 374c3.33301 2.66699 8.16602 5.83398 14.499 9.50098s11.666 6.5 15.999 8.5
s6.83301 3 7.5 3zM807.002 667.998h-42.998c-4.66699 0 -9.16699 1.5 -13.5 4.5s-6.5 6.5 -6.5 10.5v14c0 4.66699 2.16699 8.5 6.5 11.5s9.16602 4.5 14.499 4.5h41c5.33301 0 10.166 -1.5 14.499 -4.5s6.5 -6.83301 6.5 -11.5v-14c0 -4 -2.16699 -7.5 -6.5 -10.5
s-8.83301 -4.5 -13.5 -4.5z" />
    <glyph glyph-name="FL00E6h" unicode="&#xe6;" horiz-adv-x="1708" 
d="M784 206l-0.00390625 210.004c-0.666992 0 -3.16699 -1 -7.5 -3s-9.66602 -4.83301 -15.999 -8.5s-11.166 -6.83398 -14.499 -9.50098l-389 -374c-2 -2.66699 -5.5 -5.16699 -10.5 -7.5s-10.5 -4.5 -16.5 -6.5s-11.5 -3.66699 -16.5 -5s-8.5 -2 -10.5 -2h-249
c-16 0.666992 -24 5.33398 -24 14.001c0 3.33301 1.33301 7.33301 4 12s6 9.66699 10 15l434 429c37.333 36.667 72.5 62.667 105.5 78s67.5 23 103.5 23h920c12.667 0 24.334 -4.33301 35.001 -13s16 -18.667 16 -30v-69c0 -10.667 -5.5 -20 -16.5 -28
s-22.167 -12 -33.5 -12h-530c-15.333 0 -26.166 -2.5 -32.499 -7.5s-9.5 -13.167 -9.5 -24.5c0 -12.667 3.33301 -21.334 10 -26.001s17.334 -7 32.001 -7h529c12.667 0 24.334 -4.33301 35.001 -13s16 -18.667 16 -30v-49c0 -10.667 -5.5 -20 -16.5 -28
s-22.167 -12 -33.5 -12h-530c-15.333 0 -26 -2.83301 -32 -8.5s-9.33301 -14.834 -10 -27.501c0 -12.667 3.16699 -21.5 9.5 -26.5s17.166 -7.5 32.499 -7.5h530c11.333 0 22.5 -4 33.5 -12s16.5 -17.333 16.5 -28v-69c0 -11.333 -5.33301 -21.333 -16 -30
s-22.334 -13 -35.001 -13h-1102c-5.33301 0 -9.83301 0.833008 -13.5 2.5s-5.5 5.16699 -5.5 10.5c0 1.33301 1.66699 4.16602 5 8.49902s5.66602 7.16602 6.99902 8.49902l86 86c4 4 8.5 8 13.5 12s10.333 7.83301 16 11.5s11.334 6.66699 17.001 9s10.5 3.5 14.5 3.5h80
c37.333 0 57 18 59 54z" />
    <glyph glyph-name="FL00E7h" unicode="&#xe7;" 
d="M630 -118c0 -12.667 -4.33398 -24.333 -13.001 -35s-18.667 -16 -30 -16h-171c-11.333 0 -22.5 4 -33.5 12s-16.5 17.333 -16.5 28v45c0 11.333 5.33301 21.333 16 30s22.334 13 35.001 13h53c10 0 17.833 3 23.5 9s8.5 13.667 8.5 23v9h-315
c-18.667 0 -36.334 2.66699 -53.001 8s-31.167 12.833 -43.5 22.5s-22.166 21.167 -29.499 34.5s-11 28 -11 44v353c0 16 3.66699 30.667 11 44s17.166 24.833 29.499 34.5s26.833 17.167 43.5 22.5s34.334 8 53.001 8h686c12.667 0 24.334 -4.33301 35.001 -13
s16 -18.667 16 -30v-69c0 -10.667 -5.5 -20 -16.5 -28s-22.167 -12 -33.5 -12h-515c-19.333 0 -34 -4.5 -44 -13.5s-15 -23.5 -15 -43.5v-154c0 -20 5 -34.333 15 -43s24.667 -13 44 -13h515c11.333 0 22.5 -4 33.5 -12s16.5 -17.333 16.5 -28v-69
c0 -11.333 -5.33301 -21.333 -16 -30s-22.334 -13 -35.001 -13h-243v-118z" />
    <glyph glyph-name="FL00E8h" unicode="&#xe8;" 
d="M50 109l-0.00195312 353.002c0 16 3.66699 30.667 11 44s17.166 24.833 29.499 34.5s26.833 17.167 43.5 22.5s34.334 8 53.001 8h686c12.667 0 24.334 -4.33301 35.001 -13s16 -18.667 16 -30v-69c0 -10.667 -5.5 -20 -16.5 -28s-22.167 -12 -33.5 -12h-530
c-15.333 0 -26.166 -2.5 -32.499 -7.5s-9.5 -13.167 -9.5 -24.5c0 -12.667 3.33301 -21.334 10 -26.001s17.334 -7 32.001 -7h529c12.667 0 24.334 -4.33301 35.001 -13s16 -18.667 16 -30v-49c0 -10.667 -5.5 -20 -16.5 -28s-22.167 -12 -33.5 -12h-530
c-15.333 0 -26 -2.83301 -32 -8.5s-9.33301 -14.834 -10 -27.501c0 -12.667 3.16699 -21.5 9.5 -26.5s17.166 -7.5 32.499 -7.5h530c11.333 0 22.5 -4 33.5 -12s16.5 -17.333 16.5 -28v-69c0 -11.333 -5.33301 -21.333 -16 -30s-22.334 -13 -35.001 -13h-686
c-18.667 0 -36.334 2.66699 -53.001 8s-31.167 12.833 -43.5 22.5s-22.166 21.167 -29.499 34.5s-11 28 -11 44zM592.998 705.002l27.998 -46.998c2 -5.33301 3 -10 3 -14c0 -14 -6.33301 -21 -19 -21h-120c-18.667 0 -35.5 2.83301 -50.5 8.5s-28.5 13.167 -40.5 22.5
s-22.667 20 -32 32s-17.666 24.333 -24.999 37c-0.666992 0.666992 -1 2.66699 -1 6c0 7.33301 5.5 14.166 16.5 20.499s21.167 9.5 30.5 9.5h139l9 -1c12.667 -0.666992 23.834 -5.83398 33.501 -15.501s19.167 -22.167 28.5 -37.5z" />
    <glyph glyph-name="FL00E9h" unicode="&#xe9;" 
d="M50 109l-0.00195312 353.002c0 16 3.66699 30.667 11 44s17.166 24.833 29.499 34.5s26.833 17.167 43.5 22.5s34.334 8 53.001 8h686c12.667 0 24.334 -4.33301 35.001 -13s16 -18.667 16 -30v-69c0 -10.667 -5.5 -20 -16.5 -28s-22.167 -12 -33.5 -12h-530
c-15.333 0 -26.166 -2.5 -32.499 -7.5s-9.5 -13.167 -9.5 -24.5c0 -12.667 3.33301 -21.334 10 -26.001s17.334 -7 32.001 -7h529c12.667 0 24.334 -4.33301 35.001 -13s16 -18.667 16 -30v-49c0 -10.667 -5.5 -20 -16.5 -28s-22.167 -12 -33.5 -12h-530
c-15.333 0 -26 -2.83301 -32 -8.5s-9.33301 -14.834 -10 -27.501c0 -12.667 3.16699 -21.5 9.5 -26.5s17.166 -7.5 32.499 -7.5h530c11.333 0 22.5 -4 33.5 -12s16.5 -17.333 16.5 -28v-69c0 -11.333 -5.33301 -21.333 -16 -30s-22.334 -13 -35.001 -13h-686
c-18.667 0 -36.334 2.66699 -53.001 8s-31.167 12.833 -43.5 22.5s-22.166 21.167 -29.499 34.5s-11 28 -11 44zM382.998 658.002l27.998 46.998c9.33301 15.333 18.833 27.833 28.5 37.5s20.834 14.834 33.501 15.501l9 1h139c9.33301 0 19.5 -3.16699 30.5 -9.5
s16.5 -13.166 16.5 -20.499c0 -3.33301 -0.333008 -5.33301 -1 -6c-7.33301 -12.667 -15.666 -25 -24.999 -37s-20 -22.667 -32 -32s-25.5 -16.833 -40.5 -22.5s-31.833 -8.5 -50.5 -8.5h-120c-12.667 0 -19 7 -19 21c0 4 1 8.66699 3 14z" />
    <glyph glyph-name="FL00EAh" unicode="&#xea;" 
d="M50 109l-0.00195312 353.002c0 16 3.66699 30.667 11 44s17.166 24.833 29.499 34.5s26.833 17.167 43.5 22.5s34.334 8 53.001 8h686c12.667 0 24.334 -4.33301 35.001 -13s16 -18.667 16 -30v-69c0 -10.667 -5.5 -20 -16.5 -28s-22.167 -12 -33.5 -12h-530
c-15.333 0 -26.166 -2.5 -32.499 -7.5s-9.5 -13.167 -9.5 -24.5c0 -12.667 3.33301 -21.334 10 -26.001s17.334 -7 32.001 -7h529c12.667 0 24.334 -4.33301 35.001 -13s16 -18.667 16 -30v-49c0 -10.667 -5.5 -20 -16.5 -28s-22.167 -12 -33.5 -12h-530
c-15.333 0 -26 -2.83301 -32 -8.5s-9.33301 -14.834 -10 -27.501c0 -12.667 3.16699 -21.5 9.5 -26.5s17.166 -7.5 32.499 -7.5h530c11.333 0 22.5 -4 33.5 -12s16.5 -17.333 16.5 -28v-69c0 -11.333 -5.33301 -21.333 -16 -30s-22.334 -13 -35.001 -13h-686
c-18.667 0 -36.334 2.66699 -53.001 8s-31.167 12.833 -43.5 22.5s-22.166 21.167 -29.499 34.5s-11 28 -11 44zM570.998 623.002c-11.333 0 -23.165 4.5 -35.498 13.5s-23.5 22.5 -33.5 40.5c-19.333 -31.333 -39.333 -49 -60 -53c-1.33301 -0.666992 -4.33301 -1 -9 -1
h-139c-9.33301 0 -19.5 3.16699 -30.5 9.5s-16.5 13.166 -16.5 20.499c0 3.33301 0.333008 5.33301 1 6c7.33301 12.667 15.666 25 24.999 37s20 22.667 32 32s25.5 16.833 40.5 22.5s31.833 8.5 50.5 8.5h212c18.667 0 35.5 -2.83301 50.5 -8.5s28.5 -13.167 40.5 -22.5
s22.667 -20 32 -32s17.666 -24.333 24.999 -37c0.666992 -0.666992 1 -2.66699 1 -6c0 -7.33301 -5.5 -14.166 -16.5 -20.499s-21.167 -9.5 -30.5 -9.5h-139z" />
    <glyph glyph-name="FL00EBh" unicode="&#xeb;" 
d="M50 109l-0.00195312 353.002c0 16 3.66699 30.667 11 44s17.166 24.833 29.499 34.5s26.833 17.167 43.5 22.5s34.334 8 53.001 8h686c12.667 0 24.334 -4.33301 35.001 -13s16 -18.667 16 -30v-69c0 -10.667 -5.5 -20 -16.5 -28s-22.167 -12 -33.5 -12h-530
c-15.333 0 -26.166 -2.5 -32.499 -7.5s-9.5 -13.167 -9.5 -24.5c0 -12.667 3.33301 -21.334 10 -26.001s17.334 -7 32.001 -7h529c12.667 0 24.334 -4.33301 35.001 -13s16 -18.667 16 -30v-49c0 -10.667 -5.5 -20 -16.5 -28s-22.167 -12 -33.5 -12h-530
c-15.333 0 -26 -2.83301 -32 -8.5s-9.33301 -14.834 -10 -27.501c0 -12.667 3.16699 -21.5 9.5 -26.5s17.166 -7.5 32.499 -7.5h530c11.333 0 22.5 -4 33.5 -12s16.5 -17.333 16.5 -28v-69c0 -11.333 -5.33301 -21.333 -16 -30s-22.334 -13 -35.001 -13h-686
c-18.667 0 -36.334 2.66699 -53.001 8s-31.167 12.833 -43.5 22.5s-22.166 21.167 -29.499 34.5s-11 28 -11 44zM709.998 623.002h-139c-11.333 0 -22 3.66699 -32 11s-15 15.666 -15 24.999v61c0 11.333 5 20.666 15 27.999s21 11 33 11h137c11.333 0 22 -3.66699 32 -11
s15 -16.666 15 -27.999v-61c0 -9.33301 -5 -17.666 -15 -24.999s-20.333 -11 -31 -11zM432.998 623.002h-139c-10.667 0 -21 3.66699 -31 11s-15 15.666 -15 24.999v61c0 11.333 5 20.666 15 27.999s20.667 11 32 11h137c12 0 23 -3.66699 33 -11s15 -16.666 15 -27.999v-61
c0 -9.33301 -5 -17.666 -15 -24.999s-20.667 -11 -32 -11z" />
    <glyph glyph-name="FL00ECh" unicode="&#xec;" horiz-adv-x="350" 
d="M300 512v-456c0 -15.333 -4.83301 -28.5 -14.5 -39.5s-20.5 -16.5 -32.5 -16.5h-157c-10.667 0 -21 5.66699 -31 17s-15 24.333 -15 39v462c0 14.667 5.66699 27.167 17 37.5s22.333 15.5 33 15.5h153c12 0 22.833 -5 32.5 -15s14.5 -24.667 14.5 -44zM268 705
l27.998 -46.998c2 -5.33301 3 -10 3 -14c0 -14 -6.33301 -21 -19 -21h-120c-18.667 0 -35.5 2.83301 -50.5 8.5s-28.5 13.167 -40.5 22.5s-22.667 20 -32 32s-17.666 24.333 -24.999 37c-0.666992 0.666992 -1 2.66699 -1 6c0 7.33301 5.5 14.166 16.5 20.499
s21.167 9.5 30.5 9.5h139l9 -1c12.667 -0.666992 23.834 -5.83398 33.501 -15.501s19.167 -22.167 28.5 -37.5z" />
    <glyph glyph-name="FL00EDh" unicode="&#xed;" horiz-adv-x="350" 
d="M300 512v-456c0 -15.333 -4.83301 -28.5 -14.5 -39.5s-20.5 -16.5 -32.5 -16.5h-157c-10.667 0 -21 5.66699 -31 17s-15 24.333 -15 39v462c0 14.667 5.66699 27.167 17 37.5s22.333 15.5 33 15.5h153c12 0 22.833 -5 32.5 -15s14.5 -24.667 14.5 -44zM58 658
l27.998 46.998c9.33301 15.333 18.833 27.833 28.5 37.5s20.834 14.834 33.501 15.501l9 1h139c9.33301 0 19.5 -3.16699 30.5 -9.5s16.5 -13.166 16.5 -20.499c0 -3.33301 -0.333008 -5.33301 -1 -6c-7.33301 -12.667 -15.666 -25 -24.999 -37s-20 -22.667 -32 -32
s-25.5 -16.833 -40.5 -22.5s-31.833 -8.5 -50.5 -8.5h-120c-12.667 0 -19 7 -19 21c0 4 1 8.66699 3 14z" />
    <glyph glyph-name="FL00EEh" unicode="&#xee;" horiz-adv-x="350" 
d="M300 512v-456c0 -15.333 -4.83301 -28.5 -14.5 -39.5s-20.5 -16.5 -32.5 -16.5h-157c-10.667 0 -21 5.66699 -31 17s-15 24.333 -15 39v462c0 14.667 5.66699 27.167 17 37.5s22.333 15.5 33 15.5h153c12 0 22.833 -5 32.5 -15s14.5 -24.667 14.5 -44zM245 623
c-11.333 0 -23.165 4.5 -35.498 13.5s-23.5 22.5 -33.5 40.5c-19.333 -31.333 -39.333 -49 -60 -53c-1.33301 -0.666992 -4.33301 -1 -9 -1h-139c-9.33301 0 -19.5 3.16699 -30.5 9.5s-16.5 13.166 -16.5 20.499c0 3.33301 0.333008 5.33301 1 6
c7.33301 12.667 15.666 25 24.999 37s20 22.667 32 32s25.5 16.833 40.5 22.5s31.833 8.5 50.5 8.5h212c18.667 0 35.5 -2.83301 50.5 -8.5s28.5 -13.167 40.5 -22.5s22.667 -20 32 -32s17.666 -24.333 24.999 -37c0.666992 -0.666992 1 -2.66699 1 -6
c0 -7.33301 -5.5 -14.166 -16.5 -20.499s-21.167 -9.5 -30.5 -9.5h-139z" />
    <glyph glyph-name="FL00EFh" unicode="&#xef;" horiz-adv-x="350" 
d="M300 512v-456c0 -15.333 -4.83301 -28.5 -14.5 -39.5s-20.5 -16.5 -32.5 -16.5h-157c-10.667 0 -21 5.66699 -31 17s-15 24.333 -15 39v462c0 14.667 5.66699 27.167 17 37.5s22.333 15.5 33 15.5h153c12 0 22.833 -5 32.5 -15s14.5 -24.667 14.5 -44zM384 623h-139
c-11.333 0 -22 3.66699 -32 11s-15 15.666 -15 24.999v61c0 11.333 5 20.666 15 27.999s21 11 33 11h137c11.333 0 22 -3.66699 32 -11s15 -16.666 15 -27.999v-61c0 -9.33301 -5 -17.666 -15 -24.999s-20.333 -11 -31 -11zM107 623h-139c-10.667 0 -21 3.66699 -31 11
s-15 15.666 -15 24.999v61c0 11.333 5 20.666 15 27.999s20.667 11 32 11h137c12 0 23 -3.66699 33 -11s15 -16.666 15 -27.999v-61c0 -9.33301 -5 -17.666 -15 -24.999s-20.667 -11 -32 -11z" />
    <glyph glyph-name="FL00F0h" unicode="&#xf0;" 
d="M50 103c0 -34.667 11.335 -60.499 34.002 -77.499s53 -25.5 91 -25.5h624c36.667 0 66.667 9.66699 90 29s35 47 35 83v350c0 16 -3.66699 30.667 -11 44s-17.166 24.833 -29.499 34.5s-26.833 17.167 -43.5 22.5s-34.334 8 -53.001 8h-686
c-12.667 0 -24.334 -4.33301 -35.001 -13s-16 -18.667 -16 -30v-69c0 -10.667 5.5 -20 16.5 -28s22.167 -12 33.5 -12h525c19.333 0 32.333 -2 39 -6s10 -13.667 10 -29c0 -10 -4.83301 -17.333 -14.5 -22s-18.834 -7.33398 -27.501 -8.00098h-442c-29.333 0 -53 -3 -71 -9
s-32.167 -14 -42.5 -24s-17.333 -21.833 -21 -35.5s-5.5 -28.5 -5.5 -44.5v-138zM350.002 152.001c-17.333 0 -29.834 3 -37.501 9s-11.5 15 -11.5 27c0 13.333 3.5 22.333 10.5 27s18.167 7 33.5 7h283c31.333 0 47 -11 47 -33c0 -14 -3.66699 -23.667 -11 -29
s-20.666 -8 -39.999 -8h-274z" />
    <glyph glyph-name="FL00F1h" unicode="&#xf1;" horiz-adv-x="1104" 
d="M300 416l-0.000976562 -204.003c0 -40 19.667 -60 59 -60h80c4 0 8.83301 -1.16699 14.5 -3.5s11.334 -5.33301 17.001 -9s11 -7.5 16 -11.5s9.5 -8 13.5 -12l86 -86c1.33301 -1.33301 3.66602 -4.16602 6.99902 -8.49902s5 -7.16602 5 -8.49902
c0 -5.33301 -1.83301 -8.83301 -5.5 -10.5s-8.16699 -2.5 -13.5 -2.5h-392c-18.667 0 -36.334 2.66699 -53.001 8s-31.167 12.833 -43.5 22.5s-22.166 21.167 -29.499 34.5s-11 28 -11 44v370c0 61.333 32.667 92 98 92h252c36 0 70 -7.66699 102 -23
s66.667 -41.333 104 -78l198 -198v240c0 19.333 4.83301 34 14.5 44s20.5 15 32.5 15h153c10.667 0 21.667 -5.16699 33 -15.5s17 -22.833 17 -37.5v-463c0 -13.333 -4.33301 -25.833 -13 -37.5s-20.667 -17.5 -36 -17.5h-215c-3.33301 0 -7.66602 0.666992 -12.999 2
s-10.833 3 -16.5 5s-10.667 4.16699 -15 6.5s-7.5 4.83301 -9.5 7.5l-398 374c-6.66699 4.66699 -14.667 9.33398 -24 14.001zM539.999 622.997c-11.333 0 -23.166 4.50098 -35.499 13.501s-23.5 22.5 -33.5 40.5c-19.333 -31.333 -39.333 -49 -60 -53
c-1.33301 -0.666992 -4.33301 -1 -9 -1h-129c-9.33301 0 -19.5 3.16699 -30.5 9.5s-16.5 13.166 -16.5 20.499v4c0 2 0.333008 3.33301 1 4c14.667 26 33.667 48.833 57 68.5s53.666 29.5 90.999 29.5h187c11.333 0 23.166 -4.5 35.499 -13.5s23.5 -22.5 33.5 -40.5
c19.333 31.333 39.333 49 60 53c1.33301 0.666992 4.33301 1 9 1h129c10 0 20.333 -3.5 31 -10.5s16 -14.167 16 -21.5c0 -3.33301 -0.333008 -5.33301 -1 -6c-7.33301 -13.333 -15.666 -25.833 -24.999 -37.5s-20 -22 -32 -31s-25.5 -16.167 -40.5 -21.5
s-31.833 -8 -50.5 -8h-187z" />
    <glyph glyph-name="FL00F2h" unicode="&#xf2;" 
d="M615 419h-256c-19.333 0 -34 -4.5 -44 -13.5s-15 -23.5 -15 -43.5v-154c0 -37.333 15 -56 45 -56h284c30 0 45 18.667 45 56v154c0 20 -5 34.5 -15 43.5s-24.667 13.5 -44 13.5zM799 0h-624c-36.667 0 -66.667 9.66699 -90 29s-35 47 -35 83v350
c0 16 3.66699 30.667 11 44s17.166 24.833 29.499 34.5s26.833 17.167 43.5 22.5s34.334 8 53.001 8h600c18.667 0 36.334 -2.66699 53.001 -8s31.167 -12.833 43.5 -22.5s22.166 -21.167 29.499 -34.5s11 -28 11 -44v-350c0 -36 -11.667 -63.667 -35 -83
s-53.333 -29 -90 -29zM578 705l27.998 -46.998c2 -5.33301 3 -10 3 -14c0 -14 -6.33301 -21 -19 -21h-120c-18.667 0 -35.5 2.83301 -50.5 8.5s-28.5 13.167 -40.5 22.5s-22.667 20 -32 32s-17.666 24.333 -24.999 37c-0.666992 0.666992 -1 2.66699 -1 6
c0 7.33301 5.5 14.166 16.5 20.499s21.167 9.5 30.5 9.5h139l9 -1c12.667 -0.666992 23.834 -5.83398 33.501 -15.501s19.167 -22.167 28.5 -37.5z" />
    <glyph glyph-name="FL00F3h" unicode="&#xf3;" 
d="M615 419h-256c-19.333 0 -34 -4.5 -44 -13.5s-15 -23.5 -15 -43.5v-154c0 -37.333 15 -56 45 -56h284c30 0 45 18.667 45 56v154c0 20 -5 34.5 -15 43.5s-24.667 13.5 -44 13.5zM799 0h-624c-36.667 0 -66.667 9.66699 -90 29s-35 47 -35 83v350
c0 16 3.66699 30.667 11 44s17.166 24.833 29.499 34.5s26.833 17.167 43.5 22.5s34.334 8 53.001 8h600c18.667 0 36.334 -2.66699 53.001 -8s31.167 -12.833 43.5 -22.5s22.166 -21.167 29.499 -34.5s11 -28 11 -44v-350c0 -36 -11.667 -63.667 -35 -83
s-53.333 -29 -90 -29zM368 658l27.998 46.998c9.33301 15.333 18.833 27.833 28.5 37.5s20.834 14.834 33.501 15.501l9 1h139c9.33301 0 19.5 -3.16699 30.5 -9.5s16.5 -13.166 16.5 -20.499c0 -3.33301 -0.333008 -5.33301 -1 -6
c-7.33301 -12.667 -15.666 -25 -24.999 -37s-20 -22.667 -32 -32s-25.5 -16.833 -40.5 -22.5s-31.833 -8.5 -50.5 -8.5h-120c-12.667 0 -19 7 -19 21c0 4 1 8.66699 3 14z" />
    <glyph glyph-name="FL00F4h" unicode="&#xf4;" 
d="M175 0c-36.667 0 -66.667 9.66699 -90 29s-35 47 -35 83v350c0 16 3.66699 30.667 11 44s17.166 24.833 29.499 34.5s26.833 17.167 43.5 22.5s34.334 8 53.001 8h600c18.667 0 36.334 -2.66699 53.001 -8s31.167 -12.833 43.5 -22.5s22.166 -21.167 29.499 -34.5
s11 -28 11 -44v-350c0 -36 -11.667 -63.667 -35 -83s-53.333 -29 -90 -29h-624zM359 419c-19.333 0 -34 -4.5 -44 -13.5s-15 -23.5 -15 -43.5v-154c0 -37.333 15 -56 45 -56h284c30 0 45 18.667 45 56v154c0 20 -5 34.5 -15 43.5s-24.667 13.5 -44 13.5h-256zM556 623
c-11.333 0 -23.165 4.5 -35.498 13.5s-23.5 22.5 -33.5 40.5c-19.333 -31.333 -39.333 -49 -60 -53c-1.33301 -0.666992 -4.33301 -1 -9 -1h-139c-9.33301 0 -19.5 3.16699 -30.5 9.5s-16.5 13.166 -16.5 20.499c0 3.33301 0.333008 5.33301 1 6
c7.33301 12.667 15.666 25 24.999 37s20 22.667 32 32s25.5 16.833 40.5 22.5s31.833 8.5 50.5 8.5h212c18.667 0 35.5 -2.83301 50.5 -8.5s28.5 -13.167 40.5 -22.5s22.667 -20 32 -32s17.666 -24.333 24.999 -37c0.666992 -0.666992 1 -2.66699 1 -6
c0 -7.33301 -5.5 -14.166 -16.5 -20.499s-21.167 -9.5 -30.5 -9.5h-139z" />
    <glyph glyph-name="FL00F5h" unicode="&#xf5;" 
d="M175 0c-36.667 0 -66.667 9.66699 -90 29s-35 47 -35 83v350c0 16 3.66699 30.667 11 44s17.166 24.833 29.499 34.5s26.833 17.167 43.5 22.5s34.334 8 53.001 8h600c18.667 0 36.334 -2.66699 53.001 -8s31.167 -12.833 43.5 -22.5s22.166 -21.167 29.499 -34.5
s11 -28 11 -44v-350c0 -36 -11.667 -63.667 -35 -83s-53.333 -29 -90 -29h-624zM359 419c-19.333 0 -34 -4.5 -44 -13.5s-15 -23.5 -15 -43.5v-154c0 -37.333 15 -56 45 -56h284c30 0 45 18.667 45 56v154c0 20 -5 34.5 -15 43.5s-24.667 13.5 -44 13.5h-256zM479 623
c-11.333 0 -23.166 4.50098 -35.499 13.501s-23.5 22.5 -33.5 40.5c-19.333 -31.333 -39.333 -49 -60 -53c-1.33301 -0.666992 -4.33301 -1 -9 -1h-129c-9.33301 0 -19.5 3.16699 -30.5 9.5s-16.5 13.166 -16.5 20.499v4c0 2 0.333008 3.33301 1 4
c14.667 26 33.667 48.833 57 68.5s53.666 29.5 90.999 29.5h187c11.333 0 23.166 -4.5 35.499 -13.5s23.5 -22.5 33.5 -40.5c19.333 31.333 39.333 49 60 53c1.33301 0.666992 4.33301 1 9 1h129c10 0 20.333 -3.5 31 -10.5s16 -14.167 16 -21.5
c0 -3.33301 -0.333008 -5.33301 -1 -6c-7.33301 -13.333 -15.666 -25.833 -24.999 -37.5s-20 -22 -32 -31s-25.5 -16.167 -40.5 -21.5s-31.833 -8 -50.5 -8h-187z" />
    <glyph glyph-name="FL00F6h" unicode="&#xf6;" 
d="M695 623h-139c-11.333 0 -22 3.66699 -32 11s-15 15.666 -15 24.999v61c0 11.333 5 20.666 15 27.999s21 11 33 11h137c11.333 0 22 -3.66699 32 -11s15 -16.666 15 -27.999v-61c0 -9.33301 -5 -17.666 -15 -24.999s-20.333 -11 -31 -11zM418 623h-139
c-10.667 0 -21 3.66699 -31 11s-15 15.666 -15 24.999v61c0 11.333 5 20.666 15 27.999s20.667 11 32 11h137c12 0 23 -3.66699 33 -11s15 -16.666 15 -27.999v-61c0 -9.33301 -5 -17.666 -15 -24.999s-20.667 -11 -32 -11zM615 419h-256c-19.333 0 -34 -4.5 -44 -13.5
s-15 -23.5 -15 -43.5v-154c0 -37.333 15 -56 45 -56h284c30 0 45 18.667 45 56v154c0 20 -5 34.5 -15 43.5s-24.667 13.5 -44 13.5zM799 0h-624c-36.667 0 -66.667 9.66699 -90 29s-35 47 -35 83v350c0 16 3.66699 30.667 11 44s17.166 24.833 29.499 34.5
s26.833 17.167 43.5 22.5s34.334 8 53.001 8h600c18.667 0 36.334 -2.66699 53.001 -8s31.167 -12.833 43.5 -22.5s22.166 -21.167 29.499 -34.5s11 -28 11 -44v-350c0 -36 -11.667 -63.667 -35 -83s-53.333 -29 -90 -29z" />
    <glyph glyph-name="FL00F7h" unicode="&#xf7;" horiz-adv-x="733" 
d="M632 354h-530.998c-12.667 0 -24.334 -4.33301 -35.001 -13s-16 -18.667 -16 -30v-49c0 -10.667 5.5 -20 16.5 -28s22.167 -12 33.5 -12h533c11.333 0 22.5 4 33.5 12s16.5 17.333 16.5 28v49c0 11.333 -5.33301 21.333 -16 30s-22.334 13 -35.001 13zM293.002 0h150.002
c11.333 0 22.5 4 33.5 12s16.5 17.333 16.5 28v69c0 11.333 -5.33301 21.333 -16 30s-22.334 13 -35.001 13h-148c-12.667 0 -24.334 -4.33301 -35.001 -13s-16 -18.667 -16 -30v-69c0 -10.667 5.5 -20 16.5 -28s22.167 -12 33.5 -12zM292.004 419h150.002
c11.333 0 22.5 4 33.5 12s16.5 17.333 16.5 28v69c0 11.333 -5.33301 21.333 -16 30s-22.334 13 -35.001 13h-148c-12.667 0 -24.334 -4.33301 -35.001 -13s-16 -18.667 -16 -30v-69c0 -10.667 5.5 -20 16.5 -28s22.167 -12 33.5 -12z" />
    <glyph glyph-name="FL00F8h" unicode="&#xf8;" 
d="M175 0c-12 0 -25.166 2.66602 -39.499 7.99902s-27.833 13 -40.5 23s-23.334 21.833 -32.001 35.5s-13 28.834 -13 45.501v350c0 16 3.66699 30.667 11 44s17.166 24.833 29.499 34.5s26.833 17.167 43.5 22.5s34.334 8 53.001 8h600c40 0 72.833 -9 98.5 -27
s38.5 -45.333 38.5 -82v-350c0 -36 -11.667 -63.667 -35 -83s-53.333 -29 -90 -29h-624zM674.001 323.999l-175 -172h130c30 0 45 18.667 45 56v116zM300.001 246.999l175 172h-130c-30 0 -45 -18.667 -45 -56v-116z" />
    <glyph glyph-name="FL00F9h" unicode="&#xf9;" 
d="M606 658l-27.998 46.998c-9.33301 15.333 -18.833 27.833 -28.5 37.5s-20.834 14.834 -33.501 15.501l-9 1h-139c-9.33301 0 -19.5 -3.16699 -30.5 -9.5s-16.5 -13.166 -16.5 -20.499c0 -3.33301 0.333008 -5.33301 1 -6c7.33301 -12.667 15.666 -25 24.999 -37
s20 -22.667 32 -32s25.5 -16.833 40.5 -22.5s31.833 -8.5 50.5 -8.5h120c12.667 0 19 7 19 21c0 4 -1 8.66699 -3 14zM300.002 511.998c0 19.333 -4.83301 34 -14.5 44s-20.5 15 -32.5 15h-153c-10.667 0 -21.667 -5.16699 -33 -15.5s-17 -22.833 -17 -37.5v-406
c0 -36 11.667 -63.667 35 -83s53.333 -29 90 -29h624c36.667 0 66.667 9.66699 90 29s35 47 35 83v406c0 14.667 -5.66699 27.167 -17 37.5s-22.333 15.5 -33 15.5h-153c-12 0 -22.833 -5 -32.5 -15s-14.5 -24.667 -14.5 -44v-304c0 -37.333 -15 -56 -45 -56h-284
c-30 0 -45 18.667 -45 56v304z" />
    <glyph glyph-name="FL00FAh" unicode="&#xfa;" 
d="M396 705l-27.998 -46.998c-2 -5.33301 -3 -10 -3 -14c0 -14 6.33301 -21 19 -21h120c18.667 0 35.5 2.83301 50.5 8.5s28.5 13.167 40.5 22.5s22.667 20 32 32s17.666 24.333 24.999 37c0.666992 0.666992 1 2.66699 1 6c0 7.33301 -5.5 14.166 -16.5 20.499
s-21.167 9.5 -30.5 9.5h-139l-9 -1c-12.667 -0.666992 -23.834 -5.83398 -33.501 -15.501s-19.167 -22.167 -28.5 -37.5zM300.002 512.002c0 19.333 -4.83301 34 -14.5 44s-20.5 15 -32.5 15h-153c-10.667 0 -21.667 -5.16699 -33 -15.5s-17 -22.833 -17 -37.5v-406
c0 -36 11.667 -63.667 35 -83s53.333 -29 90 -29h624c36.667 0 66.667 9.66699 90 29s35 47 35 83v406c0 14.667 -5.66699 27.167 -17 37.5s-22.333 15.5 -33 15.5h-153c-12 0 -22.833 -5 -32.5 -15s-14.5 -24.667 -14.5 -44v-304c0 -37.333 -15 -56 -45 -56h-284
c-30 0 -45 18.667 -45 56v304z" />
    <glyph glyph-name="FL00FBh" unicode="&#xfb;" 
d="M556 623h138.999c9.33301 0 19.5 3.16699 30.5 9.5s16.5 13.166 16.5 20.499c0 3.33301 -0.333008 5.33301 -1 6c-7.33301 12.667 -15.666 25 -24.999 37s-20 22.667 -32 32s-25.5 16.833 -40.5 22.5s-31.833 8.5 -50.5 8.5h-212c-18.667 0 -35.5 -2.83301 -50.5 -8.5
s-28.5 -13.167 -40.5 -22.5s-22.667 -20 -32 -32s-17.666 -24.333 -24.999 -37c-0.666992 -0.666992 -1 -2.66699 -1 -6c0 -7.33301 5.5 -14.166 16.5 -20.499s21.167 -9.5 30.5 -9.5h139c4.66699 0 7.66699 0.333008 9 1c20.667 4 40.667 21.667 60 53
c10 -18 21.167 -31.5 33.5 -40.5s24.166 -13.5 35.499 -13.5zM299.999 512c0 19.333 -4.83301 34 -14.5 44s-20.5 15 -32.5 15h-153c-10.667 0 -21.667 -5.16699 -33 -15.5s-17 -22.833 -17 -37.5v-406c0 -36 11.667 -63.667 35 -83s53.333 -29 90 -29h624
c36.667 0 66.667 9.66699 90 29s35 47 35 83v406c0 14.667 -5.66699 27.167 -17 37.5s-22.333 15.5 -33 15.5h-153c-12 0 -22.833 -5 -32.5 -15s-14.5 -24.667 -14.5 -44v-304c0 -37.333 -15 -56 -45 -56h-284c-30 0 -45 18.667 -45 56v304z" />
    <glyph glyph-name="FL00FCh" unicode="&#xfc;" 
d="M279 623h139c11.333 0 22 3.66699 32 11s15 15.666 15 24.999v61c0 11.333 -5 20.666 -15 27.999s-21 11 -33 11h-137c-11.333 0 -22 -3.66699 -32 -11s-15 -16.666 -15 -27.999v-61c0 -9.33301 5 -17.666 15 -24.999s20.333 -11 31 -11zM556 623h139
c10.667 0 21 3.66699 31 11s15 15.666 15 24.999v61c0 11.333 -5 20.666 -15 27.999s-20.667 11 -32 11h-137c-12 0 -23 -3.66699 -33 -11s-15 -16.666 -15 -27.999v-61c0 -9.33301 5 -17.666 15 -24.999s20.667 -11 32 -11zM300 512c0 19.333 -4.83301 34 -14.5 44
s-20.5 15 -32.5 15h-153c-10.667 0 -21.667 -5.16699 -33 -15.5s-17 -22.833 -17 -37.5v-406c0 -36 11.667 -63.667 35 -83s53.333 -29 90 -29h624c36.667 0 66.667 9.66699 90 29s35 47 35 83v406c0 14.667 -5.66699 27.167 -17 37.5s-22.333 15.5 -33 15.5h-153
c-12 0 -22.833 -5 -32.5 -15s-14.5 -24.667 -14.5 -44v-304c0 -37.333 -15 -56 -45 -56h-284c-30 0 -45 18.667 -45 56v304z" />
    <glyph glyph-name="FL00FDh" unicode="&#xfd;" horiz-adv-x="1104" 
d="M804 155l0.00292969 204.003c0 40 -19.667 60 -59 60h-80c-4 0 -8.83301 1.16699 -14.5 3.5s-11.334 5.33301 -17.001 9s-11 7.5 -16 11.5s-9.5 8 -13.5 12l-86 86c-1.33301 1.33301 -3.66602 4.16602 -6.99902 8.49902s-5 7.16602 -5 8.49902
c0 5.33301 1.83301 8.83301 5.5 10.5s8.16699 2.5 13.5 2.5h392c18.667 0 36.334 -2.66699 53.001 -8s31.167 -12.833 43.5 -22.5s22.166 -21.167 29.499 -34.5s11 -28 11 -44v-370c0 -61.333 -32.667 -92 -98 -92h-855c-12.667 0 -24.334 4.33301 -35.001 13
s-16 18.667 -16 30v69c0 10.667 5.5 20 16.5 28s22.167 12 33.5 12h347l-383 378c-9.33301 11.333 -14 20.333 -14 27c0 8 8 12.667 24 14h247c2 0 5.5 -0.666992 10.5 -2s10.5 -3 16.5 -5s11.5 -4.16699 16.5 -6.5s8.5 -4.83301 10.5 -7.5l391 -374
c3.33301 -2.66699 8.16602 -5.83398 14.499 -9.50098s11.666 -6.5 15.999 -8.5s6.83301 -3 7.5 -3zM453.003 658.003l27.998 46.998c9.33301 15.333 18.833 27.833 28.5 37.5s20.834 14.834 33.501 15.501l9 1h139c9.33301 0 19.5 -3.16699 30.5 -9.5
s16.5 -13.166 16.5 -20.499c0 -3.33301 -0.333008 -5.33301 -1 -6c-7.33301 -12.667 -15.666 -25 -24.999 -37s-20 -22.667 -32 -32s-25.5 -16.833 -40.5 -22.5s-31.833 -8.5 -50.5 -8.5h-120c-12.667 0 -19 7 -19 21c0 4 1 8.66699 3 14z" />
    <glyph glyph-name="FL00FEh" unicode="&#xfe;" 
d="M300 512v-39h487c18.667 0 36.334 -2.66699 53.001 -8s31.167 -12.833 43.5 -22.5s22.166 -21.167 29.499 -34.5s11 -28 11 -44v-151c0 -32 -12.833 -58.167 -38.5 -78.5s-58.5 -30.5 -98.5 -30.5h-487v-45c0 -19.333 -4.83301 -34 -14.5 -44s-20.5 -15 -32.5 -15h-153
c-10.667 0 -21.667 5.16699 -33 15.5s-17 22.833 -17 37.5v465c0 14.667 5.66699 27.167 17 37.5s22.333 15.5 33 15.5h153c12 0 22.833 -5 32.5 -15s14.5 -24.667 14.5 -44zM624 321h-273.999c-16 0 -27.833 -1.16699 -35.5 -3.5s-12.5 -7.83301 -14.5 -16.5v-21
c4 -16 19 -24 45 -24h283c15.333 0 26.666 2.33301 33.999 7s11 13.667 11 27c0 12 -3.33301 20.167 -10 24.5s-19.667 6.5 -39 6.5z" />
    <glyph glyph-name="FL00FFh" unicode="&#xff;" horiz-adv-x="1104" 
d="M804 155l0.00292969 204.003c0 40 -19.667 60 -59 60h-80c-4 0 -8.83301 1.16699 -14.5 3.5s-11.334 5.33301 -17.001 9s-11 7.5 -16 11.5s-9.5 8 -13.5 12l-86 86c-1.33301 1.33301 -3.66602 4.16602 -6.99902 8.49902s-5 7.16602 -5 8.49902
c0 5.33301 1.83301 8.83301 5.5 10.5s8.16699 2.5 13.5 2.5h392c18.667 0 36.334 -2.66699 53.001 -8s31.167 -12.833 43.5 -22.5s22.166 -21.167 29.499 -34.5s11 -28 11 -44v-370c0 -61.333 -32.667 -92 -98 -92h-855c-12.667 0 -24.334 4.33301 -35.001 13
s-16 18.667 -16 30v69c0 10.667 5.5 20 16.5 28s22.167 12 33.5 12h347l-383 378c-9.33301 11.333 -14 20.333 -14 27c0 8 8 12.667 24 14h247c2 0 5.5 -0.666992 10.5 -2s10.5 -3 16.5 -5s11.5 -4.16699 16.5 -6.5s8.5 -4.83301 10.5 -7.5l391 -374
c3.33301 -2.66699 8.16602 -5.83398 14.499 -9.50098s11.666 -6.5 15.999 -8.5s6.83301 -3 7.5 -3zM786.003 623.003h-139c-11.333 0 -22 3.66699 -32 11s-15 15.666 -15 24.999v61c0 11.333 5 20.666 15 27.999s21 11 33 11h137c11.333 0 22 -3.66699 32 -11
s15 -16.666 15 -27.999v-61c0 -9.33301 -5 -17.666 -15 -24.999s-20.333 -11 -31 -11zM509.003 623.003h-139c-10.667 0 -21 3.66699 -31 11s-15 15.666 -15 24.999v61c0 11.333 5 20.666 15 27.999s20.667 11 32 11h137c12 0 23 -3.66699 33 -11s15 -16.666 15 -27.999v-61
c0 -9.33301 -5 -17.666 -15 -24.999s-20.667 -11 -32 -11z" />
    <glyph glyph-name="FL0152h" unicode="&#x152;" horiz-adv-x="1597" 
d="M50 462c0 16 3.66504 30.6689 10.998 44.002s17.166 24.833 29.499 34.5s26.833 17.167 43.5 22.5s34.334 8 53.001 8h1309c12.667 0 24.334 -4.33301 35.001 -13s16 -18.667 16 -30v-69c0 -10.667 -5.5 -20 -16.5 -28s-22.167 -12 -33.5 -12h-530
c-15.333 0 -26.166 -2.5 -32.499 -7.5s-9.5 -13.167 -9.5 -24.5c0 -12.667 3.33301 -21.334 10 -26.001s17.334 -7 32.001 -7h529c12.667 0 24.334 -4.33301 35.001 -13s16 -18.667 16 -30v-49c0 -10.667 -5.5 -20 -16.5 -28s-22.167 -12 -33.5 -12h-530
c-15.333 0 -26 -2.83301 -32 -8.5s-9.33301 -14.834 -10 -27.501c0 -12.667 3.16699 -21.5 9.5 -26.5s17.166 -7.5 32.499 -7.5h530c11.333 0 22.5 -4 33.5 -12s16.5 -17.333 16.5 -28v-69c0 -11.333 -5.33301 -21.333 -16 -30s-22.334 -13 -35.001 -13h-1309
c-18.667 0 -36.334 2.66699 -53.001 8s-31.167 12.833 -43.5 22.5s-22.166 21.167 -29.499 34.5s-11 28 -11 44v353zM672.998 419.002h-314c-19.333 0 -34 -4.5 -44 -13.5s-15 -23.5 -15 -43.5v-154c0 -20 5 -34.333 15 -43s24.667 -13 44 -13h314v267z" />
    <glyph glyph-name="FL0153h" unicode="&#x153;" horiz-adv-x="1597" 
d="M50 462c0 16 3.66504 30.6689 10.998 44.002s17.166 24.833 29.499 34.5s26.833 17.167 43.5 22.5s34.334 8 53.001 8h1309c12.667 0 24.334 -4.33301 35.001 -13s16 -18.667 16 -30v-69c0 -10.667 -5.5 -20 -16.5 -28s-22.167 -12 -33.5 -12h-530
c-15.333 0 -26.166 -2.5 -32.499 -7.5s-9.5 -13.167 -9.5 -24.5c0 -12.667 3.33301 -21.334 10 -26.001s17.334 -7 32.001 -7h529c12.667 0 24.334 -4.33301 35.001 -13s16 -18.667 16 -30v-49c0 -10.667 -5.5 -20 -16.5 -28s-22.167 -12 -33.5 -12h-530
c-15.333 0 -26 -2.83301 -32 -8.5s-9.33301 -14.834 -10 -27.501c0 -12.667 3.16699 -21.5 9.5 -26.5s17.166 -7.5 32.499 -7.5h530c11.333 0 22.5 -4 33.5 -12s16.5 -17.333 16.5 -28v-69c0 -11.333 -5.33301 -21.333 -16 -30s-22.334 -13 -35.001 -13h-1309
c-18.667 0 -36.334 2.66699 -53.001 8s-31.167 12.833 -43.5 22.5s-22.166 21.167 -29.499 34.5s-11 28 -11 44v353zM672.998 419.002h-314c-19.333 0 -34 -4.5 -44 -13.5s-15 -23.5 -15 -43.5v-154c0 -20 5 -34.333 15 -43s24.667 -13 44 -13h314v267z" />
    <glyph glyph-name="FL0160h" unicode="&#x160;" 
d="M438 759c11.333 0 23.165 -4.5 35.498 -13.5s23.5 -22.5 33.5 -40.5c19.333 31.333 39.333 49 60 53c1.33301 0.666992 4.33301 1 9 1h139c9.33301 0 19.5 -3.16699 30.5 -9.5s16.5 -13.166 16.5 -20.499c0 -3.33301 -0.333008 -5.33301 -1 -6
c-7.33301 -12.667 -15.666 -25 -24.999 -37s-20 -22.667 -32 -32s-25.5 -16.833 -40.5 -22.5s-31.833 -8.5 -50.5 -8.5h-212c-18.667 0 -35.5 2.83301 -50.5 8.5s-28.5 13.167 -40.5 22.5s-22.667 20 -32 32s-17.666 24.333 -24.999 37c-0.666992 0.666992 -1 2.66699 -1 6
c0 7.33301 5.5 14.166 16.5 20.499s21.167 9.5 30.5 9.5h139zM923.999 245l0.000976562 -135.999c0 -16 -3.66699 -30.667 -11 -44s-17.166 -24.833 -29.499 -34.5s-26.833 -17.167 -43.5 -22.5s-34.334 -8 -53.001 -8h-686c-12.667 0 -24.334 4.33301 -35.001 13
s-16 18.667 -16 30v69c0 10.667 5.5 20 16.5 28s22.167 12 33.5 12h524c15.333 0 26.166 3 32.499 9s9.5 14 9.5 24c0 8.66699 -2.83301 17 -8.5 25s-16.834 12 -33.501 12h-362c-40 0 -72.833 10.167 -98.5 30.5s-38.5 46.5 -38.5 78.5v131c0 16 3.66699 30.667 11 44
s17.166 24.833 29.499 34.5s26.833 17.167 43.5 22.5s34.334 8 53.001 8h616c12.667 0 23.5 -4.33301 32.5 -13s13.5 -18.667 13.5 -30v-69c0 -10.667 -5.5 -20 -16.5 -28s-22.167 -12 -33.5 -12h-455c-15.333 0 -26.166 -2.5 -32.499 -7.5s-9.5 -13.167 -9.5 -24.5
c0 -12.667 3.33301 -21.334 10 -26.001s17.334 -7 32.001 -7h368c19.333 0 37.333 -2.66699 54 -8s31.167 -12.833 43.5 -22.5s22 -21.167 29 -34.5s10.5 -28 10.5 -44z" />
    <glyph glyph-name="FL0161h" unicode="&#x161;" 
d="M924 245l0.000976562 -135.999c0 -16 -3.66699 -30.667 -11 -44s-17.166 -24.833 -29.499 -34.5s-26.833 -17.167 -43.5 -22.5s-34.334 -8 -53.001 -8h-686c-12.667 0 -24.334 4.33301 -35.001 13s-16 18.667 -16 30v69c0 10.667 5.5 20 16.5 28s22.167 12 33.5 12h524
c15.333 0 26.166 3 32.499 9s9.5 14 9.5 24c0 8.66699 -2.83301 17 -8.5 25s-16.834 12 -33.501 12h-437c-40 0 -72.833 10.167 -98.5 30.5s-38.5 46.5 -38.5 78.5v131c0 16 3.66699 30.667 11 44s17.166 24.833 29.499 34.5s26.833 17.167 43.5 22.5s34.334 8 53.001 8h691
c12.667 0 23.5 -4.33301 32.5 -13s13.5 -18.667 13.5 -30v-69c0 -10.667 -5.5 -20 -16.5 -28s-22.167 -12 -33.5 -12h-530c-15.333 0 -26.166 -2.5 -32.499 -7.5s-9.5 -13.167 -9.5 -24.5c0 -12.667 3.33301 -21.334 10 -26.001s17.334 -7 32.001 -7h443
c19.333 0 37.333 -2.66699 54 -8s31.167 -12.833 43.5 -22.5s22 -21.167 29 -34.5s10.5 -28 10.5 -44zM418.001 759.001c11.333 0 23.165 -4.5 35.498 -13.5s23.5 -22.5 33.5 -40.5c19.333 31.333 39.333 49 60 53c1.33301 0.666992 4.33301 1 9 1h139
c9.33301 0 19.5 -3.16699 30.5 -9.5s16.5 -13.166 16.5 -20.499c0 -3.33301 -0.333008 -5.33301 -1 -6c-7.33301 -12.667 -15.666 -25 -24.999 -37s-20 -22.667 -32 -32s-25.5 -16.833 -40.5 -22.5s-31.833 -8.5 -50.5 -8.5h-212c-18.667 0 -35.5 2.83301 -50.5 8.5
s-28.5 13.167 -40.5 22.5s-22.667 20 -32 32s-17.666 24.333 -24.999 37c-0.666992 0.666992 -1 2.66699 -1 6c0 7.33301 5.5 14.166 16.5 20.499s21.167 9.5 30.5 9.5h139z" />
    <glyph glyph-name="FL0178h" unicode="&#x178;" horiz-adv-x="1104" 
d="M370 623h139c11.333 0 22 3.66699 32 11s15 15.666 15 24.999v61c0 11.333 -5 20.666 -15 27.999s-21 11 -33 11h-137c-11.333 0 -22 -3.66699 -32 -11s-15 -16.666 -15 -27.999v-61c0 -9.33301 5 -17.666 15 -24.999s20.333 -11 31 -11zM647 623h139
c10.667 0 21 3.66699 31 11s15 15.666 15 24.999v61c0 11.333 -5 20.666 -15 27.999s-20.667 11 -32 11h-137c-12 0 -23 -3.66699 -33 -11s-15 -16.666 -15 -27.999v-61c0 -9.33301 5 -17.666 15 -24.999s20.667 -11 32 -11zM804 155
c-0.666992 0 -3.16992 0.999023 -7.50293 2.99902s-9.66602 4.83301 -15.999 8.5s-11.166 6.83398 -14.499 9.50098l-391 374c-2 2.66699 -5.5 5.16699 -10.5 7.5s-10.5 4.5 -16.5 6.5s-11.5 3.66699 -16.5 5s-8.5 2 -10.5 2h-247c-16 -1.33301 -24 -6 -24 -14
c0 -6.66699 4.66699 -15.667 14 -27l383 -378h-347c-11.333 0 -22.5 -4 -33.5 -12s-16.5 -17.333 -16.5 -28v-69c0 -11.333 5.33301 -21.333 16 -30s22.334 -13 35.001 -13h855c65.333 0 98 30.667 98 92v426c0 14.667 -5.66699 27.167 -17 37.5s-22.333 15.5 -33 15.5h-153
c-12 0 -22.833 -5 -32.5 -15s-14.5 -24.667 -14.5 -44v-357z" />
    <glyph glyph-name="FL017Dh" unicode="&#x17d;" 
d="M398 759h-138.999c-9.33301 0 -19.5 -3.16699 -30.5 -9.5s-16.5 -13.166 -16.5 -20.499c0 -3.33301 0.333008 -5.33301 1 -6c7.33301 -12.667 15.666 -25 24.999 -37s20 -22.667 32 -32s25.5 -16.833 40.5 -22.5s31.833 -8.5 50.5 -8.5h212
c18.667 0 35.5 2.83301 50.5 8.5s28.5 13.167 40.5 22.5s22.667 20 32 32s17.666 24.333 24.999 37c0.666992 0.666992 1 2.66699 1 6c0 7.33301 -5.5 14.166 -16.5 20.499s-21.167 9.5 -30.5 9.5h-139c-4.66699 0 -7.66699 -0.333008 -9 -1
c-20.667 -4 -40.667 -21.667 -60 -53c-10 18 -21.167 31.5 -33.5 40.5s-24.166 13.5 -35.499 13.5zM50.001 301l-0.00195312 -250c0 -13.333 4.83301 -25.166 14.5 -35.499s20.167 -15.5 31.5 -15.5h777c12.667 0 24.334 4.33301 35.001 13s16 18.667 16 30v69
c0 10.667 -5.5 20 -16.5 28s-22.167 12 -33.5 12h-532c-15.333 0 -24.833 3 -28.5 9s-5.5 14 -5.5 24c0 8.66699 1.5 17 4.5 25s12.833 12 29.5 12h460c12 0 22.833 5.66699 32.5 17s14.5 24.333 14.5 39v234c0 14.667 -4.66699 28.167 -14 40.5s-20.666 18.5 -33.999 18.5
h-705c-12.667 0 -23.5 -4.33301 -32.5 -13s-13.5 -18.667 -13.5 -30v-69c0 -10.667 5.5 -20 16.5 -28s22.167 -12 33.5 -12h465c15.333 0 24.5 -2.5 27.5 -7.5s4.5 -13.167 4.5 -24.5c0 -12.667 -1.66699 -21.334 -5 -26.001s-12.333 -7 -27 -7h-465
c-13.333 0 -25 -4.16699 -35 -12.5s-15 -21.833 -15 -40.5z" />
    <glyph glyph-name="FL017Eh" unicode="&#x17e;" 
d="M50 51l0.000976562 250c0 18.667 5 32.167 15 40.5s21.667 12.5 35 12.5h540c14.667 0 23.667 2.33301 27 7s5 13.334 5 26.001c0 11.333 -1.5 19.5 -4.5 24.5s-12.167 7.5 -27.5 7.5h-540c-11.333 0 -22.5 4 -33.5 12s-16.5 17.333 -16.5 28v69
c0 11.333 4.5 21.333 13.5 30s19.833 13 32.5 13h781c13.333 0 24.5 -6 33.5 -18s13.5 -25.333 13.5 -40v-235c0 -14.667 -4.83301 -27.667 -14.5 -39s-20.5 -17 -32.5 -17h-535c-16.667 0 -26.5 -4 -29.5 -12s-4.5 -16.333 -4.5 -25c0 -10 1.83301 -18 5.5 -24
s13.167 -9 28.5 -9h532c11.333 0 22.5 -4 33.5 -12s16.5 -17.333 16.5 -28v-69c0 -11.333 -5.33301 -21.333 -16 -30s-22.334 -13 -35.001 -13h-777c-11.333 0 -21.833 5.16699 -31.5 15.5s-14.5 22.166 -14.5 35.499zM418.001 759c11.333 0 23.165 -4.5 35.498 -13.5
s23.5 -22.5 33.5 -40.5c19.333 31.333 39.333 49 60 53c1.33301 0.666992 4.33301 1 9 1h139c9.33301 0 19.5 -3.16699 30.5 -9.5s16.5 -13.166 16.5 -20.499c0 -3.33301 -0.333008 -5.33301 -1 -6c-7.33301 -12.667 -15.666 -25 -24.999 -37s-20 -22.667 -32 -32
s-25.5 -16.833 -40.5 -22.5s-31.833 -8.5 -50.5 -8.5h-212c-18.667 0 -35.5 2.83301 -50.5 8.5s-28.5 13.167 -40.5 22.5s-22.667 20 -32 32s-17.666 24.333 -24.999 37c-0.666992 0.666992 -1 2.66699 -1 6c0 7.33301 5.5 14.166 16.5 20.499s21.167 9.5 30.5 9.5h139z" />
    <glyph glyph-name="FL0192h" unicode="&#x192;" 
d="M300 359l-0.000976562 -300c0 -19.333 -4.83301 -34 -14.5 -44s-20.5 -15 -32.5 -15h-153c-10.667 0 -21.667 5.16699 -33 15.5s-17 22.833 -17 37.5v409c0 16 3.66699 30.667 11 44s17.166 24.833 29.499 34.5s26.833 17.167 43.5 22.5s34.334 8 53.001 8h686
c12.667 0 24.334 -4.33301 35.001 -13s16 -18.667 16 -30v-69c0 -10.667 -5.5 -20 -16.5 -28s-22.167 -12 -33.5 -12h-515c-39.333 0 -59 -20 -59 -60z" />
    <glyph glyph-name="FL02C6h" unicode="&#x2c6;" horiz-adv-x="1085" 
d="M785 359c0 40 -19.665 60.0029 -58.998 60.0029h-537c-4 0 -8.83301 1.16699 -14.5 3.5s-11.334 5.33301 -17.001 9s-11 7.5 -16 11.5s-9.5 8 -13.5 12l-86 86c-1.33301 1.33301 -3.66602 4.16602 -6.99902 8.49902s-5 7.16602 -5 8.49902
c0 5.33301 1.83301 8.83301 5.5 10.5s8.16699 2.5 13.5 2.5h849c18.667 0 36.334 -2.66699 53.001 -8s31.167 -12.833 43.5 -22.5s22.166 -21.167 29.499 -34.5s11 -28 11 -44v-370c0 -61.333 -32.667 -92 -98 -92h-249c-36 0 -70.5 7.66699 -103.5 23
s-68.167 41.333 -105.5 78l-229 226c-4 5.33301 -7.33301 10.333 -10 15s-4 8.66699 -4 12c0 8 8 12.667 24 14h249c2 0 5.5 -0.666992 10.5 -2s10.5 -3 16.5 -5s11.5 -4.16699 16.5 -6.5s8.5 -4.83301 10.5 -7.5l184 -171
c3.33301 -2.66699 8.16602 -5.83398 14.499 -9.50098s11.666 -6.5 15.999 -8.5s6.83301 -3 7.5 -3v204z" />
    <glyph glyph-name="FL02DCh" unicode="&#x2dc;" horiz-adv-x="1085" 
d="M300 359c0 40 19.667 60.0029 59 60.0029h537c4 0 8.83301 1.16699 14.5 3.5s11.334 5.33301 17.001 9s11 7.5 16 11.5s9.5 8 13.5 12l86 86c1.33301 1.33301 3.66602 4.16602 6.99902 8.49902s5 7.16602 5 8.49902c0 5.33301 -1.83301 8.83301 -5.5 10.5
s-8.16699 2.5 -13.5 2.5h-849c-18.667 0 -36.334 -2.66699 -53.001 -8s-31.167 -12.833 -43.5 -22.5s-22.166 -21.167 -29.499 -34.5s-11 -28 -11 -44v-370c0 -61.333 32.667 -92 98 -92h249c36 0 70.5 7.66699 103.5 23s68.167 41.333 105.5 78l229 226
c4 5.33301 7.33301 10.333 10 15s4 8.66699 4 12c0 8 -8 12.667 -24 14h-249c-2 0 -5.5 -0.666992 -10.5 -2s-10.5 -3 -16.5 -5s-11.5 -4.16699 -16.5 -6.5s-8.5 -4.83301 -10.5 -7.5l-184 -171c-6.66699 -4.66699 -14.667 -9.33398 -24 -14.001l-14 -7v204z" />
    <glyph glyph-name="FL2013h" unicode="&#x2013;" horiz-adv-x="622" 
d="M521 354h-419.998c-12.667 0 -24.334 -4.33301 -35.001 -13s-16 -18.667 -16 -30v-49c0 -10.667 5.5 -20 16.5 -28s22.167 -12 33.5 -12h422c11.333 0 22.5 4 33.5 12s16.5 17.333 16.5 28v49c0 11.333 -5.33301 21.333 -16 30s-22.334 13 -35.001 13z" />
    <glyph glyph-name="FL2014h" unicode="&#x2014;" horiz-adv-x="725" 
d="M624 354h-522.998c-12.667 0 -24.334 -4.33301 -35.001 -13s-16 -18.667 -16 -30v-49c0 -10.667 5.5 -20 16.5 -28s22.167 -12 33.5 -12h525c11.333 0 22.5 4 33.5 12s16.5 17.333 16.5 28v49c0 11.333 -5.33301 21.333 -16 30s-22.334 13 -35.001 13z" />
    <glyph glyph-name="FL2018h" unicode="&#x2018;" horiz-adv-x="350" 
d="M254 572l-38.0029 0.00195312c-6 0 -13.667 -1.83301 -23 -5.5s-19 -7.83398 -29 -12.501s-19.333 -9.5 -28 -14.5l-20 -11.5c-5.33301 -3.33301 -11.666 -7.83301 -18.999 -13.5s-14.5 -11.834 -21.5 -18.501s-13 -13.667 -18 -21s-7.5 -14 -7.5 -20v-110
c0 -11.333 5.33301 -21.333 16 -30s22.334 -13 35.001 -13h148c12.667 0 24.334 4.33301 35.001 13s16 18.667 16 30v187c0 10.667 -4.83301 20 -14.5 28s-20.167 12 -31.5 12z" />
    <glyph glyph-name="FL2019h" unicode="&#x2019;" horiz-adv-x="350" 
d="M96 301l38.001 -0.000976562c6 0 13.667 1.66699 23 5s19 7.33301 29 12s19.333 9.5 28 14.5s15.334 9.16699 20.001 12.5l18.5 13.5c7.66699 5.66699 15 11.834 22 18.501s13 13.5 18 20.5s7.5 13.833 7.5 20.5v110c0 11.333 -5.33301 21.333 -16 30
s-22.334 13 -35.001 13h-148c-12.667 0 -24.334 -4.33301 -35.001 -13s-16 -18.667 -16 -30v-187c0 -10.667 4.83301 -20 14.5 -28s20.167 -12 31.5 -12z" />
    <glyph glyph-name="FL201Ah" unicode="&#x201a;" horiz-adv-x="350" 
d="M96 -118l38.001 -0.000976562c6 0 13.667 1.66699 23 5s19 7.33301 29 12s19.333 9.5 28 14.5s15.334 9.16699 20.001 12.5l18.5 13.5c7.66699 5.66699 15 11.834 22 18.501s13 13.5 18 20.5s7.5 13.833 7.5 20.5v110c0 11.333 -5.33301 21.333 -16 30
s-22.334 13 -35.001 13h-148c-12.667 0 -24.334 -4.33301 -35.001 -13s-16 -18.667 -16 -30v-187c0 -10.667 4.83301 -20 14.5 -28s20.167 -12 31.5 -12z" />
    <glyph glyph-name="FL201Ch" unicode="&#x201c;" horiz-adv-x="599" 
d="M229 572l-14.0029 0.00195312c-6 0 -13.667 -1.83301 -23 -5.5s-19 -7.83398 -29 -12.501s-19.333 -9.5 -28 -14.5l-20 -11.5c-5.33301 -3.33301 -11.666 -7.83301 -18.999 -13.5s-14.5 -11.834 -21.5 -18.501s-13 -13.667 -18 -21s-7.5 -14 -7.5 -20v-110
c0 -11.333 5.33301 -21.333 16 -30s22.334 -13 35.001 -13h124c12.667 0 24.334 4.33301 35.001 13s16 18.667 16 30v187c0 10.667 -4.83301 20 -14.5 28s-20.167 12 -31.5 12zM501.997 572.002l-14.0029 0.00195312c-6 0 -13.667 -1.83301 -23 -5.5
s-19 -7.83398 -29 -12.501s-19.333 -9.5 -28 -14.5l-20 -11.5c-5.33301 -3.33301 -11.666 -7.83301 -18.999 -13.5s-14.5 -11.834 -21.5 -18.501s-13 -13.667 -18 -21s-7.5 -14 -7.5 -20v-110c0 -11.333 5.33301 -21.333 16 -30s22.334 -13 35.001 -13h124
c12.667 0 24.334 4.33301 35.001 13s16 18.667 16 30v187c0 10.667 -4.83301 20 -14.5 28s-20.167 12 -31.5 12z" />
    <glyph glyph-name="FL201Dh" unicode="&#x201d;" horiz-adv-x="599" 
d="M369 301l14.001 -0.000976562c6 0 13.667 1.66699 23 5s19 7.33301 29 12s19.333 9.5 28 14.5s15.334 9.16699 20.001 12.5l18.5 13.5c7.66699 5.66699 15 11.834 22 18.501s13 13.5 18 20.5s7.5 13.833 7.5 20.5v110c0 11.333 -5.33301 21.333 -16 30
s-22.334 13 -35.001 13h-124c-12.667 0 -24.334 -4.33301 -35.001 -13s-16 -18.667 -16 -30v-187c0 -10.667 4.83301 -20 14.5 -28s20.167 -12 31.5 -12zM96.001 300.999l14.001 -0.000976562c6 0 13.667 1.66699 23 5s19 7.33301 29 12s19.333 9.5 28 14.5
s15.334 9.16699 20.001 12.5l18.5 13.5c7.66699 5.66699 15 11.834 22 18.501s13 13.5 18 20.5s7.5 13.833 7.5 20.5v110c0 11.333 -5.33301 21.333 -16 30s-22.334 13 -35.001 13h-124c-12.667 0 -24.334 -4.33301 -35.001 -13s-16 -18.667 -16 -30v-187
c0 -10.667 4.83301 -20 14.5 -28s20.167 -12 31.5 -12z" />
    <glyph glyph-name="FL201Eh" unicode="&#x201e;" horiz-adv-x="646" 
d="M392 -118l38.001 -0.000976562c6 0 13.667 1.66699 23 5s19 7.33301 29 12s19.333 9.5 28 14.5s15.334 9.16699 20.001 12.5l18.5 13.5c7.66699 5.66699 15 11.834 22 18.501s13 13.5 18 20.5s7.5 13.833 7.5 20.5v110c0 11.333 -5.33301 21.333 -16 30
s-22.334 13 -35.001 13h-148c-12.667 0 -24.334 -4.33301 -35.001 -13s-16 -18.667 -16 -30v-187c0 -10.667 4.83301 -20 14.5 -28s20.167 -12 31.5 -12zM96.001 -118.001l38.001 -0.000976562c6 0 13.667 1.66699 23 5s19 7.33301 29 12s19.333 9.5 28 14.5
s15.334 9.16699 20.001 12.5l18.5 13.5c7.66699 5.66699 15 11.834 22 18.501s13 13.5 18 20.5s7.5 13.833 7.5 20.5v110c0 11.333 -5.33301 21.333 -16 30s-22.334 13 -35.001 13h-148c-12.667 0 -24.334 -4.33301 -35.001 -13s-16 -18.667 -16 -30v-187
c0 -10.667 4.83301 -20 14.5 -28s20.167 -12 31.5 -12z" />
    <glyph glyph-name="FL2020h" unicode="&#x2020;" horiz-adv-x="798" 
d="M738 25c-1.33301 8 -2.82617 14.8389 -4.49316 20.5059s-2.83398 10.167 -3.50098 13.5c1.33301 11.333 2.33301 20.5 3 27.5s1.33398 13.167 2.00098 18.5c-0.666992 1.33301 -1.33398 3.83301 -2.00098 7.5s-1 7.16699 -1 10.5c0 1.33301 0.666992 4 2 8
c0 0.666992 1.66699 3.66699 5 9c2 2.66699 4.83301 5.66699 8.5 9s8.16699 7.66602 13.5 12.999l3 3c-2.66699 4 -4.33398 7 -5.00098 9l-1 3c-8 6 -18.333 10 -31 12c-2 0.666992 -5.66699 1 -11 1c-9.33301 0 -17.333 -2 -24 -6l-22.5 49.5l-22.5 48.5
c-9.33301 19.333 -18.5 36.333 -27.5 51s-18.5 27.334 -28.5 38.001c-1.33301 3.33301 -2.83301 5.66602 -4.5 6.99902s-2.5 3 -2.5 5l-31 29c-13.333 15.333 -20 26.666 -20 33.999l2 6c2 2.66699 4 4 6 4h1c6.66699 2.66699 20.667 6.33398 42 11.001
c14 2 22 4.33301 24 7c0.666992 0.666992 1 2 1 4c0 4 -3 8 -9 12c-9.33301 7.33301 -24.666 13 -45.999 17l-25 3.5c-7.33301 1 -13.666 1.5 -18.999 1.5h-7c-2.66699 0 -7.33398 -0.333008 -14.001 -1s-15.334 -2 -26.001 -4c-12 -2 -21.333 -3 -28 -3h-5l-51 7.5
c-16.667 2.33301 -33.334 4.16602 -50.001 5.49902l-36 2c-27.333 0 -50.333 -3 -69 -9c-12.667 -4.66699 -25.5 -10.334 -38.5 -17.001s-26.833 -14.667 -41.5 -24c-7.33301 -4 -14.333 -8.83301 -21 -14.5s-14 -10.834 -22 -15.501
c-9.33301 -3.33301 -18.833 -6.5 -28.5 -9.5s-19.167 -5.5 -28.5 -7.5l-10 -6c0.666992 -8.66699 3 -14.334 7 -17.001c7.33301 -5.33301 24.666 -8 51.999 -8c7.33301 0 15 0.166992 23 0.5s16.667 0.833008 26 1.5c11.333 -0.666992 21.5 -1.83398 30.5 -3.50098
l24.5 -4.5h3c2 0 4.16699 -0.166992 6.5 -0.5s6.16602 -0.5 11.499 -0.5c2.66699 -0.666992 5.66699 -1 9 -1c2 0 3.66699 -0.666992 5 -2c0 0.666992 0.666992 -0.666016 2 -3.99902s2.66602 -7.33301 3.99902 -12l4 -14c1.33301 -4.66699 2 -7.33398 2 -8.00098
c9.33301 -16 17 -27 23 -33l17 -13c18.667 -13.333 33.667 -20 45 -20l6 7c-2 6.66699 -3.83301 13.167 -5.5 19.5s-3.83398 12.833 -6.50098 19.5c-2 10 -3 18.333 -3 25c0 8.66699 1.66699 15.667 5 21c4 4.66699 11 7 21 7c6 0 13.667 -1 23 -3
c66 -17.333 125.333 -46.333 178 -87c38 -28 67.167 -53 87.5 -75s32.5 -42.333 36.5 -61l15 -66c8 -28 17.667 -46 29 -54l13 -8c4.66699 0 8 1 10 3z" />
    <glyph glyph-name="FL2021h" unicode="&#x2021;" horiz-adv-x="798" 
d="M60 25c1.33301 8 2.82715 14.8389 4.49414 20.5059s2.83398 10.167 3.50098 13.5c-1.33301 11.333 -2.33301 20.5 -3 27.5s-1.33398 13.167 -2.00098 18.5c0.666992 1.33301 1.33398 3.83301 2.00098 7.5s1 7.16699 1 10.5c0 1.33301 -0.666992 4 -2 8
c0 0.666992 -1.66699 3.66699 -5 9c-2 2.66699 -4.83301 5.66699 -8.5 9s-8.16699 7.66602 -13.5 12.999l-3 3c2.66699 4 4.33398 7 5.00098 9l1 3c8 6 18.333 10 31 12c2 0.666992 5.66699 1 11 1c8.66699 0 16.667 -2 24 -6l22.5 49.5l22.5 48.5
c9.33301 19.333 18.5 36.333 27.5 51s18.5 27.334 28.5 38.001c1.33301 3.33301 2.83301 5.66602 4.5 6.99902s2.5 3 2.5 5l31 29c13.333 15.333 20 26.666 20 33.999l-2 6c-2 2.66699 -4 4 -6 4h-1c-6.66699 2.66699 -20.667 6.33398 -42 11.001c-14 2 -22 4.33301 -24 7
c-0.666992 0.666992 -1 2 -1 4c0 4 3 8 9 12c9.33301 7.33301 24.666 13 45.999 17l25 3.5c7.33301 1 13.666 1.5 18.999 1.5h7c2.66699 0 7.33398 -0.333008 14.001 -1s15.334 -2 26.001 -4c12 -2 21.333 -3 28 -3h5l51 7.5c16.667 2.33301 33.334 4.16602 50.001 5.49902
l36 2c26.667 0 49.667 -3 69 -9c12.667 -4.66699 25.5 -10.334 38.5 -17.001s26.833 -14.667 41.5 -24c7.33301 -4 14.333 -8.83301 21 -14.5s14 -10.834 22 -15.501c9.33301 -3.33301 18.833 -6.5 28.5 -9.5s19.167 -5.5 28.5 -7.5l10 -6
c-0.666992 -8.66699 -3 -14.334 -7 -17.001c-7.33301 -5.33301 -24.666 -8 -51.999 -8c-7.33301 0 -15 0.166992 -23 0.5s-16.667 0.833008 -26 1.5c-11.333 -0.666992 -21.5 -1.83398 -30.5 -3.50098l-24.5 -4.5h-3c-2 0 -4.16699 -0.166992 -6.5 -0.5
s-6.16602 -0.5 -11.499 -0.5c-2.66699 -0.666992 -5.66699 -1 -9 -1c-2 0 -3.66699 -0.666992 -5 -2c0 0.666992 -0.666992 -0.666016 -2 -3.99902s-2.66602 -7.33301 -3.99902 -12l-4 -14c-1.33301 -4.66699 -2 -7.33398 -2 -8.00098c-9.33301 -16 -17 -27 -23 -33l-17 -13
c-18.667 -13.333 -33.667 -20 -45 -20l-6 7c2 6.66699 3.83301 13.167 5.5 19.5s3.83398 12.833 6.50098 19.5c2 10 3 18.333 3 25c0 8.66699 -1.66699 15.667 -5 21c-4 4.66699 -11 7 -21 7c-6.66699 0 -14.334 -1 -23.001 -3c-66 -17.333 -125.333 -46.333 -178 -87
c-38 -28 -67.167 -53 -87.5 -75s-32.5 -42.333 -36.5 -61l-15 -66c-8 -28 -17.667 -46 -29 -54l-13 -8c-4.66699 0 -8 1 -10 3z" />
    <glyph glyph-name="FL2022h" unicode="&#x2022;" 
d="M175 0h624c36.667 0 66.667 9.66699 90 29s35 47 35 83v350c0 16 -3.66699 30.667 -11 44s-17.166 24.833 -29.499 34.5s-26.833 17.167 -43.5 22.5s-34.334 8 -53.001 8h-600c-18.667 0 -36.334 -2.66699 -53.001 -8s-31.167 -12.833 -43.5 -22.5
s-22.166 -21.167 -29.499 -34.5s-11 -28 -11 -44v-350c0 -36 11.667 -63.667 35 -83s53.333 -29 90 -29z" />
    <glyph glyph-name="FL2026h" unicode="&#x2026;" horiz-adv-x="1011" 
d="M761 0h150.002c11.333 0 22.5 4 33.5 12s16.5 17.333 16.5 28v69c0 11.333 -5.33301 21.333 -16 30s-22.334 13 -35.001 13h-148c-12.667 0 -24.334 -4.33301 -35.001 -13s-16 -18.667 -16 -30v-69c0 -10.667 5.5 -20 16.5 -28s22.167 -12 33.5 -12zM430.002 0h150.002
c11.333 0 22.5 4 33.5 12s16.5 17.333 16.5 28v69c0 11.333 -5.33301 21.333 -16 30s-22.334 13 -35.001 13h-148c-12.667 0 -24.334 -4.33301 -35.001 -13s-16 -18.667 -16 -30v-69c0 -10.667 5.5 -20 16.5 -28s22.167 -12 33.5 -12zM100.004 0h150.002
c11.333 0 22.5 4 33.5 12s16.5 17.333 16.5 28v69c0 11.333 -5.33301 21.333 -16 30s-22.334 13 -35.001 13h-148c-12.667 0 -24.334 -4.33301 -35.001 -13s-16 -18.667 -16 -30v-69c0 -10.667 5.5 -20 16.5 -28s22.167 -12 33.5 -12z" />
    <glyph glyph-name="FL2030h" unicode="&#x2030;" horiz-adv-x="1781" 
d="M767 550l-515.999 -508.999c-4 -5.33301 -7.33301 -10.333 -10 -15s-4 -8.66699 -4 -12c0 -8.66699 8 -13.334 24 -14.001h237c2 0 5.16699 0.666992 9.5 2s8.66602 3 12.999 5s8.5 4.16699 12.5 6.5s7 4.83301 9 7.5l516 509c4 5.33301 7.33301 10.333 10 15
s4 8.66699 4 12c0 8 -8 12.667 -24 14h-225c-2 0 -5.66699 -0.666992 -11 -2s-11 -3 -17 -5s-11.667 -4.16699 -17 -6.5s-9 -4.83301 -11 -7.5zM887.001 0.000976562h311.998c18 0 32.833 4.83301 44.5 14.5s17.5 23.5 17.5 41.5v175c0 16 -6.66699 29 -20 39
s-29.333 15 -48 15h-300c-19.333 0 -35.666 -5 -48.999 -15s-20 -23 -20 -39v-175c0 -18 5.83301 -31.833 17.5 -41.5s26.834 -14.5 45.501 -14.5zM1081 199.001c19.333 0 29 -9.33301 29 -28v-57c0 -18.667 -7.33301 -28 -22 -28h-90c-15.333 0 -23 9.33301 -23 28v57
c0 18.667 10 28 30 28h76zM112.999 286.001h311.998c18 0 32.833 4.83301 44.5 14.5s17.5 23.5 17.5 41.5v175c0 16 -6.66699 29 -20 39s-29.333 15 -48 15h-300c-19.333 0 -35.666 -5 -48.999 -15s-20 -23 -20 -39v-175c0 -18 5.83301 -31.833 17.5 -41.5
s26.834 -14.5 45.501 -14.5zM306.997 485.001c19.333 0 29 -9.33301 29 -28v-57c0 -18.667 -7.33301 -28 -22 -28h-90c-15.333 0 -23 9.33301 -23 28v57c0 18.667 10 28 30 28h76zM1357 0.000976562h311.998c18 0 32.833 4.83301 44.5 14.5s17.5 23.5 17.5 41.5v175
c0 16 -6.66699 29 -20 39s-29.333 15 -48 15h-300c-19.333 0 -35.666 -5 -48.999 -15s-20 -23 -20 -39v-175c0 -18 5.83301 -31.833 17.5 -41.5s26.834 -14.5 45.501 -14.5zM1551 199.001c19.333 0 29 -9.33301 29 -28v-57c0 -18.667 -7.33301 -28 -22 -28h-90
c-15.333 0 -23 9.33301 -23 28v57c0 18.667 10 28 30 28h76z" />
    <glyph glyph-name="FL2039h" unicode="&#x2039;" horiz-adv-x="866" 
d="M832 196c-6 5.33301 -11.332 9.67188 -15.999 13.0049s-8.33398 6.33301 -11.001 9l-13.5 24c-3.66699 6.66699 -6.83398 12 -9.50098 16c-2 1.33301 -5.16699 4.16602 -9.5 8.49902s-6.83301 8.16602 -7.5 11.499c-0.666992 0.666992 -1 4 -1 10
c0 3.33301 0.5 7.83301 1.5 13.5s2.16699 12.834 3.5 21.501c-4.66699 2 -7.83398 3.66699 -9.50098 5l-2.5 2c-10.667 0 -21.334 -3.33301 -32.001 -10c-12.667 -6.66699 -21 -14.667 -25 -24l-48 25.5l-47 25.5c-19.333 10.667 -37.166 19 -53.499 25
s-31.166 10.333 -44.499 13c-2.66699 1.33301 -5.16699 2.16602 -7.5 2.49902s-4.16602 1.16602 -5.49902 2.49902l-42 5c-25.333 5.33301 -38 12.333 -38 21c0 3.33301 0.5 5.5 1.5 6.5l1.5 1.5c2.66699 4.66699 11.667 15.667 27 33c10 10 15 17 15 21
c0 5.33301 -5.33301 8 -16 8c-11.333 0 -27 -5 -47 -15c-18.667 -8.66699 -33.334 -17.334 -44.001 -26.001c-2 -1.33301 -5.5 -4.33301 -10.5 -9s-11.167 -11 -18.5 -19c-10.667 -12 -19 -19.333 -25 -22l-45 -25c-14.667 -8 -29 -16.333 -43 -25
c-36.667 -22.667 -63.334 -45.667 -80.001 -69c-14 -20.667 -27.333 -47.334 -40 -80.001c-3.33301 -8 -6 -16.167 -8 -24.5s-4.66699 -16.833 -8 -25.5c-6 -8 -11.833 -16.167 -17.5 -24.5s-11.5 -16.166 -17.5 -23.499l-5 -11c6 -6 11.333 -9 16 -9
c12.667 0 40.667 18.667 84 56c9.33301 6 18.166 11 26.499 15l22.5 11c1.33301 1.33301 3.33301 2.83301 6 4.5s6.33398 4.16699 11.001 7.5c6.66699 4 11.334 6 14.001 6c-0.666992 0.666992 0.5 0 3.5 -2s6.5 -4.5 10.5 -7.5l11.5 -8.5
c3.66699 -2.66699 5.83398 -4.33398 6.50098 -5.00098c17.333 -8.66699 30 -13 38 -13h22c22.667 0 38.667 3.66699 48 11v9l-16 12c-5.33301 4 -11 8 -17 12c-17.333 15.333 -26 28 -26 38s11 19.667 33 29c64 25.333 129 38 195 38c46 0 84 -2.66699 114 -8
s52.333 -14.333 67 -27l51 -44c23.333 -17.333 42 -26 56 -26c1.33301 0 3.33301 0.166992 6 0.5s5.66699 0.833008 9 1.5c4 2 6 4.66699 6 8z" />
    <glyph glyph-name="FL203Ah" unicode="&#x203a;" horiz-adv-x="866" 
d="M34 196c6 5.33301 11.3311 9.67188 15.998 13.0049s8.33398 6.33301 11.001 9l13.5 24c3.66699 6.66699 6.83398 12 9.50098 16c2 1.33301 5.16699 4.16602 9.5 8.49902s6.83301 8.16602 7.5 11.499c0.666992 0.666992 1 4 1 10c0 3.33301 -0.5 7.83301 -1.5 13.5
s-2.16699 12.834 -3.5 21.501c4.66699 2 7.83398 3.66699 9.50098 5l2.5 2c10.667 0 21.334 -3.33301 32.001 -10c12.667 -6.66699 21 -14.667 25 -24l48 25.5l47 25.5c19.333 10.667 37.166 19 53.499 25s31.166 10.333 44.499 13
c2.66699 1.33301 5.16699 2.16602 7.5 2.49902s4.16602 1.16602 5.49902 2.49902l42 5c25.333 5.33301 38 12.333 38 21c0 3.33301 -0.5 5.5 -1.5 6.5l-1.5 1.5c-3.33301 4.66699 -12.333 15.667 -27 33c-10 10 -15 17 -15 21c0 5.33301 5.33301 8 16 8
c11.333 0 27 -5 47 -15c18.667 -8.66699 33.334 -17.334 44.001 -26.001c2 -1.33301 5.5 -4.33301 10.5 -9s11.167 -11 18.5 -19c10.667 -12 19 -19.333 25 -22l45 -25c14.667 -8 29 -16.333 43 -25c36.667 -22.667 63.334 -45.667 80.001 -69
c14 -20.667 27.333 -47.334 40 -80.001c3.33301 -8 6 -16.167 8 -24.5s4.66699 -16.833 8 -25.5c6 -8 11.833 -16.167 17.5 -24.5s11.5 -16.166 17.5 -23.499l5 -11c-6 -6 -11.333 -9 -16 -9c-12.667 0 -40.667 18.667 -84 56c-9.33301 6 -18.166 11 -26.499 15l-22.5 11
c-1.33301 1.33301 -3.33301 2.83301 -6 4.5s-6.33398 4.16699 -11.001 7.5c-7.33301 4 -12 6 -14 6c0.666992 0.666992 -0.5 0 -3.5 -2s-6.5 -4.5 -10.5 -7.5l-11.5 -8.5c-3.66699 -2.66699 -5.83398 -4.33398 -6.50098 -5.00098c-17.333 -8.66699 -30 -13 -38 -13h-22
c-22.667 0 -38.667 3.66699 -48 11v9l16 12c5.33301 4 11 8 17 12c17.333 15.333 26 28 26 38s-11 19.667 -33 29c-64 25.333 -129 38 -195 38c-46 0 -84 -2.66699 -114 -8s-52.333 -14.333 -67 -27l-51 -44c-23.333 -17.333 -42 -26 -56 -26
c-1.33301 0 -3.33301 0.166992 -6 0.5s-5.66699 0.833008 -9 1.5c-4 2 -6 4.66699 -6 8z" />
    <glyph glyph-name="FL20ACh" unicode="&#x20ac;" horiz-adv-x="1093" 
d="M617 262c12.667 0 24.3311 -4.33301 34.998 -13s16 -18.667 16 -30v-49c0 -6.66699 -2.33301 -12.667 -7 -18h332c11.333 0 22.5 -4 33.5 -12s16.5 -17.333 16.5 -28v-69c0 -11.333 -5.33301 -21.333 -16 -30s-22.334 -13 -35.001 -13h-649
c-18.667 0 -36.334 2.66699 -53.001 8s-31.167 12.833 -43.5 22.5s-22.166 21.167 -29.499 34.5s-11 28 -11 44v21h-106c-11.333 0 -22.5 4 -33.5 12s-16.5 17.333 -16.5 28v49c0 11.333 5.33301 21.333 16 30s22.334 13 35.001 13h105v50h-106c-11.333 0 -22.5 4 -33.5 12
s-16.5 17.333 -16.5 28v49c0 11.333 5.33301 21.333 16 30s22.334 13 35.001 13h105v18c0 16 3.66699 30.667 11 44s17.166 24.833 29.499 34.5s26.833 17.167 43.5 22.5s34.334 8 53.001 8h649c12.667 0 24.334 -4.33301 35.001 -13s16 -18.667 16 -30v-69
c0 -10.667 -5.5 -20 -16.5 -28s-22.167 -12 -33.5 -12h-331c4 -6 6 -12 6 -18v-49c0 -10.667 -5.5 -20 -16.5 -28s-22.167 -12 -33.5 -12h-162v-50h161z" />
    <glyph glyph-name="FL2122h" unicode="&#x2122;" horiz-adv-x="408" 
d="M88 551v-119h27v119h56v21h-141v-21h58zM200 568l-0.00292969 -135.999h18v92l7 7l41 -91c2 -4 3.83301 -6.33301 5.5 -7s3.83398 -1 6.50098 -1s4.83398 0.5 6.50098 1.5s4 4 7 9s7 13.167 12 24.5l20.5 47l9 21l7 -9v-94h18v140h-6
c-12.667 0 -23.167 -3.33301 -31.5 -10s-17.166 -20.667 -26.499 -42c-2.66699 -9.33301 -5.16699 -17 -7.5 -23l-7.5 -19l-1 -5l-9 22l-13 31v7c-5.33301 9.33301 -12.5 18.166 -21.5 26.499s-16.167 12.5 -21.5 12.5c0 -0.666992 -2 -1 -6 -1c-2.66699 0 -5 -1 -7 -3z" />
    <glyph glyph-name=".null" horiz-adv-x="0" 
 />
    <glyph glyph-name="nonmarkingreturn" horiz-adv-x="500" 
 />
    </font>
</defs>
</svg>
